<svg width="594" height="470" viewBox="0 0 594 470" fill="none" xmlns="http://www.w3.org/2000/svg">
<path d="M418 367.5L52.5 260.5L286.5 167V149L598.5 34V78.5L468.5 155L418 367.5Z" fill="url(#paint0_linear_335_782)"/>
<path d="M52.5 260.5L418 367.5V389.5L52.5 280V260.5Z" fill="url(#paint1_linear_335_782)"/>
<path d="M52.5 280L418 389.5L405.5 402.5L325.5 433.5V470L2.5 340V326.5L18.5 303.5L52.5 288.5V280Z" fill="url(#paint2_linear_335_782)"/>
<path d="M0 294L17.5 285L48.5 274.5V294L21.5 304.5L2.5 340L0 294Z" fill="url(#paint3_linear_335_782)"/>
<path d="M38.1204 140L1 149.5L212 95.5L602 0V30L282 122L284.5 127L291.5 138L289.5 149.5L284.5 140L42 229.5V238.5L55.5 261.5V285V291L48.5 294V274.5L17.5 285L29.5 264L38.1204 140Z" fill="url(#paint4_linear_335_782)"/>
<path d="M55.5 261.5L42 238.5V229.5L284.5 140L289.5 149.5V168.5L55.5 261.5Z" fill="url(#paint5_linear_335_782)"/>
<path d="M289.5 149.5L291.5 138L284.5 127L282 122L602 30L594 35.5L289.5 149.5Z" fill="url(#paint6_linear_335_782)"/>
<path d="M387 404.5L404.831 383.5L409 371.5L468.5 155L521.5 158L599 91.5L598 156L387 404.5Z" fill="url(#paint7_linear_335_782)"/>
<path d="M468.5 155L577.5 79L594 66.5L599 91.5L521.5 158L468.5 155Z" fill="url(#paint8_linear_335_782)"/>
<path d="M419 429.5L387 404.5L598 156V191L432.5 413L419 429.5Z" fill="url(#paint9_linear_335_782)"/>
<path d="M419 429.5L323 432L387 404.5L419 429.5Z" fill="url(#paint10_linear_335_782)"/>
<path d="M325.5 470L323 432L419 429.5L325.5 470Z" fill="url(#paint11_linear_335_782)"/>
<defs>
<linearGradient id="paint0_linear_335_782" x1="445.5" y1="81.9999" x2="257" y2="457.5" gradientUnits="userSpaceOnUse">
<stop stop-color="#131313"/>
<stop offset="1" stop-color="#666666"/>
</linearGradient>
<linearGradient id="paint1_linear_335_782" x1="445.5" y1="81.9999" x2="257" y2="457.5" gradientUnits="userSpaceOnUse">
<stop stop-color="#131313"/>
<stop offset="1" stop-color="#666666"/>
</linearGradient>
<linearGradient id="paint2_linear_335_782" x1="445.5" y1="81.9999" x2="257" y2="457.5" gradientUnits="userSpaceOnUse">
<stop stop-color="#131313"/>
<stop offset="1" stop-color="#666666"/>
</linearGradient>
<linearGradient id="paint3_linear_335_782" x1="298" y1="115" x2="-770.501" y2="605.5" gradientUnits="userSpaceOnUse">
<stop stop-color="#191919"/>
<stop offset="1" stop-color="#696969"/>
</linearGradient>
<linearGradient id="paint4_linear_335_782" x1="298" y1="115" x2="-770.501" y2="605.5" gradientUnits="userSpaceOnUse">
<stop stop-color="#191919"/>
<stop offset="1" stop-color="#696969"/>
</linearGradient>
<linearGradient id="paint5_linear_335_782" x1="298" y1="115" x2="-770.501" y2="605.5" gradientUnits="userSpaceOnUse">
<stop stop-color="#191919"/>
<stop offset="1" stop-color="#696969"/>
</linearGradient>
<linearGradient id="paint6_linear_335_782" x1="298" y1="115" x2="-770.501" y2="605.5" gradientUnits="userSpaceOnUse">
<stop stop-color="#191919"/>
<stop offset="1" stop-color="#696969"/>
</linearGradient>
<linearGradient id="paint7_linear_335_782" x1="582" y1="136.5" x2="329.5" y2="478" gradientUnits="userSpaceOnUse">
<stop stop-color="#2A2929"/>
<stop offset="1" stop-color="#818181"/>
</linearGradient>
<linearGradient id="paint8_linear_335_782" x1="582" y1="136.5" x2="329.5" y2="478" gradientUnits="userSpaceOnUse">
<stop stop-color="#2A2929"/>
<stop offset="1" stop-color="#818181"/>
</linearGradient>
<linearGradient id="paint9_linear_335_782" x1="582" y1="136.5" x2="329.5" y2="478" gradientUnits="userSpaceOnUse">
<stop stop-color="#2A2929"/>
<stop offset="1" stop-color="#818181"/>
</linearGradient>
<linearGradient id="paint10_linear_335_782" x1="582" y1="136.5" x2="329.5" y2="478" gradientUnits="userSpaceOnUse">
<stop stop-color="#2A2929"/>
<stop offset="1" stop-color="#818181"/>
</linearGradient>
<linearGradient id="paint11_linear_335_782" x1="582" y1="136.5" x2="329.5" y2="478" gradientUnits="userSpaceOnUse">
<stop stop-color="#2A2929"/>
<stop offset="1" stop-color="#818181"/>
</linearGradient>
</defs>
</svg>
