<svg width="102" height="54" viewBox="0 0 102 54" fill="none" xmlns="http://www.w3.org/2000/svg">
<path d="M46.6588 50.7794L40.9512 49.9266L38.5165 47.0156C38.5165 47.0156 32.3786 48.3575 28.4123 48.1606C24.446 47.9638 20.4952 46.791 17.1405 45.4622C13.7859 44.1335 11.9087 43.2324 8.9898 41.1113C6.07088 38.9903 0.00113195 31.3302 0.00113195 31.3302L11.232 36.066L20.2717 39.2465L26.1806 41.3458L38.9241 41.4074L26.1887 39.6765L17.7887 36.5425L9.7622 30.4824L6.0051 23.9272L4.01281 18.8963L9.80488 21.6544L5.55222 15.4107L7.41796 15.5462L6.07044 10.4105L9.92337 15.7283L12.6799 12.3711L16.1098 24.9132L21.8197 25.2924L27.0504 27.8191L23.3631 20.3025L26.3006 16.5373L27.1524 6.7046L30.8421 14.7249L29.7504 3.8613L37.9562 14.168L37.9262 20.3729L45.1498 25.0536L53.0544 18.705L55.1072 12.5762L62.4057 -0.000180505L62.3448 12.6112L65.3963 4.03363L68.2055 16.7399L71.9485 19.3889L71.9195 25.3881L79.9048 21.9933L87.9725 10.8065L87.9335 18.8737L91.7762 11.996L91.7356 20.3849L97.293 22.0774L97.0329 25.656L94.255 27.0113L83.7726 31.4564C83.7726 31.4564 87.903 32.2115 90.4922 31.7677C93.0814 31.3239 101.368 24.2529 101.368 24.2529L97.9997 31.5252C97.9997 31.5252 93.6705 35.7643 90.4625 37.904C87.2545 40.0436 85.0695 41.4428 81.1722 42.5982C77.2749 43.7537 72.9078 42.7258 70.5882 43.7084C68.2687 44.691 67.5143 46.2703 65.1874 47.2356C62.8606 48.2008 57.5188 46.5439 56.2961 48.2954C55.0734 50.0469 53.8876 53.5772 53.8876 53.5772L50.3553 53.5601L49.8705 50.7949L46.6588 50.7794Z" fill="#8287BB"/>
</svg>
