<svg width="96" height="90" viewBox="0 0 96 90" fill="none" xmlns="http://www.w3.org/2000/svg">
<path d="M26.2087 66.2124L21.8606 61.0692L21.9386 56.6746C21.9386 56.6746 15.5485 53.0954 12.2266 49.8632C8.90473 46.6311 6.33687 42.5677 4.40919 38.8298C2.4815 35.092 1.52231 32.8643 0.577132 28.7783C-0.368041 24.6923 0.132202 13.3883 0.132202 13.3883L6.36791 26.1503L11.866 35.877L15.4445 42.2525L26.5508 52.144L16.7182 40.8166L11.7448 31.6239L9.31831 20.1916L11.0042 11.6276L13.078 5.74298L16.0543 12.5975L17.0701 3.92L18.6001 5.47753L21.3178 0.000120628L20.6547 7.56906L25.6146 6.79669L19.0995 20.2805L23.8091 25.0162L26.4697 31.2374L28.9462 21.8967L34.374 20.9116L42.5806 13.0742L39.724 22.8518L47.0118 12.6234L46.3728 27.8629L41.6383 33.2006L44.4086 42.8213L56.144 43.439L62.5911 39.7288L78.5215 34.4978L68.8987 45.3465L78.0781 40.2917L70.8952 53.4382L72.1611 58.6165L67.5835 63.7772L77.1481 67.009L92.6974 63.5725L86.5419 70.5121L95.1238 67.5367L88.7228 74.7531L92.3023 80.5057L89.3593 83.3967L85.8997 82.423L73.3527 78.1708C73.3527 78.1708 76.3946 82.0119 78.9974 83.6274C81.6002 85.2429 94.2183 85.5315 94.2183 85.5315L85.7519 89.2139C85.7519 89.2139 78.7464 89.5341 74.3152 88.906C69.8841 88.2779 66.91 87.7998 62.6224 85.7893C58.3348 83.7788 55.2926 79.5192 52.517 78.5774C49.7414 77.6356 47.8827 78.4177 45.1139 77.4552C42.345 76.4928 38.9272 70.9373 36.528 71.5066C34.1289 72.0759 30.4124 74.2105 30.4124 74.2105L27.3339 71.4687L29.0078 68.7054L26.2087 66.2124Z" fill="#CAB8FF"/>
</svg>
