<svg width="351" height="329" viewBox="0 0 351 329" fill="none" xmlns="http://www.w3.org/2000/svg">
<path d="M81.5807 85.3389L76.8803 90.1623L72.4987 90.508C72.4987 90.508 69.5516 97.2131 66.6545 100.831C63.7574 104.449 59.9603 107.396 56.4256 109.675C52.8908 111.954 50.7658 113.123 46.7899 114.458C42.814 115.792 31.5144 116.383 31.5144 116.383L43.6163 108.947L52.7681 102.537L58.7692 98.3612L67.5447 86.3537L57.2172 97.2318L48.5465 103.068L37.4011 106.584L28.7145 105.731L22.6575 104.234L29.1934 100.611L20.4584 100.436L21.8613 98.763L16.1475 96.5857L23.7452 96.5165L22.4986 91.6541L36.5473 96.8399L40.8073 91.696L46.7433 88.4485L37.2074 86.8833L35.704 81.5757L27.1124 74.1623L37.1198 76.0636L26.2368 69.7951L41.4671 68.963L47.236 73.1613L56.5451 69.4771L56.0294 57.7368L51.7153 51.6771L44.974 36.3246L56.6993 44.8576L50.7836 36.2079L64.561 42.0908L69.5932 40.332L75.171 44.3912L77.4663 34.5597L72.5478 19.4138L80.0481 24.8721L76.2598 16.6168L84.0593 22.2928L89.4404 18.1758L92.6014 20.8266L91.9655 24.3639L88.9419 37.2622C88.9419 37.2622 92.472 33.8644 93.8293 31.1181C95.1865 28.3718 94.2582 15.7845 94.2582 15.7845L98.739 23.8568C98.739 23.8568 99.7327 30.7989 99.5344 35.2699C99.3361 39.741 99.1467 42.7473 97.5586 47.2086C95.9705 51.67 92.0238 55.1083 91.3537 57.9618C90.6837 60.8152 91.6412 62.5899 90.95 65.4386C90.2588 68.2873 85.0584 72.2244 85.8561 74.5576C86.6539 76.8907 89.1366 80.3843 89.1366 80.3843L86.7042 83.7126L83.7924 82.3127L81.5807 85.3389Z" fill="#CAB8FF"/>
<path d="M340.878 264.431C323.837 207.794 289.375 99.9307 83.8769 79.8856" stroke="#CAB8FF" stroke-width="3"/>
</svg>
