<svg width="143" height="144" viewBox="0 0 143 144" fill="none" xmlns="http://www.w3.org/2000/svg">
<path d="M37.4667 83.325L55.9803 76.2252L59.4837 80.1323L70.3142 78.0926L70.5971 84.7953L82.5369 94.1307L84.162 79.9285L80.9471 76.7911L84.3688 75.8299L87.7906 74.8686L95.7876 75.7544L89.0744 77.0923L99.2233 86.8375L103.488 99.3558L102.476 115.701L98.6398 112.298L87.004 107L78.638 98.7224L79.0983 93.3071L75.6717 112.763L62.5589 121.114L63.9889 111.705L62.0294 108.311L67.4392 86.6185L61.1232 90.265L42.2923 101.137L28.1118 99.8054L37.4667 83.325Z" fill="url(#paint0_linear_1107_7197)" fill-opacity="0.7" style="mix-blend-mode:plus-lighter"/>
<path d="M48.962 41.1095L61.8817 48.6308L66.6792 56.9403L49.1616 51.4494L50.0397 59.9932L60.1238 66.6548L56.2561 70.7604L65.9221 70.4853L55.9803 76.2252L49.9402 74.4069L36.8147 76.5233L41.961 73.552L29.6961 69.866L23.6302 62.6009L42.9129 62.2353L41.7642 60.2457L34.339 52.517L42.669 53.1693L37.7364 44.6258L41.1366 33.768L39.4473 30.8421L41.0563 27.4164L48.962 41.1095Z" fill="url(#paint1_linear_1107_7197)" fill-opacity="0.7" style="mix-blend-mode:plus-lighter"/>
<path d="M49.1616 51.4494L66.6792 56.9403L67.1336 64.4803L65.9221 70.4853L56.2561 70.7604L60.1238 66.6548L50.0397 59.9932L49.1616 51.4494Z" fill="url(#paint2_linear_1107_7197)" fill-opacity="0.7" style="mix-blend-mode:plus-lighter"/>
<path fill-rule="evenodd" clip-rule="evenodd" d="M55.9803 76.2252L65.9221 70.4853L67.1336 64.4803L66.6792 56.9403L65.0397 46.8076L67.9925 40.5774L73.323 44.6779L76.9327 53.3611L80.7091 54.7699L86.5648 56.5387L80.09 65.5825L76.932 67.4057L84.3688 75.8299L80.9471 76.7911L84.162 79.9285L82.5369 94.1307L70.5971 84.7953L70.3142 78.0926L59.4837 80.1323L55.9803 76.2252ZM75.5984 72.3889L73.774 69.229L69.431 68.4595L70.3742 73.0644L75.5984 72.3889Z" fill="url(#paint3_linear_1107_7197)" fill-opacity="0.7" style="mix-blend-mode:plus-lighter"/>
<path d="M83.014 63.8943L93.1427 62.2597L104.326 70.8249L95.7876 75.7544L87.7906 74.8686L84.3688 75.8299L76.932 67.4057L80.09 65.5825L83.014 63.8943Z" fill="url(#paint4_linear_1107_7197)" fill-opacity="0.7" style="mix-blend-mode:plus-lighter"/>
<path d="M73.774 69.229L75.5984 72.3889L70.3742 73.0644L69.431 68.4595L73.774 69.229Z" fill="url(#paint5_linear_1107_7197)" fill-opacity="0.7" style="mix-blend-mode:plus-lighter"/>
<path d="M93.1427 62.2597L83.014 63.8943L80.09 65.5825L86.5648 56.5387L80.7091 54.7699L76.9327 53.3611L73.323 44.6779L67.9925 40.5774L65.0397 46.8076L66.6792 56.9403L61.8817 48.6308L63.9984 28.5271L75.4555 20.82L80.89 25.6408L79.426 38.5016L82.7808 49.9847L84.2235 46.8111L97.2063 39.3155L112.239 43.7441L100.66 50.4294L96.8077 57.8031L92.6049 58.357L93.1427 62.2597Z" fill="url(#paint6_linear_1107_7197)" fill-opacity="0.7" style="mix-blend-mode:plus-lighter"/>
<path d="M113.883 76.0332L105.997 73.7198L95.7876 75.7544L104.326 70.8249L93.1427 62.2597L108.828 59.4455L125.415 66.566L130.774 73.1468L113.883 76.0332Z" fill="url(#paint7_linear_1107_7197)" fill-opacity="0.7" style="mix-blend-mode:plus-lighter"/>
<path d="M47.4288 60.1985L66.9665 63.3019L68.0444 68.4293L78.4196 72.0724L75.3205 78.0094L80.9797 92.0422L89.4685 80.5731L88.2558 76.2553L91.6917 77.1323L95.1276 78.0094L101.595 82.7676L95.1276 80.5731L99.0352 94.0661L96.4751 107.019L87.4473 120.647L85.8304 115.79L78.4196 105.4L75.3205 94.0661L78.4196 89.6134L65.7538 104.726L50.2584 105.4L56.1871 97.9791V94.0661L71.6825 78.0094H64.4064H42.7128L31.125 69.7786L47.4288 60.1985Z" fill="url(#paint8_linear_1107_7197)" fill-opacity="0.7" style="mix-blend-mode:plus-lighter"/>
<path d="M78.4196 29.4343L85.8304 42.3877V51.9678L73.4341 38.4747L69.9308 46.3007L75.3205 57.0951L69.9308 58.7143L78.4196 63.3019H66.9665L62.6547 58.7143L50.2584 53.9917H56.1871L47.4288 44.6815L45.8119 35.3713L62.6547 44.6815V42.3877L60.0946 31.998L66.9665 36.7206V26.8707L75.3205 19.1796V15.8064L78.4196 13.6475V29.4343Z" fill="url(#paint9_linear_1107_7197)" fill-opacity="0.7" style="mix-blend-mode:plus-lighter"/>
<path d="M73.4341 38.4747L85.8304 51.9678L82.4619 58.7143L78.4196 63.3019L69.9308 58.7143L75.3205 57.0951L69.9308 46.3007L73.4341 38.4747Z" fill="url(#paint10_linear_1107_7197)" fill-opacity="0.7" style="mix-blend-mode:plus-lighter"/>
<path fill-rule="evenodd" clip-rule="evenodd" d="M66.9665 63.3019H78.4196L82.4619 58.7143L85.8304 51.9678L89.4685 42.3877L95.1276 38.4747L97.6877 44.6815L96.4751 53.9917L99.0352 57.0951L103.212 61.5478L93.1065 66.1355H89.4685L91.6917 77.1323L88.2558 76.2553L89.4685 80.5731L80.9797 92.0422L75.3205 78.0094L78.4196 72.0724L68.0444 68.4293L66.9665 63.3019ZM85.8304 69.7786V66.1355L82.4619 63.3019L80.9797 67.7546L85.8304 69.7786Z" fill="url(#paint11_linear_1107_7197)" fill-opacity="0.7" style="mix-blend-mode:plus-lighter"/>
<path d="M96.4751 66.1355L106.042 69.7786L111.431 82.7676H101.595L95.1276 78.0094L91.6917 77.1323L89.4685 66.1355H93.1065H96.4751Z" fill="url(#paint12_linear_1107_7197)" fill-opacity="0.7" style="mix-blend-mode:plus-lighter"/>
<path d="M85.8304 66.1355V69.7786L80.9797 67.7546L82.4619 63.3019L85.8304 66.1355Z" fill="url(#paint13_linear_1107_7197)" fill-opacity="0.7" style="mix-blend-mode:plus-lighter"/>
<path d="M106.042 69.7786L96.4751 66.1355H93.1065L103.212 61.5478L99.0352 57.0951L96.4751 53.9917L97.6877 44.6815L95.1276 38.4747L89.4685 42.3877L85.8304 51.9678V42.3877L97.6877 26.0611L111.431 25.1166L113.722 31.998L106.042 42.3877L103.212 53.9917L106.042 51.9678H120.998L131.778 63.3019H118.438L111.431 67.7546L107.524 66.1355L106.042 69.7786Z" fill="url(#paint14_linear_1107_7197)" fill-opacity="0.7" style="mix-blend-mode:plus-lighter"/>
<path d="M117.091 92.0422L111.431 86.1052L101.595 82.7676H111.431L106.042 69.7786L120.998 75.1758L131.778 89.6134L133.125 97.9791L117.091 92.0422Z" fill="url(#paint15_linear_1107_7197)" fill-opacity="0.7" style="mix-blend-mode:plus-lighter"/>
<defs>
<linearGradient id="paint0_linear_1107_7197" x1="44.2728" y1="25.5594" x2="97.8559" y2="118.368" gradientUnits="userSpaceOnUse">
<stop stop-color="white"/>
<stop offset="0.639423" stop-color="white"/>
</linearGradient>
<linearGradient id="paint1_linear_1107_7197" x1="44.2728" y1="25.5594" x2="97.8559" y2="118.368" gradientUnits="userSpaceOnUse">
<stop stop-color="white"/>
<stop offset="0.639423" stop-color="white"/>
</linearGradient>
<linearGradient id="paint2_linear_1107_7197" x1="44.2728" y1="25.5594" x2="97.8559" y2="118.368" gradientUnits="userSpaceOnUse">
<stop stop-color="white"/>
<stop offset="0.639423" stop-color="white"/>
</linearGradient>
<linearGradient id="paint3_linear_1107_7197" x1="44.2728" y1="25.5594" x2="97.8559" y2="118.368" gradientUnits="userSpaceOnUse">
<stop stop-color="white"/>
<stop offset="0.639423" stop-color="white"/>
</linearGradient>
<linearGradient id="paint4_linear_1107_7197" x1="44.2728" y1="25.5594" x2="97.8559" y2="118.368" gradientUnits="userSpaceOnUse">
<stop stop-color="white"/>
<stop offset="0.639423" stop-color="white"/>
</linearGradient>
<linearGradient id="paint5_linear_1107_7197" x1="44.2728" y1="25.5594" x2="97.8559" y2="118.368" gradientUnits="userSpaceOnUse">
<stop stop-color="white"/>
<stop offset="0.639423" stop-color="white"/>
</linearGradient>
<linearGradient id="paint6_linear_1107_7197" x1="44.2728" y1="25.5594" x2="97.8559" y2="118.368" gradientUnits="userSpaceOnUse">
<stop stop-color="white"/>
<stop offset="0.639423" stop-color="white"/>
</linearGradient>
<linearGradient id="paint7_linear_1107_7197" x1="44.2728" y1="25.5594" x2="97.8559" y2="118.368" gradientUnits="userSpaceOnUse">
<stop stop-color="white"/>
<stop offset="0.639423" stop-color="white"/>
</linearGradient>
<linearGradient id="paint8_linear_1107_7197" x1="82.125" y1="13.6475" x2="82.125" y2="120.647" gradientUnits="userSpaceOnUse">
<stop stop-color="white"/>
<stop offset="0.639423" stop-color="white"/>
</linearGradient>
<linearGradient id="paint9_linear_1107_7197" x1="82.125" y1="13.6475" x2="82.125" y2="120.647" gradientUnits="userSpaceOnUse">
<stop stop-color="white"/>
<stop offset="0.639423" stop-color="white"/>
</linearGradient>
<linearGradient id="paint10_linear_1107_7197" x1="82.125" y1="13.6475" x2="82.125" y2="120.647" gradientUnits="userSpaceOnUse">
<stop stop-color="white"/>
<stop offset="0.639423" stop-color="white"/>
</linearGradient>
<linearGradient id="paint11_linear_1107_7197" x1="82.125" y1="13.6475" x2="82.125" y2="120.647" gradientUnits="userSpaceOnUse">
<stop stop-color="white"/>
<stop offset="0.639423" stop-color="white"/>
</linearGradient>
<linearGradient id="paint12_linear_1107_7197" x1="82.125" y1="13.6475" x2="82.125" y2="120.647" gradientUnits="userSpaceOnUse">
<stop stop-color="white"/>
<stop offset="0.639423" stop-color="white"/>
</linearGradient>
<linearGradient id="paint13_linear_1107_7197" x1="82.125" y1="13.6475" x2="82.125" y2="120.647" gradientUnits="userSpaceOnUse">
<stop stop-color="white"/>
<stop offset="0.639423" stop-color="white"/>
</linearGradient>
<linearGradient id="paint14_linear_1107_7197" x1="82.125" y1="13.6475" x2="82.125" y2="120.647" gradientUnits="userSpaceOnUse">
<stop stop-color="white"/>
<stop offset="0.639423" stop-color="white"/>
</linearGradient>
<linearGradient id="paint15_linear_1107_7197" x1="82.125" y1="13.6475" x2="82.125" y2="120.647" gradientUnits="userSpaceOnUse">
<stop stop-color="white"/>
<stop offset="0.639423" stop-color="white"/>
</linearGradient>
</defs>
</svg>
