<svg width="255" height="416" viewBox="0 0 255 416" fill="none" xmlns="http://www.w3.org/2000/svg">
<path d="M81.2148 127.726L65.6342 136.202L56.5817 157.004L50.2948 159.389L45.386 155.724L41.751 129.667L46.4267 120.59L61.8744 114.731L50.8364 116.746L36.1607 109.285L18.042 104.512L16.7614 89.0604L13.8508 73.8125L29.3785 92.7324L34.8731 85.4129L43.9776 85.8245L52.4634 91.4376L57.1846 83.3072L71.7263 95.7964L84.3274 106.215L87.6179 110.099L92.8616 116.401L104.253 121.554L81.2148 127.726Z" fill="white" fill-opacity="0.8"/>
<path d="M118.383 144.816L81.2148 127.726L104.253 121.554L106.797 127.498L117.295 133.978L118.383 144.816Z" fill="white" fill-opacity="0.8"/>
<path d="M112.208 122.09L123.125 125.527L125.029 142.295L118.383 144.816L117.295 133.978L106.797 127.498L104.253 121.554L112.208 122.09Z" fill="white" fill-opacity="0.8"/>
<path d="M143.857 101.402L148.573 108.86L143.403 130.589L137.138 129.61L123.125 125.527L112.208 122.09L104.253 121.554L110.81 119.068L117.366 116.581L120.865 110.122L127.691 107.533L140.282 98.4153L143.857 101.402Z" fill="white" fill-opacity="0.8"/>
<path d="M84.3274 106.215L71.7263 95.7964L56.8559 76.1715L56.3417 63.5309L52.4185 55.3029L60.9173 57.8537L57.9721 45.4835L72.2983 61.396L85.3907 57.1769L84.886 73.8693L101.389 64.6107L111.697 70.4733L100.611 50.7394L120.788 57.253L109.176 47.1167L128.392 44.0427L135.282 36.0751L145.261 33.6118L154.73 20.8181L155.097 44.2409L137.928 59.3783L147.951 65.11L144.567 73.3018L160.015 67.4429L176.826 60.3326L170.331 73.5868L181.448 82.0026L183.338 86.4179L173.232 87.6847L158.115 86.5099L143.857 101.402L140.282 98.4153L127.691 107.533L120.865 110.122L117.366 116.581L110.81 119.068L104.253 121.554L92.8616 116.401L87.6179 110.099L84.3274 106.215Z" fill="white" fill-opacity="0.8"/>
<path d="M88.3603 130.855L74.665 141.98L69.5489 164.201L63.8376 167.663L58.3894 164.881L50.1784 139.657L53.1195 129.835L67.153 121.33L56.737 125.253L41.0741 120.406L22.5305 118.826L18.5157 103.717L12.9461 89.0928L31.491 105.162L35.5458 96.9412L44.5083 95.7632L53.7973 99.8547L56.9521 90.964L73.3838 100.824L87.5506 108.967L91.458 112.248L97.7049 117.587L109.749 120.716L88.3603 130.855Z" fill="white" fill-opacity="0.8"/>
<path d="M127.706 141.337L88.3603 130.855L109.749 120.716L113.296 126.171L124.704 130.772L127.706 141.337Z" fill="white" fill-opacity="0.8"/>
<path d="M117.611 119.862L128.885 121.37L133.744 137.678L127.706 141.337L124.704 130.772L113.296 126.171L109.749 120.716L117.611 119.862Z" fill="white" fill-opacity="0.8"/>
<path d="M144.809 93.8177L150.747 100.397L149.588 122.86L143.296 122.98L128.885 121.37L117.611 119.862L109.749 120.716L115.705 117.106L121.661 113.496L123.922 106.477L130.123 102.719L140.785 91.4768L144.809 93.8177Z" fill="white" fill-opacity="0.8"/>
<path d="M87.5506 108.967L73.3838 100.824L55.3545 83.9403L52.5909 71.4862L47.2885 64.0049L56.0424 65.0553L50.9538 53.2931L67.7875 66.5874L79.815 60.1193L82.3088 76.7717L96.7643 64.7085L107.877 68.73L93.5229 51.0792L114.388 54.027L101.237 45.9918L119.448 39.5931L124.749 30.486L134.051 26.3028L141.007 11.9572L145.555 35.1367L131.502 53.1494L142.313 57.0907L140.475 65.8093L154.508 57.3037L169.649 47.3187L165.679 61.603L178.039 68.0171L180.674 72.0693L171.034 75.0873L156.065 76.5556L144.809 93.8177L140.785 91.4768L130.123 102.719L123.922 106.477L121.661 113.496L115.705 117.106L109.749 120.716L97.7049 117.587L91.458 112.248L87.5506 108.967Z" fill="white" fill-opacity="0.8"/>
<path d="M115.5 134.499C115.845 136.791 118.5 137.999 120.959 140.999C144.481 188.46 310.923 291.759 166.001 413L180.002 412.999C289.003 281 208.5 261.5 124.957 129.736L115.5 134.499Z" fill="white" fill-opacity="0.7"/>
</svg>
