<svg width="151" height="268" viewBox="0 0 151 268" fill="none" xmlns="http://www.w3.org/2000/svg">
<path d="M140.824 267.201C155.991 210.035 158.321 108.201 77.8227 78.2012" stroke="#CAB8FF" stroke-width="3"/>
<path d="M76.7272 80.7837L70.4998 83.3486L66.3401 81.929C66.3401 81.929 60.9765 86.9166 56.8826 89.0896C52.7887 91.2626 48.1343 92.4633 43.9858 93.1542C39.8373 93.8451 37.4229 94.0762 33.2437 93.7252C29.0646 93.3742 18.4564 89.4376 18.4564 89.4376L32.5146 87.408L43.4574 85.1514L50.6224 83.6964L63.4388 76.1513L49.6452 82.0442L39.3714 83.9649L27.7452 82.7751L20.1084 78.5485L15.1411 74.7729L22.5777 74.0378L14.6278 70.4143L16.5789 69.4346L12.1964 65.1706L19.1989 68.1189L19.982 63.1607L30.8241 73.4907L36.7742 70.457L43.5112 69.8285L35.377 64.6115L36.1007 59.1427L31.1518 48.9309L39.5856 54.6435L32.0792 44.5744L46.3915 49.8479L50.0235 55.9891L60.0305 56.297L64.2109 45.314L62.6524 38.0407L62.5493 21.2737L69.9314 33.7556L67.9293 23.4695L78.2458 34.332L83.563 34.7121L87.0747 40.6498L93.0793 32.5337L94.5677 16.6788L99.2899 24.6632L99.0844 15.5825L103.995 23.8853L110.567 22.2387L112.418 25.9254L110.432 28.9208L102.543 39.5638C102.543 39.5638 107.131 37.8438 109.466 35.8605C111.801 33.8771 115.938 21.9531 115.938 21.9531L116.852 31.1404C116.852 31.1404 115.012 37.9076 113.058 41.9337C111.103 45.9599 109.738 48.6448 106.511 52.1111C103.285 55.5774 98.2984 57.1695 96.5521 59.5236C94.8058 61.8777 94.9814 63.8865 93.2175 66.2278C91.4537 68.5691 85.1187 70.1222 84.9262 72.5804C84.7337 75.0387 85.6281 79.2302 85.6281 79.2302L82.0755 81.3216L79.9573 78.8821L76.7272 80.7837Z" fill="#CAB8FF"/>
</svg>
