<svg width="441" height="422" viewBox="0 0 441 422" fill="none" xmlns="http://www.w3.org/2000/svg">
<path d="M326.905 167.249L341.235 182.948L343.345 210.055L349.532 215.217L356.527 212.987L370.845 184.896L369.102 172.785L353.899 160.101L365.612 166.705L385.156 163.999L407.547 165.686L415.046 148.686L424.312 132.554L399.318 147.905L395.96 137.464L385.486 134.366L373.677 137.402L371.513 126.344L350.152 134.798L331.801 141.666L326.553 144.777L318.147 149.862L303.226 151.239L326.905 167.249Z" fill="white" fill-opacity="0.8"/>
<path d="M278.116 172.055L326.905 167.249L303.226 151.239L298.019 156.976L283.591 160.206L278.116 172.055Z" fill="white" fill-opacity="0.8"/>
<path d="M294.007 148.733L280.295 148.351L271.575 166.598L278.116 172.055L283.591 160.206L298.019 156.976L303.226 151.239L294.007 148.733Z" fill="white" fill-opacity="0.8"/>
<path d="M266.258 112.909L257.996 119.511L255.346 146.146L262.825 147.49L280.295 148.351L294.007 148.733L303.226 151.239L296.774 145.856L290.321 140.473L288.886 131.787L282.168 126.183L271.476 110.926L266.258 112.909Z" fill="white" fill-opacity="0.8"/>
<path d="M331.801 141.666L350.152 134.798L374.678 118.391L380.209 104.274L387.874 96.4905L377.249 96.0527L385.428 83.1943L362.971 95.6096L349.794 85.7053L343.831 104.81L328.763 87.8624L314.793 90.4676L335.074 72.4554L309.67 71.9342L326.791 64.999L306.23 53.9947L301.544 42.2727L291.205 35.5759L285.489 17.378L275.904 43.7649L289.424 67.6315L275.828 70.1998L276.454 80.8032L261.25 68.1197L244.993 53.4849L247.161 71.0402L231.274 76.2204L227.405 80.4817L238.355 85.8727L255.938 90.4601L266.258 112.909L271.476 110.926L282.168 126.183L288.886 131.787L290.321 140.473L296.774 145.856L303.226 151.239L318.147 149.862L326.553 144.777L331.801 141.666Z" fill="white" fill-opacity="0.8"/>
<path d="M317.588 167.994L328.745 185.957L325.841 213.128L330.955 219.285L338.215 218.267L357.39 192.911L357.904 180.635L345.338 165.507L355.6 174.028L375.239 174.67L396.861 180.14L407.323 164.597L419.357 150.214L392.061 161.155L390.686 150.256L380.996 145.413L368.873 146.411L368.78 135.106L346.308 139.841L327.074 143.519L321.364 145.705L312.198 149.307L297.331 148.137L317.588 167.994Z" fill="white" fill-opacity="0.8"/>
<path d="M268.919 164.464L317.588 167.994L297.331 148.137L291.179 152.927L276.456 153.672L268.919 164.464Z" fill="white" fill-opacity="0.8"/>
<path d="M288.761 144.092L275.401 141.386L263.513 157.955L268.919 164.464L276.456 153.672L291.179 152.927L297.331 148.137L288.761 144.092Z" fill="white" fill-opacity="0.8"/>
<path d="M268.15 103.944L258.848 109.072L251.368 134.969L258.447 137.568L275.401 141.386L288.761 144.092L297.331 148.137L291.998 141.716L286.665 135.296L286.852 126.46L281.3 119.776L273.625 102.869L268.15 103.944Z" fill="white" fill-opacity="0.8"/>
<path d="M327.074 143.519L346.308 139.841L373.339 127.776L381.345 114.751L390.279 108.353L379.953 106.116L390.321 94.7856L366.05 103.254L354.959 91.2189L345.615 109.104L333.964 89.7817L319.803 89.9866L342.971 75.6131L318.184 70.784L336.225 66.8309L318.104 52.4544L315.664 40.0637L306.765 31.6837L304.503 12.7121L290.277 37.1861L299.143 63.0901L285.355 63.322L284.024 73.917L271.458 58.7891L258.218 41.5523L257.122 59.2857L240.612 61.7122L236.041 65.2706L245.778 72.4626L262.159 79.9858L268.15 103.944L273.625 102.869L281.3 119.776L286.852 126.46L286.665 135.296L291.998 141.716L297.331 148.137L312.198 149.307L321.364 145.705L327.074 143.519Z" fill="white" fill-opacity="0.8"/>
<path d="M288.572 147.491C213.796 176.669 45.8164 220.643 83 416.246L72.5035 416.246C53.834 240.781 125.463 205.516 285.668 140.496L288.572 147.491Z" fill="white" fill-opacity="0.7"/>
</svg>
