<svg width="181" height="451" viewBox="0 0 181 451" fill="none" xmlns="http://www.w3.org/2000/svg">
<path d="M9.0498 450.5C-6.11687 393.333 -8.6502 240.2 102.55 85" stroke="#CAB8FF" stroke-width="3"/>
<path d="M95.1252 81.6546L90.3933 76.862L90.1322 72.4745C90.1322 72.4745 83.4851 69.3988 79.9238 66.4325C76.3625 63.4662 73.4889 59.6129 71.2786 56.035C69.0684 52.457 67.9402 50.3098 66.6827 46.3089C65.4252 42.308 65.052 30.9991 65.052 30.9991L72.2535 43.2421L78.4854 52.5157L82.5451 58.5963L94.3812 67.6016L83.7042 57.0663L78.0365 48.2847L74.7355 37.0736L75.7558 28.4051L77.3696 22.378L80.8657 28.9826L81.2092 20.2526L82.8548 21.6874L85.1419 16.0167L85.0645 23.6143L89.9501 22.4616L84.4945 36.4078L89.5553 40.7662L92.6878 46.7636L94.4365 37.2597L99.7721 35.8589L107.35 27.4118L105.256 37.3807L111.733 26.6206L112.271 41.864L107.963 47.551L111.467 56.9294L123.215 56.64L129.356 52.4436L144.836 45.9994L136.079 57.5581L144.841 51.8103L138.693 65.4717L140.355 70.5369L136.189 76.0353L145.974 78.5198L161.212 73.8941L155.61 81.2879L163.937 77.6594L158.112 85.348L162.124 90.8074L159.413 93.9168L155.889 93.2129L143.051 89.9411C143.051 89.9411 146.38 93.5361 149.1 94.946C151.82 96.3559 164.422 95.6705 164.422 95.6705L156.265 99.9949C156.265 99.9949 149.305 100.854 144.839 100.57C140.372 100.286 137.37 100.038 132.94 98.3645C128.51 96.6907 125.149 92.6784 122.309 91.9535C119.469 91.2286 117.676 92.1517 114.841 91.4057C112.006 90.6597 108.17 85.3844 105.822 86.137C103.474 86.8896 99.9332 89.3045 99.9332 89.3045L96.6525 86.8084L98.1082 83.9242L95.1252 81.6546Z" fill="#CAB8FF"/>
</svg>
