<svg width="188" height="230" viewBox="0 0 188 230" fill="none" xmlns="http://www.w3.org/2000/svg">
<path d="M46.1667 85.6126L53.1281 82.5222L55.2026 77.9635C55.2026 77.9635 63.4825 77.5139 68.4591 75.8699C73.4358 74.2258 78.0498 71.3456 81.8506 68.4766C85.6513 65.6075 87.7229 63.8016 90.691 60.0776C93.6591 56.3537 98.6893 44.476 98.6893 44.476L86.0657 54.4469L75.6833 61.6693L68.9037 66.4161L52.7136 70.9721L68.3069 64.2953L77.8919 57.3569L85.9737 46.8272L88.4501 37.1678L89.2169 30.0676L82.8176 35.6115L86.0338 26.1742L83.7079 27.0022L83.6177 19.9952L80.5846 28.1141L75.8982 24.8118L75.9417 41.9726L68.811 44.4612L63.0445 49.5135L65.0942 38.6555L60.0343 34.8977L55.4957 22.6882L53.6199 34.1877L51.1916 19.9838L44.3739 35.9789L46.5922 43.862L39.0473 52.3548L26.7605 47.0558L21.9956 39.9802L8.29182 26.5453L12.8005 42.5677L5.90458 32.7278L6.79531 49.8794L2.96431 54.5644L5.10916 62.1864L-6.24225 60.6733L-20.4364 49.2765L-17.5523 59.5256L-24.8574 52.1262L-21.8582 62.7841L-28.3334 66.8899L-26.7452 71.3511L-22.735 72.0991L-7.8378 74.071C-7.8378 74.071 -12.827 76.4828 -16.2768 76.828C-19.7267 77.1732 -32.7536 71.0894 -32.7536 71.0894L-25.9129 79.1574C-25.9129 79.1574 -18.9159 83.0292 -14.083 84.624C-9.25011 86.2188 -5.97872 87.231 -0.614734 87.3315C4.74925 87.4321 9.94379 84.59 13.2399 85.025C16.536 85.46 18.0507 87.2042 21.3499 87.6145C24.6492 88.0249 30.8627 84.0402 33.0336 85.8388C35.2045 87.6373 37.9534 91.7118 37.9534 91.7118L42.4411 90.449L42.0863 86.7608L46.1667 85.6126Z" fill="#CAB8FF"/>
<path d="M186 229.539C159.97 55.3168 44.1977 124.61 38 82.5391" stroke="#CAB8FF" stroke-width="4"/>
</svg>
