<svg width="181" height="183" viewBox="0 0 181 183" fill="none" xmlns="http://www.w3.org/2000/svg">
<path d="M109.579 142.038L100.116 118.777L93.4715 118.92L85.9818 107.141L79.5403 112.682L60.574 109.725L72.2972 95.9284L77.9806 96.1847L75.9073 92.1892L73.8339 88.1937L66.0923 81.5673L70.6668 88.9317L52.872 87.985L37.6072 94.8791L23.3723 109.964L29.839 110.564L44.8092 116.736L59.7041 117.304L64.312 112.191L49.2917 132.201L52.9224 151.552L60.3823 142.086L65.2164 140.96L80.5884 117.18L82.6846 126.176L88.9344 152.996L102.441 164.953L109.579 142.038Z" fill="url(#paint0_linear_1107_7199)" fill-opacity="0.8" style="mix-blend-mode:plus-lighter"/>
<path d="M138.656 94.867L120.519 89.4336L108.684 92.1915L128.924 103.633L120.265 110.217L105.377 106.661L104.93 113.791L96.8167 104.617L100.116 118.777L107.026 122.787L116.432 136.753L114.724 129.423L128.748 137.571L140.716 136.89L124.362 118.747L127.196 118.087L140.768 118.261L132.954 111.124L145.123 108.289L152.217 95.7464L156.385 94.7754L158.159 90.3224L138.656 94.867Z" fill="url(#paint1_linear_1107_7199)" fill-opacity="0.8" style="mix-blend-mode:plus-lighter"/>
<path d="M128.924 103.633L108.684 92.1915L101.32 98.2983L96.8167 104.617L104.93 113.791L105.377 106.661L120.265 110.217L128.924 103.633Z" fill="url(#paint2_linear_1107_7199)" fill-opacity="0.8" style="mix-blend-mode:plus-lighter"/>
<path fill-rule="evenodd" clip-rule="evenodd" d="M100.116 118.777L96.8167 104.617L101.32 98.2983L108.684 92.1915L119.471 84.9358L122.674 76.8127L114.269 75.4343L103.117 79.6138L98.5452 77.342L91.841 73.4596L89.085 87.2743L90.1331 91.7722L75.9073 92.1892L77.9806 96.1847L72.2972 95.9284L60.574 109.725L79.5403 112.682L85.9818 107.141L93.4715 118.92L100.116 118.777ZM86.6805 97.3188L91.1812 96.27L95.6522 99.619L90.5784 102.733L86.6805 97.3188Z" fill="url(#paint3_linear_1107_7199)" fill-opacity="0.8" style="mix-blend-mode:plus-lighter"/>
<path d="M88.1145 83.1096L80.8577 72.3307L63.2585 69.4064L66.0923 81.5673L73.8339 88.1937L75.9073 92.1892L90.1331 91.7722L89.085 87.2743L88.1145 83.1096Z" fill="url(#paint4_linear_1107_7199)" fill-opacity="0.8" style="mix-blend-mode:plus-lighter"/>
<path d="M91.1812 96.27L86.6805 97.3188L90.5784 102.733L95.6522 99.619L91.1812 96.27Z" fill="url(#paint5_linear_1107_7199)" fill-opacity="0.8" style="mix-blend-mode:plus-lighter"/>
<path d="M80.8577 72.3307L88.1145 83.1096L89.085 87.2743L91.841 73.4596L98.5452 77.342L103.117 79.6138L114.269 75.4343L122.674 76.8127L119.471 84.9358L108.684 92.1915L120.519 89.4336L137.272 70.074L134.48 52.8102L125.318 51.9592L114.696 64.4456L101.176 71.2844L102.861 67.2034L98.552 48.7123L81.4444 38.6481L85.2875 55.1402L81.8053 65.0846L84.9313 69.4495L80.8577 72.3307Z" fill="url(#paint6_linear_1107_7199)" fill-opacity="0.8" style="mix-blend-mode:plus-lighter"/>
<path d="M50.1706 65.0797L59.1354 70.3672L66.0923 81.5673L63.2585 69.4064L80.8577 72.3307L69.8812 55.3933L48.9397 46.2225L38.2167 46.9649L50.1706 65.0797Z" fill="url(#paint7_linear_1107_7199)" fill-opacity="0.8" style="mix-blend-mode:plus-lighter"/>
<path d="M132.171 106.117L108.967 96.7643L104.471 101.611L90.8538 98.8026L90.3618 107.242L75.1167 118.744L73.3538 100.812L77.4713 96.9292L73.1756 95.6429L68.88 94.3565L58.7774 95.2971L67.2161 97.1303L54.2211 109.187L48.5908 124.868L49.5372 145.486L54.4434 141.282L69.2238 134.862L79.9408 124.615L79.4696 117.781L83.3983 142.372L99.7659 153.183L98.1524 141.296L100.692 137.063L94.3074 109.609L102.199 114.343L125.726 128.456L143.636 127.089L132.171 106.117Z" fill="url(#paint8_linear_1107_7199)" fill-opacity="0.8" style="mix-blend-mode:plus-lighter"/>
<path d="M118.526 52.6701L102.082 61.8638L95.8645 72.2291L118.066 65.6947L116.786 76.4412L103.935 84.614L108.73 89.8722L96.546 89.3134L108.967 96.7643L116.621 94.6058L133.131 97.5607L126.701 93.7038L142.242 89.3283L150.038 80.307L125.729 79.4229L127.217 76.9411L136.737 67.3655L126.219 68.0045L132.612 57.3473L128.543 43.5911L130.732 39.9413L128.772 35.5894L118.526 52.6701Z" fill="url(#paint9_linear_1107_7199)" fill-opacity="0.8" style="mix-blend-mode:plus-lighter"/>
<path d="M118.066 65.6947L95.8645 72.2291L95.1393 81.72L96.546 89.3134L108.73 89.8722L103.935 84.614L116.786 76.4412L118.066 65.6947Z" fill="url(#paint10_linear_1107_7199)" fill-opacity="0.8" style="mix-blend-mode:plus-lighter"/>
<path fill-rule="evenodd" clip-rule="evenodd" d="M108.967 96.7643L96.546 89.3134L95.1393 81.72L95.8645 72.2291L98.1364 59.497L94.5383 51.5817L87.7335 56.6317L83.0063 67.4939L78.2156 69.1861L70.7956 71.2863L78.7783 82.8243L82.7239 85.1911L73.1756 95.6429L77.4713 96.9292L73.3538 100.812L75.1167 118.744L90.3618 107.242L90.8538 98.8026L104.471 101.611L108.967 96.7643ZM84.3051 91.4996L86.6695 87.5579L92.1619 86.6836L90.8795 92.4655L84.3051 91.4996Z" fill="url(#paint11_linear_1107_7199)" fill-opacity="0.8" style="mix-blend-mode:plus-lighter"/>
<path d="M75.1249 80.6329L62.3849 78.3508L48.1095 88.898L58.7774 95.2971L68.88 94.3565L73.1756 95.6429L82.7239 85.1911L78.7783 82.8243L75.1249 80.6329Z" fill="url(#paint12_linear_1107_7199)" fill-opacity="0.8" style="mix-blend-mode:plus-lighter"/>
<path d="M86.6695 87.5579L84.3051 91.4996L90.8795 92.4655L92.1619 86.6836L86.6695 87.5579Z" fill="url(#paint13_linear_1107_7199)" fill-opacity="0.8" style="mix-blend-mode:plus-lighter"/>
<path d="M62.3849 78.3508L75.1249 80.6329L78.7783 82.8243L70.7956 71.2863L78.2156 69.1861L83.0063 67.4939L87.7335 56.6317L94.5383 51.5817L98.1364 59.497L95.8645 72.2291L102.082 61.8638L99.8183 36.4852L85.5256 26.5221L78.5751 32.4773L80.1618 48.715L75.6996 63.1109L73.9443 59.0803L57.7233 49.3502L38.6766 54.6006L53.1439 63.2788L57.8531 72.6546L63.1418 73.4449L62.3849 78.3508Z" fill="url(#paint14_linear_1107_7199)" fill-opacity="0.8" style="mix-blend-mode:plus-lighter"/>
<path d="M35.9526 95.251L45.9434 92.5092L58.7774 95.2971L48.1095 88.898L62.3849 78.3508L42.6611 74.4603L21.6002 83.0684L14.7094 91.2432L35.9526 95.251Z" fill="url(#paint15_linear_1107_7199)" fill-opacity="0.8" style="mix-blend-mode:plus-lighter"/>
<defs>
<linearGradient id="paint0_linear_1107_7199" x1="157.091" y1="85.7412" x2="24.9056" y2="116.544" gradientUnits="userSpaceOnUse">
<stop stop-color="white"/>
<stop offset="0.639423" stop-color="white"/>
</linearGradient>
<linearGradient id="paint1_linear_1107_7199" x1="157.091" y1="85.7412" x2="24.9056" y2="116.544" gradientUnits="userSpaceOnUse">
<stop stop-color="white"/>
<stop offset="0.639423" stop-color="white"/>
</linearGradient>
<linearGradient id="paint2_linear_1107_7199" x1="157.091" y1="85.7412" x2="24.9056" y2="116.544" gradientUnits="userSpaceOnUse">
<stop stop-color="white"/>
<stop offset="0.639423" stop-color="white"/>
</linearGradient>
<linearGradient id="paint3_linear_1107_7199" x1="157.091" y1="85.7412" x2="24.9056" y2="116.544" gradientUnits="userSpaceOnUse">
<stop stop-color="white"/>
<stop offset="0.639423" stop-color="white"/>
</linearGradient>
<linearGradient id="paint4_linear_1107_7199" x1="157.091" y1="85.7412" x2="24.9056" y2="116.544" gradientUnits="userSpaceOnUse">
<stop stop-color="white"/>
<stop offset="0.639423" stop-color="white"/>
</linearGradient>
<linearGradient id="paint5_linear_1107_7199" x1="157.091" y1="85.7412" x2="24.9056" y2="116.544" gradientUnits="userSpaceOnUse">
<stop stop-color="white"/>
<stop offset="0.639423" stop-color="white"/>
</linearGradient>
<linearGradient id="paint6_linear_1107_7199" x1="157.091" y1="85.7412" x2="24.9056" y2="116.544" gradientUnits="userSpaceOnUse">
<stop stop-color="white"/>
<stop offset="0.639423" stop-color="white"/>
</linearGradient>
<linearGradient id="paint7_linear_1107_7199" x1="157.091" y1="85.7412" x2="24.9056" y2="116.544" gradientUnits="userSpaceOnUse">
<stop stop-color="white"/>
<stop offset="0.639423" stop-color="white"/>
</linearGradient>
<linearGradient id="paint8_linear_1107_7199" x1="124.753" y1="33.1788" x2="55.3095" y2="148.948" gradientUnits="userSpaceOnUse">
<stop stop-color="white"/>
<stop offset="0.639423" stop-color="white"/>
</linearGradient>
<linearGradient id="paint9_linear_1107_7199" x1="124.753" y1="33.1788" x2="55.3095" y2="148.948" gradientUnits="userSpaceOnUse">
<stop stop-color="white"/>
<stop offset="0.639423" stop-color="white"/>
</linearGradient>
<linearGradient id="paint10_linear_1107_7199" x1="124.753" y1="33.1788" x2="55.3095" y2="148.948" gradientUnits="userSpaceOnUse">
<stop stop-color="white"/>
<stop offset="0.639423" stop-color="white"/>
</linearGradient>
<linearGradient id="paint11_linear_1107_7199" x1="124.753" y1="33.1788" x2="55.3095" y2="148.948" gradientUnits="userSpaceOnUse">
<stop stop-color="white"/>
<stop offset="0.639423" stop-color="white"/>
</linearGradient>
<linearGradient id="paint12_linear_1107_7199" x1="124.753" y1="33.1788" x2="55.3095" y2="148.948" gradientUnits="userSpaceOnUse">
<stop stop-color="white"/>
<stop offset="0.639423" stop-color="white"/>
</linearGradient>
<linearGradient id="paint13_linear_1107_7199" x1="124.753" y1="33.1788" x2="55.3095" y2="148.948" gradientUnits="userSpaceOnUse">
<stop stop-color="white"/>
<stop offset="0.639423" stop-color="white"/>
</linearGradient>
<linearGradient id="paint14_linear_1107_7199" x1="124.753" y1="33.1788" x2="55.3095" y2="148.948" gradientUnits="userSpaceOnUse">
<stop stop-color="white"/>
<stop offset="0.639423" stop-color="white"/>
</linearGradient>
<linearGradient id="paint15_linear_1107_7199" x1="124.753" y1="33.1788" x2="55.3095" y2="148.948" gradientUnits="userSpaceOnUse">
<stop stop-color="white"/>
<stop offset="0.639423" stop-color="white"/>
</linearGradient>
</defs>
</svg>
