<svg width="190" height="284" viewBox="0 0 190 284" fill="none" xmlns="http://www.w3.org/2000/svg">
<path d="M127.966 138.738L112.483 118.965L106.133 120.926L95.6989 111.655L91.0248 118.75L71.9751 121.111L79.4627 104.627L84.9984 103.314L81.9083 100.041L78.8182 96.7676L69.5556 92.5197L75.9751 98.3463L58.6035 102.319L45.8163 113.137L36.2667 131.548L42.65 130.351L58.739 132.178L73.2182 128.638L76.2463 122.457L67.2928 145.82L76.094 163.432L80.6702 152.283L85.0097 149.873L93.2668 122.788L97.7509 130.863L111.12 154.939L127.389 162.732L127.966 138.738Z" fill="url(#paint0_linear_1078_7189)" fill-opacity="0.8" style="mix-blend-mode:plus-lighter"/>
<path d="M142.984 85.3985L124.051 85.1503L113.427 91.0497L136.03 96.4986L129.511 105.206L114.218 105.871L115.744 112.85L105.425 106.254L112.483 118.965L120.228 120.925L133.105 131.775L129.451 125.195L145.174 129.182L156.495 125.244L135.79 112.284L138.334 110.872L151.434 107.315L141.962 102.596L152.885 96.5309L156.266 82.5231L160.007 80.4459L160.491 75.677L142.984 85.3985Z" fill="url(#paint1_linear_1078_7189)" fill-opacity="0.8" style="mix-blend-mode:plus-lighter"/>
<path d="M136.03 96.4986L113.427 91.0497L108.022 98.9427L105.425 106.254L115.744 112.85L114.218 105.871L129.511 105.206L136.03 96.4986Z" fill="url(#paint2_linear_1078_7189)" fill-opacity="0.8" style="mix-blend-mode:plus-lighter"/>
<path fill-rule="evenodd" clip-rule="evenodd" d="M112.483 118.965L105.425 106.254L108.022 98.9427L113.427 91.0497L121.809 81.1127L122.661 72.4223L114.2 73.4031L104.623 80.4822L99.6035 79.552L92.0914 77.6581L93.2316 91.6988L95.4737 95.7365L81.9083 100.041L84.9984 103.314L79.4627 104.627L71.9751 121.111L91.0248 118.75L95.6989 111.655L106.133 120.926L112.483 118.965ZM93.6756 102.018L97.7157 99.7741L102.934 101.768L98.9095 106.155L93.6756 102.018Z" fill="url(#paint3_linear_1078_7189)" fill-opacity="0.8" style="mix-blend-mode:plus-lighter"/>
<path d="M91.1557 87.9603L81.2198 79.5862L63.4938 81.6031L69.5556 92.5197L78.8182 96.7676L81.9083 100.041L95.4737 95.7365L93.2316 91.6988L91.1557 87.9603Z" fill="url(#paint4_linear_1078_7189)" fill-opacity="0.8" style="mix-blend-mode:plus-lighter"/>
<path d="M97.7157 99.7741L93.6756 102.018L98.9095 106.155L102.934 101.768L97.7157 99.7741Z" fill="url(#paint5_linear_1078_7189)" fill-opacity="0.8" style="mix-blend-mode:plus-lighter"/>
<path d="M81.2198 79.5862L91.1557 87.9603L93.2316 91.6988L92.0914 77.6581L99.6035 79.552L104.623 80.4822L114.2 73.4031L122.661 72.4223L121.809 81.1127L113.427 91.0497L124.051 85.1503L134.85 61.9367L127.428 46.1018L118.384 47.7972L111.596 62.719L100.471 73.0051L100.972 68.6184L91.7544 52.0192L72.542 47.0354L80.7628 61.84L80.1428 72.3582L84.3466 75.6978L81.2198 79.5862Z" fill="url(#paint6_linear_1078_7189)" fill-opacity="0.8" style="mix-blend-mode:plus-lighter"/>
<path d="M49.7209 81.0336L59.7925 83.6584L69.5556 92.5197L63.4938 81.6031L81.2198 79.5862L66.0172 66.3106L43.3632 63.2379L33.2554 66.894L49.7209 81.0336Z" fill="url(#paint7_linear_1078_7189)" fill-opacity="0.8" style="mix-blend-mode:plus-lighter"/>
<path d="M132.171 106.117L108.967 96.7643L104.471 101.611L90.8538 98.8026L90.3618 107.242L75.1167 118.744L73.3538 100.812L77.4713 96.9292L73.1756 95.6429L68.88 94.3565L58.7774 95.2971L67.2161 97.1303L54.2211 109.187L48.5908 124.868L49.5372 145.486L54.4434 141.282L69.2238 134.862L79.9408 124.615L79.4696 117.781L83.3983 142.372L99.7659 153.183L98.1524 141.296L100.692 137.063L94.3074 109.609L102.199 114.343L125.726 128.456L143.636 127.089L132.171 106.117Z" fill="url(#paint8_linear_1078_7189)" fill-opacity="0.8" style="mix-blend-mode:plus-lighter"/>
<path d="M118.526 52.6701L102.082 61.8638L95.8645 72.2291L118.066 65.6947L116.786 76.4412L103.935 84.614L108.73 89.8722L96.546 89.3134L108.967 96.7643L116.621 94.6058L133.131 97.5607L126.701 93.7038L142.242 89.3283L150.038 80.307L125.729 79.4229L127.217 76.9411L136.737 67.3655L126.219 68.0045L132.612 57.3473L128.543 43.5911L130.732 39.9413L128.772 35.5894L118.526 52.6701Z" fill="url(#paint9_linear_1078_7189)" fill-opacity="0.8" style="mix-blend-mode:plus-lighter"/>
<path d="M118.066 65.6947L95.8645 72.2291L95.1393 81.72L96.546 89.3134L108.73 89.8722L103.935 84.614L116.786 76.4412L118.066 65.6947Z" fill="url(#paint10_linear_1078_7189)" fill-opacity="0.8" style="mix-blend-mode:plus-lighter"/>
<path fill-rule="evenodd" clip-rule="evenodd" d="M108.967 96.7643L96.546 89.3134L95.1393 81.72L95.8645 72.2291L98.1364 59.497L94.5383 51.5817L87.7335 56.6317L83.0063 67.4939L78.2156 69.1861L70.7956 71.2863L78.7783 82.8243L82.7239 85.1911L73.1756 95.6429L77.4713 96.9292L73.3538 100.812L75.1167 118.744L90.3618 107.242L90.8538 98.8026L104.471 101.611L108.967 96.7643ZM84.3051 91.4996L86.6695 87.5579L92.1619 86.6836L90.8795 92.4655L84.3051 91.4996Z" fill="url(#paint11_linear_1078_7189)" fill-opacity="0.8" style="mix-blend-mode:plus-lighter"/>
<path d="M75.1249 80.6329L62.3849 78.3508L48.1095 88.898L58.7774 95.2971L68.88 94.3565L73.1756 95.6429L82.7239 85.1911L78.7783 82.8243L75.1249 80.6329Z" fill="url(#paint12_linear_1078_7189)" fill-opacity="0.8" style="mix-blend-mode:plus-lighter"/>
<path d="M86.6695 87.5579L84.3051 91.4996L90.8795 92.4655L92.1619 86.6836L86.6695 87.5579Z" fill="url(#paint13_linear_1078_7189)" fill-opacity="0.8" style="mix-blend-mode:plus-lighter"/>
<path d="M62.3849 78.3508L75.1249 80.6329L78.7783 82.8243L70.7956 71.2863L78.2156 69.1861L83.0063 67.4939L87.7335 56.6317L94.5383 51.5817L98.1364 59.497L95.8645 72.2291L102.082 61.8638L99.8183 36.4852L85.5256 26.5221L78.5751 32.4773L80.1618 48.715L75.6996 63.1109L73.9443 59.0803L57.7233 49.3502L38.6766 54.6006L53.1439 63.2788L57.8531 72.6546L63.1418 73.4449L62.3849 78.3508Z" fill="url(#paint14_linear_1078_7189)" fill-opacity="0.8" style="mix-blend-mode:plus-lighter"/>
<path d="M35.9526 95.251L45.9434 92.5092L58.7774 95.2971L48.1095 88.898L62.3849 78.3508L42.6611 74.4603L21.6002 83.0684L14.7094 91.2432L35.9526 95.251Z" fill="url(#paint15_linear_1078_7189)" fill-opacity="0.8" style="mix-blend-mode:plus-lighter"/>
<path d="M75.8759 116.867C34.2759 146.067 26.8759 240.034 28.3759 283.367H38.375C25.175 178.967 61.5417 133.201 81.375 123.367L75.8759 116.867Z" fill="white" fill-opacity="0.7"/>
<defs>
<linearGradient id="paint0_linear_1078_7189" x1="158.207" y1="71.5646" x2="39.5467" y2="137.455" gradientUnits="userSpaceOnUse">
<stop stop-color="white"/>
<stop offset="0.639423" stop-color="white"/>
</linearGradient>
<linearGradient id="paint1_linear_1078_7189" x1="158.207" y1="71.5646" x2="39.5467" y2="137.455" gradientUnits="userSpaceOnUse">
<stop stop-color="white"/>
<stop offset="0.639423" stop-color="white"/>
</linearGradient>
<linearGradient id="paint2_linear_1078_7189" x1="158.207" y1="71.5646" x2="39.5467" y2="137.455" gradientUnits="userSpaceOnUse">
<stop stop-color="white"/>
<stop offset="0.639423" stop-color="white"/>
</linearGradient>
<linearGradient id="paint3_linear_1078_7189" x1="158.207" y1="71.5646" x2="39.5467" y2="137.455" gradientUnits="userSpaceOnUse">
<stop stop-color="white"/>
<stop offset="0.639423" stop-color="white"/>
</linearGradient>
<linearGradient id="paint4_linear_1078_7189" x1="158.207" y1="71.5646" x2="39.5467" y2="137.455" gradientUnits="userSpaceOnUse">
<stop stop-color="white"/>
<stop offset="0.639423" stop-color="white"/>
</linearGradient>
<linearGradient id="paint5_linear_1078_7189" x1="158.207" y1="71.5646" x2="39.5467" y2="137.455" gradientUnits="userSpaceOnUse">
<stop stop-color="white"/>
<stop offset="0.639423" stop-color="white"/>
</linearGradient>
<linearGradient id="paint6_linear_1078_7189" x1="158.207" y1="71.5646" x2="39.5467" y2="137.455" gradientUnits="userSpaceOnUse">
<stop stop-color="white"/>
<stop offset="0.639423" stop-color="white"/>
</linearGradient>
<linearGradient id="paint7_linear_1078_7189" x1="158.207" y1="71.5646" x2="39.5467" y2="137.455" gradientUnits="userSpaceOnUse">
<stop stop-color="white"/>
<stop offset="0.639423" stop-color="white"/>
</linearGradient>
<linearGradient id="paint8_linear_1078_7189" x1="124.753" y1="33.1788" x2="55.3095" y2="148.948" gradientUnits="userSpaceOnUse">
<stop stop-color="white"/>
<stop offset="0.639423" stop-color="white"/>
</linearGradient>
<linearGradient id="paint9_linear_1078_7189" x1="124.753" y1="33.1788" x2="55.3095" y2="148.948" gradientUnits="userSpaceOnUse">
<stop stop-color="white"/>
<stop offset="0.639423" stop-color="white"/>
</linearGradient>
<linearGradient id="paint10_linear_1078_7189" x1="124.753" y1="33.1788" x2="55.3095" y2="148.948" gradientUnits="userSpaceOnUse">
<stop stop-color="white"/>
<stop offset="0.639423" stop-color="white"/>
</linearGradient>
<linearGradient id="paint11_linear_1078_7189" x1="124.753" y1="33.1788" x2="55.3095" y2="148.948" gradientUnits="userSpaceOnUse">
<stop stop-color="white"/>
<stop offset="0.639423" stop-color="white"/>
</linearGradient>
<linearGradient id="paint12_linear_1078_7189" x1="124.753" y1="33.1788" x2="55.3095" y2="148.948" gradientUnits="userSpaceOnUse">
<stop stop-color="white"/>
<stop offset="0.639423" stop-color="white"/>
</linearGradient>
<linearGradient id="paint13_linear_1078_7189" x1="124.753" y1="33.1788" x2="55.3095" y2="148.948" gradientUnits="userSpaceOnUse">
<stop stop-color="white"/>
<stop offset="0.639423" stop-color="white"/>
</linearGradient>
<linearGradient id="paint14_linear_1078_7189" x1="124.753" y1="33.1788" x2="55.3095" y2="148.948" gradientUnits="userSpaceOnUse">
<stop stop-color="white"/>
<stop offset="0.639423" stop-color="white"/>
</linearGradient>
<linearGradient id="paint15_linear_1078_7189" x1="124.753" y1="33.1788" x2="55.3095" y2="148.948" gradientUnits="userSpaceOnUse">
<stop stop-color="white"/>
<stop offset="0.639423" stop-color="white"/>
</linearGradient>
</defs>
</svg>
