<svg width="192" height="517" viewBox="0 0 192 517" fill="none" xmlns="http://www.w3.org/2000/svg">
<path d="M102.72 85.6126L95.7587 82.5222L93.6842 77.9635C93.6842 77.9635 85.4042 77.5139 80.4276 75.8699C75.451 74.2258 70.8369 71.3456 67.0361 68.4766C63.2354 65.6075 61.1638 63.8016 58.1957 60.0776C55.2277 56.3537 50.1974 44.476 50.1974 44.476L62.821 54.4469L73.2034 61.6693L79.983 66.4161L96.1732 70.9721L80.5798 64.2953L70.9948 57.3569L62.913 46.8272L60.4366 37.1678L59.6698 30.0676L66.0691 35.6115L62.8529 26.1742L65.1788 27.0022L65.269 19.9952L68.3021 28.1141L72.9885 24.8118L72.945 41.9726L80.0757 44.4612L85.8423 49.5135L83.7926 38.6555L88.8524 34.8977L93.391 22.6882L95.2668 34.1877L97.6952 19.9838L104.513 35.9789L102.294 43.862L109.839 52.3548L122.126 47.0558L126.891 39.9802L140.595 26.5453L136.086 42.5677L142.982 32.7278L142.091 49.8794L145.922 54.5644L143.778 62.1864L155.129 60.6733L169.323 49.2765L166.439 59.5256L173.744 52.1262L170.745 62.7841L177.22 66.8899L175.632 71.3511L171.622 72.0991L156.725 74.071C156.725 74.071 161.714 76.4828 165.164 76.828C168.613 77.1732 181.64 71.0894 181.64 71.0894L174.8 79.1574C174.8 79.1574 167.803 83.0292 162.97 84.624C158.137 86.2188 154.865 87.231 149.501 87.3315C144.137 87.4321 138.943 84.59 135.647 85.025C132.351 85.46 130.836 87.2042 127.537 87.6145C124.238 88.0249 118.024 84.0402 115.853 85.8388C113.682 87.6373 110.933 91.7118 110.933 91.7118L106.446 90.449L106.8 86.7608L102.72 85.6126Z" fill="#CAB8FF"/>
<path d="M31.8262 516C-64.875 278.015 103.988 130.137 110 88" stroke="#CAB8FF" stroke-width="4"/>
</svg>
