<svg width="225" height="566" viewBox="0 0 225 566" fill="none" xmlns="http://www.w3.org/2000/svg">
<path d="M41.7946 204.68L24.7388 223.998L22.4622 258.049L15.0824 264.356L6.6636 261.335L-10.7918 225.54L-8.81382 210.351L9.31929 194.855L-4.68122 202.806L-28.1703 198.8L-55.0368 200.235L-64.201 178.608L-75.4777 158.021L-45.325 178.11L-41.392 165.072L-28.847 161.494L-14.6408 165.678L-12.1463 151.828L13.578 163.123L35.6756 172.332L42.005 176.408L52.1453 183.066L70.0716 185.258L41.7946 204.68Z" fill="white" fill-opacity="0.9"/>
<path d="M100.416 212.228L41.7946 204.68L70.0716 185.258L76.3782 192.638L93.7295 197.146L100.416 212.228Z" fill="white" fill-opacity="0.9"/>
<path d="M81.1165 182.387L97.5746 182.328L108.217 205.561L100.416 212.228L93.7295 197.146L76.3782 192.638L70.0716 185.258L81.1165 182.387Z" fill="white" fill-opacity="0.9"/>
<path d="M114.093 138.153L124.074 146.715L127.508 180.319L118.541 181.78L97.5746 182.328L81.1165 182.387L70.0716 185.258L77.7677 178.681L85.4637 172.105L87.1044 161.217L95.1167 154.37L107.81 135.496L114.093 138.153Z" fill="white" fill-opacity="0.9"/>
<path d="M35.6756 172.332L13.578 163.123L-16.0223 141.72L-22.7959 123.784L-32.0716 113.752L-19.3197 113.527L-29.2602 97.0929L-2.1825 113.408L13.5448 101.348L20.8843 125.576L38.8143 104.709L55.6113 108.417L31.0913 85.1243L61.5861 85.2488L40.9656 75.9944L65.5473 62.7764L71.0614 48.1673L83.411 40.0565L90.1024 17.3288L101.858 50.8332L85.8524 80.4556L102.2 84.1058L101.549 97.4317L119.682 81.9356L139.062 64.0162L136.625 86.0443L155.748 93.052L160.432 98.5341L147.337 104.983L126.271 110.216L114.093 138.153L107.81 135.496L95.1167 154.37L87.1044 161.217L85.4637 172.105L77.7677 178.681L70.0716 185.258L52.1453 183.066L42.005 176.408L35.6756 172.332Z" fill="white" fill-opacity="0.9"/>
<path d="M39.4492 225.65L16.3968 242.709L6.00369 279.237L-3.49365 284.385L-11.9535 279.14L-22.6292 236.127L-16.9457 220.057L6.39056 207.408L-10.6944 212.807L-35.3262 202.987L-64.8981 198.302L-69.8442 172.636L-77.3309 147.61L-49.1857 176.482L-41.8746 163.206L-27.3904 162.23L-12.9024 170.085L-6.96823 155.592L18.4016 173.865L40.3096 189.023L46.2503 194.931L55.7382 204.533L74.7376 211.086L39.4492 225.65Z" fill="white" fill-opacity="0.9"/>
<path d="M101.491 247.491L39.4492 225.65L74.7376 211.086L79.8855 220.584L97.7208 229.523L101.491 247.491Z" fill="white" fill-opacity="0.9"/>
<path d="M87.4251 210.529L105.35 214.29L111.531 242.049L101.491 247.491L97.7208 229.523L79.8855 220.584L74.7376 211.086L87.4251 210.529Z" fill="white" fill-opacity="0.9"/>
<path d="M133.596 170.055L142.467 181.693L138.393 219.063L128.295 218.568L105.35 214.29L87.4251 210.529L74.7376 211.086L84.642 205.718L94.5463 200.349L98.8628 188.882L109.174 183.293L127.375 165.703L133.596 170.055Z" fill="white" fill-opacity="0.9"/>
<path d="M40.3096 189.023L18.4016 173.865L-8.83674 143.691L-12.0389 122.596L-19.8015 109.523L-5.87158 112.243L-12.8693 92.0461L12.8063 116.097L32.7258 106.627L35.0813 134.7L59.445 116.159L76.863 124.099L55.5927 93.0502L88.751 100.275L68.4612 85.4095L98.2859 76.7387L107.683 62.1217L123.008 56.1655L135.574 32.9866L140.579 72.182L116.274 100.699L133.217 108.472L129.41 122.823L152.746 110.174L178.003 95.1773L170.23 118.584L189.412 130.655L193.236 137.71L177.485 141.684L153.343 142.482L133.596 170.055L127.375 165.703L109.174 183.293L98.8628 188.882L94.5463 200.349L84.642 205.718L74.7376 211.086L55.7382 204.533L46.2503 194.931L40.3096 189.023Z" fill="white" fill-opacity="0.9"/>
<path d="M103.236 246.53C140.989 310.735 241.353 434.88 101.935 556.111L107.45 565.223C221.809 448.04 188.814 382.483 109.369 243.098L103.236 246.53Z" fill="white" fill-opacity="0.2"/>
</svg>
