<svg width="188" height="252" viewBox="0 0 188 252" fill="none" xmlns="http://www.w3.org/2000/svg">
<path d="M49.445 109.972L73.8793 100.602L78.5031 105.759L92.7971 103.067L93.1706 111.913L108.929 124.234L111.073 105.49L106.83 101.349L111.346 100.08L115.862 98.8116L126.417 99.9807L117.557 101.746L130.951 114.608L136.58 131.13L135.244 152.702L130.181 148.211L114.824 141.219L103.783 130.294L104.39 123.147L99.868 148.824L82.5617 159.846L84.449 147.429L81.8628 142.949L89.0027 114.319L80.6669 119.132L55.8138 133.481L37.0984 131.723L49.445 109.972Z" fill="url(#paint0_linear_1058_7162)" fill-opacity="0.7" style="mix-blend-mode:plus-lighter"/>
<path d="M64.6165 54.2563L81.6679 64.1829L87.9996 75.1498L64.88 67.9029L66.0388 79.179L79.3478 87.971L74.2433 93.3895L87.0005 93.0265L73.8793 100.602L65.9075 98.2022L48.5845 100.995L55.3766 97.0739L39.1894 92.2091L31.1837 82.6206L56.6329 82.1381L55.1168 79.5122L45.3171 69.3119L56.3111 70.1728L49.801 58.8971L54.2885 44.567L52.059 40.7054L54.1826 36.1842L64.6165 54.2563Z" fill="url(#paint1_linear_1058_7162)" fill-opacity="0.7" style="mix-blend-mode:plus-lighter"/>
<path d="M64.88 67.9029L87.9996 75.1498L88.5994 85.101L87.0005 93.0265L74.2433 93.3895L79.3478 87.971L66.0388 79.179L64.88 67.9029Z" fill="url(#paint2_linear_1058_7162)" fill-opacity="0.7" style="mix-blend-mode:plus-lighter"/>
<path fill-rule="evenodd" clip-rule="evenodd" d="M73.8793 100.602L87.0005 93.0265L88.5994 85.101L87.9996 75.1498L85.8358 61.7766L89.733 53.554L96.7682 58.9659L101.532 70.426L106.516 72.2853L114.245 74.6197L105.699 86.5557L101.531 88.962L111.346 100.08L106.83 101.349L111.073 105.49L108.929 124.234L93.1706 111.913L92.7971 103.067L78.5031 105.759L73.8793 100.602ZM99.7713 95.5389L97.3634 91.3684L91.6315 90.3528L92.8764 96.4304L99.7713 95.5389Z" fill="url(#paint3_linear_1058_7162)" fill-opacity="0.7" style="mix-blend-mode:plus-lighter"/>
<path d="M109.558 84.3276L122.926 82.1703L137.686 93.4746L126.417 99.9807L115.862 98.8116L111.346 100.08L101.531 88.962L105.699 86.5557L109.558 84.3276Z" fill="url(#paint4_linear_1058_7162)" fill-opacity="0.7" style="mix-blend-mode:plus-lighter"/>
<path d="M97.3634 91.3684L99.7713 95.5389L92.8764 96.4304L91.6315 90.3528L97.3634 91.3684Z" fill="url(#paint5_linear_1058_7162)" fill-opacity="0.7" style="mix-blend-mode:plus-lighter"/>
<path d="M122.926 82.1703L109.558 84.3276L105.699 86.5557L114.245 74.6197L106.516 72.2853L101.532 70.426L96.7682 58.9659L89.733 53.554L85.8358 61.7766L87.9996 75.1498L81.6679 64.1829L84.4615 37.6501L99.5827 27.4782L106.755 33.8407L104.823 50.8144L109.251 65.9698L111.155 61.7813L128.289 51.8885L148.13 57.7335L132.847 66.5567L127.763 76.2884L122.216 77.0195L122.926 82.1703Z" fill="url(#paint6_linear_1058_7162)" fill-opacity="0.7" style="mix-blend-mode:plus-lighter"/>
<path d="M150.299 100.349L139.892 97.2954L126.417 99.9807L137.686 93.4746L122.926 82.1703L143.628 78.4561L165.52 87.8537L172.592 96.5392L150.299 100.349Z" fill="url(#paint7_linear_1058_7162)" fill-opacity="0.7" style="mix-blend-mode:plus-lighter"/>
<path d="M62.7742 80.4231L88.4413 84.5126L89.8575 91.2692L103.488 96.07L99.4162 103.893L106.851 122.385L118.003 107.272L116.41 101.582L120.924 102.738L125.437 103.893L133.934 110.164L125.437 107.272L130.571 125.052L127.208 142.122L115.348 160.08L113.223 153.679L103.488 139.988L99.4162 125.052L103.488 119.185L86.8482 139.099L66.4915 139.988L74.2802 130.209V125.052L94.6368 103.893H85.0781H56.5787L41.3555 93.0473L62.7742 80.4231Z" fill="url(#paint8_linear_1058_7162)" fill-opacity="0.7" style="mix-blend-mode:plus-lighter"/>
<path d="M103.488 39.8834L113.223 56.9527V69.5769L96.938 51.7963L92.3357 62.1091L99.4162 76.3335L92.3357 78.4672L103.488 84.5126H88.4413L82.7769 78.4672L66.4915 72.244H74.2802L62.7742 59.9754L60.6501 47.7068L82.7769 59.9754V56.9527L79.4136 43.2617L88.4413 49.4849V36.505L99.4162 26.3701V21.925L103.488 19.0801V39.8834Z" fill="url(#paint9_linear_1058_7162)" fill-opacity="0.7" style="mix-blend-mode:plus-lighter"/>
<path d="M96.938 51.7963L113.223 69.5769L108.798 78.4672L103.488 84.5126L92.3357 78.4672L99.4162 76.3335L92.3357 62.1091L96.938 51.7963Z" fill="url(#paint10_linear_1058_7162)" fill-opacity="0.7" style="mix-blend-mode:plus-lighter"/>
<path fill-rule="evenodd" clip-rule="evenodd" d="M88.4413 84.5126H103.488L108.798 78.4672L113.223 69.5769L118.003 56.9527L125.437 51.7963L128.801 59.9754L127.208 72.244L130.571 76.3335L136.058 82.2011L122.782 88.2465H118.003L120.924 102.738L116.41 101.582L118.003 107.272L106.851 122.385L99.4162 103.893L103.488 96.07L89.8575 91.2692L88.4413 84.5126ZM113.223 93.0473V88.2465L108.798 84.5126L106.851 90.3802L113.223 93.0473Z" fill="url(#paint11_linear_1058_7162)" fill-opacity="0.7" style="mix-blend-mode:plus-lighter"/>
<path d="M127.208 88.2465L139.776 93.0473L146.856 110.164H133.934L125.437 103.893L120.924 102.738L118.003 88.2465H122.782H127.208Z" fill="url(#paint12_linear_1058_7162)" fill-opacity="0.7" style="mix-blend-mode:plus-lighter"/>
<path d="M113.223 88.2465V93.0473L106.851 90.3802L108.798 84.5126L113.223 88.2465Z" fill="url(#paint13_linear_1058_7162)" fill-opacity="0.7" style="mix-blend-mode:plus-lighter"/>
<path d="M139.776 93.0473L127.208 88.2465H122.782L136.058 82.2011L130.571 76.3335L127.208 72.244L128.801 59.9754L125.437 51.7963L118.003 56.9527L113.223 69.5769V56.9527L128.801 35.4382L146.856 34.1936L149.865 43.2617L139.776 56.9527L136.058 72.244L139.776 69.5769H159.424L173.585 84.5126H156.061L146.856 90.3802L141.723 88.2465L139.776 93.0473Z" fill="url(#paint14_linear_1058_7162)" fill-opacity="0.7" style="mix-blend-mode:plus-lighter"/>
<path d="M154.291 122.385L146.856 114.562L133.934 110.164H146.856L139.776 93.0473L159.424 100.16L173.585 119.185L175.355 130.209L154.291 122.385Z" fill="url(#paint15_linear_1058_7162)" fill-opacity="0.7" style="mix-blend-mode:plus-lighter"/>
<path d="M87.0993 124.045C71.9967 149.729 31.8476 199.392 87.6197 247.889L85.4137 251.534C39.6659 204.656 52.865 178.431 84.646 122.672L87.0993 124.045Z" fill="white" fill-opacity="0.2"/>
<defs>
<linearGradient id="paint0_linear_1058_7162" x1="58.4277" y1="33.7333" x2="129.147" y2="156.222" gradientUnits="userSpaceOnUse">
<stop stop-color="white"/>
<stop offset="0.639423" stop-color="white"/>
</linearGradient>
<linearGradient id="paint1_linear_1058_7162" x1="58.4277" y1="33.7333" x2="129.147" y2="156.222" gradientUnits="userSpaceOnUse">
<stop stop-color="white"/>
<stop offset="0.639423" stop-color="white"/>
</linearGradient>
<linearGradient id="paint2_linear_1058_7162" x1="58.4277" y1="33.7333" x2="129.147" y2="156.222" gradientUnits="userSpaceOnUse">
<stop stop-color="white"/>
<stop offset="0.639423" stop-color="white"/>
</linearGradient>
<linearGradient id="paint3_linear_1058_7162" x1="58.4277" y1="33.7333" x2="129.147" y2="156.222" gradientUnits="userSpaceOnUse">
<stop stop-color="white"/>
<stop offset="0.639423" stop-color="white"/>
</linearGradient>
<linearGradient id="paint4_linear_1058_7162" x1="58.4277" y1="33.7333" x2="129.147" y2="156.222" gradientUnits="userSpaceOnUse">
<stop stop-color="white"/>
<stop offset="0.639423" stop-color="white"/>
</linearGradient>
<linearGradient id="paint5_linear_1058_7162" x1="58.4277" y1="33.7333" x2="129.147" y2="156.222" gradientUnits="userSpaceOnUse">
<stop stop-color="white"/>
<stop offset="0.639423" stop-color="white"/>
</linearGradient>
<linearGradient id="paint6_linear_1058_7162" x1="58.4277" y1="33.7333" x2="129.147" y2="156.222" gradientUnits="userSpaceOnUse">
<stop stop-color="white"/>
<stop offset="0.639423" stop-color="white"/>
</linearGradient>
<linearGradient id="paint7_linear_1058_7162" x1="58.4277" y1="33.7333" x2="129.147" y2="156.222" gradientUnits="userSpaceOnUse">
<stop stop-color="white"/>
<stop offset="0.639423" stop-color="white"/>
</linearGradient>
<linearGradient id="paint8_linear_1058_7162" x1="108.355" y1="19.0801" x2="108.355" y2="160.08" gradientUnits="userSpaceOnUse">
<stop stop-color="white"/>
<stop offset="0.639423" stop-color="white"/>
</linearGradient>
<linearGradient id="paint9_linear_1058_7162" x1="108.355" y1="19.0801" x2="108.355" y2="160.08" gradientUnits="userSpaceOnUse">
<stop stop-color="white"/>
<stop offset="0.639423" stop-color="white"/>
</linearGradient>
<linearGradient id="paint10_linear_1058_7162" x1="108.355" y1="19.0801" x2="108.355" y2="160.08" gradientUnits="userSpaceOnUse">
<stop stop-color="white"/>
<stop offset="0.639423" stop-color="white"/>
</linearGradient>
<linearGradient id="paint11_linear_1058_7162" x1="108.355" y1="19.0801" x2="108.355" y2="160.08" gradientUnits="userSpaceOnUse">
<stop stop-color="white"/>
<stop offset="0.639423" stop-color="white"/>
</linearGradient>
<linearGradient id="paint12_linear_1058_7162" x1="108.355" y1="19.0801" x2="108.355" y2="160.08" gradientUnits="userSpaceOnUse">
<stop stop-color="white"/>
<stop offset="0.639423" stop-color="white"/>
</linearGradient>
<linearGradient id="paint13_linear_1058_7162" x1="108.355" y1="19.0801" x2="108.355" y2="160.08" gradientUnits="userSpaceOnUse">
<stop stop-color="white"/>
<stop offset="0.639423" stop-color="white"/>
</linearGradient>
<linearGradient id="paint14_linear_1058_7162" x1="108.355" y1="19.0801" x2="108.355" y2="160.08" gradientUnits="userSpaceOnUse">
<stop stop-color="white"/>
<stop offset="0.639423" stop-color="white"/>
</linearGradient>
<linearGradient id="paint15_linear_1058_7162" x1="108.355" y1="19.0801" x2="108.355" y2="160.08" gradientUnits="userSpaceOnUse">
<stop stop-color="white"/>
<stop offset="0.639423" stop-color="white"/>
</linearGradient>
</defs>
</svg>
