<svg width="337" height="268" viewBox="0 0 337 268" fill="none" xmlns="http://www.w3.org/2000/svg">
<path d="M1.43627 176.748C18.477 120.112 176.434 219.249 256.84 90.8682" stroke="#CAB8FF" stroke-width="3"/>
<path d="M251.041 86.7764L246.693 81.6332L246.771 77.2386C246.771 77.2386 240.381 73.6593 237.059 70.4272C233.737 67.195 231.169 63.1316 229.241 59.3938C227.314 55.656 226.354 53.4282 225.409 49.3423C224.464 45.2563 224.964 33.9523 224.964 33.9523L231.2 46.7143L236.698 56.4409L240.277 62.8165L251.383 72.7079L241.55 61.3805L236.577 52.1879L234.15 40.7556L235.836 32.1916L237.91 26.3069L240.886 33.1615L241.902 24.484L243.432 26.0415L246.15 20.5641L245.487 28.133L250.447 27.3607L243.932 40.8445L248.641 45.5802L251.302 51.8014L253.778 42.4607L259.206 41.4756L267.413 33.6381L264.556 43.4158L271.844 33.1873L271.205 48.4269L266.47 53.7646L269.241 63.3853L280.976 64.003L287.423 60.2927L303.354 55.0617L293.731 65.9105L302.91 60.8556L295.727 74.0022L296.993 79.1804L292.416 84.3412L301.98 87.573L317.529 84.1364L311.374 91.0761L319.956 88.1006L313.555 95.317L317.134 101.07L314.191 103.961L310.732 102.987L298.185 98.7348C298.185 98.7348 301.227 102.576 303.829 104.191C306.432 105.807 319.05 106.095 319.05 106.095L310.584 109.778C310.584 109.778 303.578 110.098 299.147 109.47C294.716 108.842 291.742 108.364 287.454 106.353C283.167 104.343 280.125 100.083 277.349 99.1414C274.573 98.1995 272.715 98.9816 269.946 98.0192C267.177 97.0568 263.759 91.5013 261.36 92.0706C258.961 92.6398 255.244 94.7744 255.244 94.7744L252.166 92.0327L253.84 89.2693L251.041 86.7764Z" fill="#CAB8FF"/>
</svg>
