<svg width="311" height="410" viewBox="0 0 311 410" fill="none" xmlns="http://www.w3.org/2000/svg">
<path d="M87.2372 60.6333L92.1484 58.4445L93.612 55.2159C93.612 55.2159 99.4534 54.8976 102.964 53.7332C106.475 52.5688 109.731 50.529 112.412 48.497C115.094 46.4651 116.555 45.1861 118.649 42.5487C120.743 39.9113 124.292 31.4992 124.292 31.4992L115.386 38.5608L108.061 43.6759L103.278 47.0377L91.856 50.2644L102.857 45.5358L109.619 40.6218L115.321 33.1643L117.068 26.3233L117.609 21.2947L113.094 25.2211L115.363 18.5373L113.723 19.1237L113.659 14.1612L111.519 19.9112L108.213 17.5724L108.243 29.7262L103.213 31.4887L99.1444 35.0668L100.591 27.3769L97.0208 24.7156L93.8188 16.0684L92.4954 24.2127L90.7822 14.1531L85.9723 25.4812L87.5374 31.0643L82.2144 37.0792L73.5461 33.3262L70.1845 28.3151L60.5165 18.8001L63.6974 30.1477L58.8323 23.1787L59.4607 35.326L56.7579 38.6441L58.2711 44.0421L50.2627 42.9706L40.2487 34.899L42.2835 42.1577L37.1297 36.9173L39.2456 44.4655L34.6774 47.3733L35.7979 50.5329L38.627 51.0626L49.137 52.4592C49.137 52.4592 45.6171 54.1673 43.1833 54.4118C40.7494 54.6562 31.5589 50.3475 31.5589 50.3475L36.3851 56.0615C36.3851 56.0615 41.3214 58.8036 44.731 59.9331C48.1406 61.0626 50.4486 61.7794 54.2329 61.8507C58.0172 61.9219 61.6819 59.909 64.0073 60.2171C66.3327 60.5252 67.4013 61.7604 69.729 62.0511C72.0566 62.3417 76.4402 59.5196 77.9718 60.7934C79.5034 62.0672 81.4427 64.9529 81.4427 64.9529L84.6088 64.0585L84.3585 61.4465L87.2372 60.6333Z" fill="#CAB8FF"/>
<path d="M212.659 154.16L224.692 167.842L226.299 191.958L231.505 196.424L237.444 194.285L249.759 168.934L248.364 158.177L235.571 147.202L245.448 152.833L262.02 149.996L280.974 151.012L287.439 135.696L295.395 121.115L274.122 135.343L271.348 126.109L262.497 123.575L252.475 126.538L250.715 116.729L232.566 124.729L216.976 131.25L212.511 134.137L205.357 138.852L192.71 140.405L212.659 154.16Z" fill="white" fill-opacity="0.9"/>
<path d="M171.302 159.506L212.659 154.16L192.71 140.405L188.261 145.632L176.019 148.825L171.302 159.506Z" fill="white" fill-opacity="0.9"/>
<path d="M184.918 138.372L173.307 138.33L165.798 154.784L171.302 159.506L176.019 148.825L188.261 145.632L192.71 140.405L184.918 138.372Z" fill="white" fill-opacity="0.9"/>
<path d="M161.653 107.044L154.612 113.108L152.189 136.908L158.515 137.942L173.307 138.33L184.918 138.372L192.71 140.405L187.28 135.747L181.851 131.09L180.693 123.379L175.041 118.529L166.086 105.162L161.653 107.044Z" fill="white" fill-opacity="0.9"/>
<path d="M216.976 131.25L232.566 124.729L253.449 109.571L258.228 96.8675L264.772 89.7626L255.776 89.6035L262.789 77.9641L243.685 89.5192L232.59 80.9777L227.412 98.1365L214.762 83.3581L202.912 85.9842L220.211 69.4877L198.697 69.5758L213.244 63.0215L195.902 53.6602L192.012 43.3136L183.299 37.5693L178.578 21.4729L170.284 45.2017L181.577 66.1812L170.043 68.7663L170.503 78.2041L157.71 67.2293L144.037 54.5383L145.757 70.1392L132.266 75.1022L128.961 78.9848L138.2 83.5518L153.062 87.2582L161.653 107.044L166.086 105.162L175.041 118.529L180.693 123.379L181.851 131.09L187.28 135.747L192.71 140.405L205.357 138.852L212.511 134.137L216.976 131.25Z" fill="white" fill-opacity="0.9"/>
<path d="M214.316 169.012L230.579 181.093L237.911 206.963L244.612 210.609L250.58 206.895L258.112 176.432L254.102 165.051L237.639 156.092L249.692 159.916L267.07 152.961L287.933 149.643L291.422 131.466L296.704 113.742L276.848 134.189L271.69 124.788L261.471 124.096L251.25 129.659L247.063 119.395L229.165 132.336L213.709 143.071L209.518 147.255L202.824 154.056L189.42 158.697L214.316 169.012Z" fill="white" fill-opacity="0.9"/>
<path d="M170.545 184.48L214.316 169.012L189.42 158.697L185.788 165.424L173.205 171.755L170.545 184.48Z" fill="white" fill-opacity="0.9"/>
<path d="M180.469 158.302L167.823 160.967L163.462 180.626L170.545 184.48L173.205 171.755L185.788 165.424L189.42 158.697L180.469 158.302Z" fill="white" fill-opacity="0.9"/>
<path d="M147.895 129.638L141.636 137.88L144.511 164.347L151.635 163.996L167.823 160.967L180.469 158.302L189.42 158.697L182.432 154.895L175.445 151.093L172.399 142.971L165.125 139.013L152.284 126.556L147.895 129.638Z" fill="white" fill-opacity="0.9"/>
<path d="M213.709 143.071L229.165 132.336L248.381 110.966L250.64 96.0264L256.117 86.7671L246.289 88.6934L251.226 74.3898L233.112 91.423L219.059 84.7167L217.397 104.599L200.209 91.4674L187.92 97.0908L202.926 75.1009L179.533 80.2173L193.848 69.6895L172.806 63.5487L166.177 53.1964L155.365 48.9781L146.5 32.5622L142.968 60.3214L160.116 80.518L148.163 86.0228L150.848 96.1866L134.385 87.2282L116.566 76.6074L122.05 93.1844L108.517 101.734L105.819 106.731L116.931 109.545L133.964 110.11L147.895 129.638L152.284 126.556L165.125 139.013L172.399 142.971L175.445 151.093L182.432 154.895L189.42 158.697L202.824 154.056L209.518 147.255L213.709 143.071Z" fill="white" fill-opacity="0.9"/>
<path d="M140.419 366.184C210.451 197.789 88.1599 93.151 83.8056 63.3354" stroke="#CAB8FF" stroke-width="4"/>
<path d="M169.312 183.8C142.677 229.272 71.8698 317.195 170.229 403.054L166.339 409.508C85.6581 326.515 108.936 280.086 164.985 181.37L169.312 183.8Z" fill="white" fill-opacity="0.2"/>
<path d="M97.6382 272.391L80.3665 265.767L77.0982 269.412L66.9942 267.509L66.7302 273.762L55.5915 282.471L54.0753 269.222L57.0746 266.295L53.8824 265.398L50.6902 264.501L43.2296 265.328L49.4925 266.576L40.0244 275.667L36.046 287.346L36.99 302.594L40.5687 299.42L51.424 294.478L59.2288 286.755L58.7994 281.703L61.9961 299.853L74.2292 307.644L72.8952 298.867L74.7233 295.701L69.6764 275.463L75.5686 278.865L93.1363 289.008L106.366 287.765L97.6382 272.391Z" fill="url(#paint0_linear_369_2989)" fill-opacity="0.7" style="mix-blend-mode:plus-lighter"/>
<path d="M86.914 233.007L74.861 240.024L70.3854 247.776L86.7278 242.653L85.9087 250.624L76.501 256.839L80.1092 260.669L71.0916 260.412L80.3665 265.767L86.0015 264.071L98.2465 266.045L93.4454 263.273L104.887 259.834L110.546 253.057L92.5574 252.716L93.629 250.859L100.556 243.649L92.7849 244.258L97.3866 236.287L94.2145 226.158L95.7905 223.428L94.2894 220.233L86.914 233.007Z" fill="url(#paint1_linear_369_2989)" fill-opacity="0.7" style="mix-blend-mode:plus-lighter"/>
<path d="M86.7278 242.653L70.3854 247.776L69.9614 254.81L71.0916 260.412L80.1092 260.669L76.501 256.839L85.9087 250.624L86.7278 242.653Z" fill="url(#paint2_linear_369_2989)" fill-opacity="0.7" style="mix-blend-mode:plus-lighter"/>
<path fill-rule="evenodd" clip-rule="evenodd" d="M80.3665 265.767L71.0916 260.412L69.9614 254.81L70.3854 247.776L71.9149 238.323L69.1601 232.511L64.1872 236.336L60.8197 244.437L57.2966 245.751L51.8338 247.401L57.8742 255.838L60.8203 257.539L53.8824 265.398L57.0746 266.295L54.0753 269.222L55.5915 282.471L66.7302 273.762L66.9942 267.509L77.0982 269.412L80.3665 265.767ZM62.0645 262.188L63.7665 259.24L67.8182 258.522L66.9382 262.818L62.0645 262.188Z" fill="url(#paint3_linear_369_2989)" fill-opacity="0.7" style="mix-blend-mode:plus-lighter"/>
<path d="M55.1463 254.263L45.6971 252.738L35.2642 260.729L43.2296 265.328L50.6902 264.501L53.8824 265.398L60.8203 257.539L57.8742 255.838L55.1463 254.263Z" fill="url(#paint4_linear_369_2989)" fill-opacity="0.7" style="mix-blend-mode:plus-lighter"/>
<path d="M63.7665 259.24L62.0645 262.188L66.9382 262.818L67.8182 258.522L63.7665 259.24Z" fill="url(#paint5_linear_369_2989)" fill-opacity="0.7" style="mix-blend-mode:plus-lighter"/>
<path d="M45.6971 252.738L55.1463 254.263L57.8742 255.838L51.8338 247.401L57.2966 245.751L60.8197 244.437L64.1872 236.336L69.1601 232.511L71.9149 238.323L70.3854 247.776L74.861 240.024L72.8864 221.269L62.1978 214.079L57.1279 218.576L58.4936 230.574L55.3639 241.287L54.018 238.326L41.9061 231.333L27.8817 235.465L38.6842 241.702L42.278 248.581L46.1988 249.097L45.6971 252.738Z" fill="url(#paint6_linear_369_2989)" fill-opacity="0.7" style="mix-blend-mode:plus-lighter"/>
<path d="M26.3484 265.588L33.7049 263.43L43.2296 265.328L35.2642 260.729L45.6971 252.738L31.0637 250.113L15.5894 256.756L10.5899 262.895L26.3484 265.588Z" fill="url(#paint7_linear_369_2989)" fill-opacity="0.7" style="mix-blend-mode:plus-lighter"/>
<path d="M88.2674 250.79L70.0334 253.684L69.0274 258.466L59.3444 261.863L62.2367 267.4L56.9551 280.486L49.0328 269.79L50.1645 265.764L46.9578 266.582L43.7512 267.4L37.7151 271.837L43.7512 269.79L40.1044 282.373L42.4936 294.453L50.919 307.162L52.4281 302.632L59.3444 292.943L62.2367 282.373L59.3444 278.221L71.1651 292.314L85.6266 292.943L80.0935 286.022V282.373L65.632 267.4H72.4227H92.6688L103.483 259.724L88.2674 250.79Z" fill="url(#paint8_linear_369_2989)" fill-opacity="0.7" style="mix-blend-mode:plus-lighter"/>
<path d="M59.3444 222.101L52.4281 234.18V243.114L63.9973 230.531L67.2668 237.829L62.2367 247.896L67.2668 249.406L59.3444 253.684H70.0334L74.0574 249.406L85.6266 245.002H80.0935L88.2674 236.319L89.7765 227.637L74.0574 236.319V234.18L76.4467 224.491L70.0334 228.895V219.71L62.2367 212.537V209.392L59.3444 207.378V222.101Z" fill="url(#paint9_linear_369_2989)" fill-opacity="0.7" style="mix-blend-mode:plus-lighter"/>
<path d="M63.9973 230.531L52.4281 243.114L55.5719 249.406L59.3444 253.684L67.2668 249.406L62.2367 247.896L67.2668 237.829L63.9973 230.531Z" fill="url(#paint10_linear_369_2989)" fill-opacity="0.7" style="mix-blend-mode:plus-lighter"/>
<path fill-rule="evenodd" clip-rule="evenodd" d="M70.0334 253.684H59.3444L55.5719 249.406L52.4281 243.114L49.0328 234.18L43.7512 230.531L41.3619 236.319L42.4936 245.002L40.1044 247.896L36.206 252.048L45.6375 256.326H49.0328L46.9578 266.582L50.1645 265.764L49.0328 269.79L56.9551 280.486L62.2367 267.4L59.3444 261.863L69.0274 258.466L70.0334 253.684ZM52.4281 259.724V256.326L55.5719 253.684L56.9551 257.836L52.4281 259.724Z" fill="url(#paint11_linear_369_2989)" fill-opacity="0.7" style="mix-blend-mode:plus-lighter"/>
<path d="M42.4936 256.326L33.5652 259.724L28.5352 271.837H37.7151L43.7512 267.4L46.9578 266.582L49.0328 256.326H45.6375H42.4936Z" fill="url(#paint12_linear_369_2989)" fill-opacity="0.7" style="mix-blend-mode:plus-lighter"/>
<path d="M52.4281 256.326V259.724L56.9551 257.836L55.5719 253.684L52.4281 256.326Z" fill="url(#paint13_linear_369_2989)" fill-opacity="0.7" style="mix-blend-mode:plus-lighter"/>
<path d="M33.5652 259.724L42.4936 256.326H45.6375L36.206 252.048L40.1044 247.896L42.4936 245.002L41.3619 236.319L43.7512 230.531L49.0328 234.18L52.4281 243.114V234.18L41.3619 218.955L28.5352 218.074L26.3974 224.491L33.5652 234.18L36.206 245.002L33.5652 243.114H19.6068L9.54658 253.684H21.996L28.5352 257.836L32.182 256.326L33.5652 259.724Z" fill="url(#paint14_linear_369_2989)" fill-opacity="0.7" style="mix-blend-mode:plus-lighter"/>
<path d="M23.2536 280.486L28.5352 274.949L37.7151 271.837H28.5352L33.5652 259.724L19.6068 264.757L9.54658 278.221L8.28906 286.022L23.2536 280.486Z" fill="url(#paint15_linear_369_2989)" fill-opacity="0.7" style="mix-blend-mode:plus-lighter"/>
<path d="M209.571 286.704L204.66 284.515L203.197 281.287C203.197 281.287 197.355 280.968 193.844 279.804C190.333 278.64 187.078 276.6 184.396 274.568C181.715 272.536 180.254 271.257 178.16 268.619C176.066 265.982 172.517 257.57 172.517 257.57L181.423 264.632L188.747 269.747L193.53 273.109L204.953 276.335L193.951 271.607L187.189 266.693L181.488 259.235L179.74 252.394L179.199 247.366L183.714 251.292L181.445 244.608L183.086 245.195L183.15 240.232L185.29 245.982L188.596 243.643L188.565 255.797L193.596 257.559L197.664 261.138L196.218 253.448L199.788 250.786L202.99 242.139L204.313 250.283L206.026 240.224L210.836 251.552L209.271 257.135L214.594 263.15L223.262 259.397L226.624 254.386L236.292 244.871L233.111 256.218L237.976 249.25L237.348 261.397L240.051 264.715L238.538 270.113L246.546 269.041L256.56 260.97L254.525 268.229L259.679 262.988L257.563 270.536L262.131 273.444L261.011 276.604L258.182 277.133L247.672 278.53C247.672 278.53 251.191 280.238 253.625 280.483C256.059 280.727 265.25 276.418 265.25 276.418L260.424 282.132C260.424 282.132 255.487 284.874 252.078 286.004C248.668 287.133 246.36 287.85 242.576 287.921C238.791 287.993 235.127 285.98 232.801 286.288C230.476 286.596 229.407 287.831 227.08 288.122C224.752 288.413 220.368 285.59 218.837 286.864C217.305 288.138 215.366 291.024 215.366 291.024L212.2 290.129L212.45 287.517L209.571 286.704Z" fill="#CAB8FF"/>
<path d="M70.886 282.378C81.5409 300.568 109.866 335.74 70.5189 370.087L72.0752 372.669C104.35 339.469 95.0383 320.895 72.6168 281.406L70.886 282.378Z" fill="white" fill-opacity="0.2"/>
<path d="M110.809 388.618C129.15 265.65 210.727 314.558 215.094 284.864" stroke="#CAB8FF" stroke-width="4"/>
<defs>
<linearGradient id="paint0_linear_369_2989" x1="91.2887" y1="218.5" x2="41.3001" y2="305.083" gradientUnits="userSpaceOnUse">
<stop stop-color="white"/>
<stop offset="0.639423" stop-color="white"/>
</linearGradient>
<linearGradient id="paint1_linear_369_2989" x1="91.2887" y1="218.5" x2="41.3001" y2="305.083" gradientUnits="userSpaceOnUse">
<stop stop-color="white"/>
<stop offset="0.639423" stop-color="white"/>
</linearGradient>
<linearGradient id="paint2_linear_369_2989" x1="91.2887" y1="218.5" x2="41.3001" y2="305.083" gradientUnits="userSpaceOnUse">
<stop stop-color="white"/>
<stop offset="0.639423" stop-color="white"/>
</linearGradient>
<linearGradient id="paint3_linear_369_2989" x1="91.2887" y1="218.5" x2="41.3001" y2="305.083" gradientUnits="userSpaceOnUse">
<stop stop-color="white"/>
<stop offset="0.639423" stop-color="white"/>
</linearGradient>
<linearGradient id="paint4_linear_369_2989" x1="91.2887" y1="218.5" x2="41.3001" y2="305.083" gradientUnits="userSpaceOnUse">
<stop stop-color="white"/>
<stop offset="0.639423" stop-color="white"/>
</linearGradient>
<linearGradient id="paint5_linear_369_2989" x1="91.2887" y1="218.5" x2="41.3001" y2="305.083" gradientUnits="userSpaceOnUse">
<stop stop-color="white"/>
<stop offset="0.639423" stop-color="white"/>
</linearGradient>
<linearGradient id="paint6_linear_369_2989" x1="91.2887" y1="218.5" x2="41.3001" y2="305.083" gradientUnits="userSpaceOnUse">
<stop stop-color="white"/>
<stop offset="0.639423" stop-color="white"/>
</linearGradient>
<linearGradient id="paint7_linear_369_2989" x1="91.2887" y1="218.5" x2="41.3001" y2="305.083" gradientUnits="userSpaceOnUse">
<stop stop-color="white"/>
<stop offset="0.639423" stop-color="white"/>
</linearGradient>
<linearGradient id="paint8_linear_369_2989" x1="55.8863" y1="207.378" x2="55.8863" y2="307.162" gradientUnits="userSpaceOnUse">
<stop stop-color="white"/>
<stop offset="0.639423" stop-color="white"/>
</linearGradient>
<linearGradient id="paint9_linear_369_2989" x1="55.8863" y1="207.378" x2="55.8863" y2="307.162" gradientUnits="userSpaceOnUse">
<stop stop-color="white"/>
<stop offset="0.639423" stop-color="white"/>
</linearGradient>
<linearGradient id="paint10_linear_369_2989" x1="55.8863" y1="207.378" x2="55.8863" y2="307.162" gradientUnits="userSpaceOnUse">
<stop stop-color="white"/>
<stop offset="0.639423" stop-color="white"/>
</linearGradient>
<linearGradient id="paint11_linear_369_2989" x1="55.8863" y1="207.378" x2="55.8863" y2="307.162" gradientUnits="userSpaceOnUse">
<stop stop-color="white"/>
<stop offset="0.639423" stop-color="white"/>
</linearGradient>
<linearGradient id="paint12_linear_369_2989" x1="55.8863" y1="207.378" x2="55.8863" y2="307.162" gradientUnits="userSpaceOnUse">
<stop stop-color="white"/>
<stop offset="0.639423" stop-color="white"/>
</linearGradient>
<linearGradient id="paint13_linear_369_2989" x1="55.8863" y1="207.378" x2="55.8863" y2="307.162" gradientUnits="userSpaceOnUse">
<stop stop-color="white"/>
<stop offset="0.639423" stop-color="white"/>
</linearGradient>
<linearGradient id="paint14_linear_369_2989" x1="55.8863" y1="207.378" x2="55.8863" y2="307.162" gradientUnits="userSpaceOnUse">
<stop stop-color="white"/>
<stop offset="0.639423" stop-color="white"/>
</linearGradient>
<linearGradient id="paint15_linear_369_2989" x1="55.8863" y1="207.378" x2="55.8863" y2="307.162" gradientUnits="userSpaceOnUse">
<stop stop-color="white"/>
<stop offset="0.639423" stop-color="white"/>
</linearGradient>
</defs>
</svg>
