<svg width="185" height="184" viewBox="0 0 185 184" fill="none" xmlns="http://www.w3.org/2000/svg">
<path d="M136.927 106.987L113.479 97.9955L109.042 102.944L95.3252 100.361L94.9669 108.85L79.8451 120.673L77.7868 102.686L81.8585 98.7123L77.5248 97.4948L73.1912 96.2774L63.0629 97.3993L71.5652 99.0937L58.7115 111.436L53.3105 127.291L54.5921 147.992L59.4505 143.682L74.1874 136.972L84.783 126.489L84.2 119.63L88.5398 144.271L105.147 154.847L103.336 142.932L105.818 138.633L98.9665 111.159L106.966 115.777L130.815 129.547L148.775 127.86L136.927 106.987Z" fill="url(#paint0_linear_1107_7198)" fill-opacity="0.8" style="mix-blend-mode:plus-lighter"/>
<path d="M122.368 53.5212L106.005 63.047L99.929 73.5711L122.115 66.6168L121.003 77.4375L108.231 85.8746L113.13 91.0743L100.888 90.7259L113.479 97.9955L121.129 95.6927L137.753 98.3731L131.235 94.61L146.768 89.9415L154.451 80.7402L130.029 80.2772L131.484 77.7573L140.888 67.9689L130.338 68.795L136.585 57.9745L132.279 44.2231L134.418 40.5175L132.381 36.1788L122.368 53.5212Z" fill="url(#paint1_linear_1107_7198)" fill-opacity="0.8" style="mix-blend-mode:plus-lighter"/>
<path d="M122.115 66.6168L99.929 73.5711L99.3535 83.1205L100.888 90.7259L113.13 91.0743L108.231 85.8746L121.003 77.4375L122.115 66.6168Z" fill="url(#paint2_linear_1107_7198)" fill-opacity="0.8" style="mix-blend-mode:plus-lighter"/>
<path fill-rule="evenodd" clip-rule="evenodd" d="M113.479 97.9955L100.888 90.7259L99.3535 83.1205L99.929 73.5711L102.005 60.7378L98.2656 52.8472L91.5145 58.0406L86.9428 69.038L82.1599 70.8222L74.7437 73.0624L82.9441 84.5164L86.9437 86.8256L77.5248 97.4948L81.8585 98.7123L77.7868 102.686L79.8451 120.673L94.9669 108.85L95.3252 100.361L109.042 102.944L113.479 97.9955ZM88.6327 93.1369L90.9433 89.1348L96.4438 88.1602L95.2492 93.9924L88.6327 93.1369Z" fill="url(#paint3_linear_1107_7198)" fill-opacity="0.8" style="mix-blend-mode:plus-lighter"/>
<path d="M79.2407 82.3783L66.4126 80.3081L52.2491 91.156L63.0629 97.3993L73.1912 96.2774L77.5248 97.4948L86.9437 86.8256L82.9441 84.5164L79.2407 82.3783Z" fill="url(#paint4_linear_1107_7198)" fill-opacity="0.8" style="mix-blend-mode:plus-lighter"/>
<path d="M90.9433 89.1348L88.6327 93.1369L95.2492 93.9924L96.4438 88.1602L90.9433 89.1348Z" fill="url(#paint5_linear_1107_7198)" fill-opacity="0.8" style="mix-blend-mode:plus-lighter"/>
<path d="M66.4126 80.3081L79.2407 82.3783L82.9441 84.5164L74.7437 73.0624L82.1599 70.8222L86.9428 69.038L91.5145 58.0406L98.2656 52.8472L102.005 60.7378L99.929 73.5711L106.005 63.047L103.324 37.5855L88.8137 27.8243L81.9309 33.9299L83.785 50.2182L79.5361 64.7617L77.7089 60.7423L61.2661 51.249L42.2268 56.858L56.8921 65.325L61.7709 74.6637L67.0938 75.3652L66.4126 80.3081Z" fill="url(#paint6_linear_1107_7198)" fill-opacity="0.8" style="mix-blend-mode:plus-lighter"/>
<path d="M40.1452 97.7523L50.1323 94.8224L63.0629 97.3993L52.2491 91.156L66.4126 80.3081L46.5466 76.7439L25.539 85.762L18.7519 94.0968L40.1452 97.7523Z" fill="url(#paint7_linear_1107_7198)" fill-opacity="0.8" style="mix-blend-mode:plus-lighter"/>
<path d="M116.562 58.602L97.1384 72.136L98.6508 78.2161L89.3767 87.5501L95.8097 92.322L97.0314 110.376L81.9096 102.463L80.9644 97.1837L77.7214 99.9203L74.4783 102.657L69.9938 111.152L75.815 105.416L78.6417 121.975L88.1524 134.578L104.98 144.533L104.189 138.462L106.753 123.415L104.181 109.601L98.5222 106.426L120.042 116.08L137.081 108.721L126.827 103.828L124.787 99.6175L99.7277 90.4237L107.564 86.6272L130.927 75.3079L139.115 60.4042L116.562 58.602Z" fill="url(#paint8_linear_1107_7198)" fill-opacity="0.8" style="mix-blend-mode:plus-lighter"/>
<path d="M67.1461 41.6664L65.9186 59.4726L70.9134 69.7819L77.2287 48.7936L85.0819 55.3873L84.9054 69.8157L91.5541 68.7459L84.804 78.112L97.1384 72.136L99.3901 64.9493L110.278 53.3991L103.893 56.4926L108.471 41.9038L105.358 31.0412L92.0737 49.8484L90.8777 47.38L88.2179 34.8636L83.2795 43.5313L78.1439 32.9316L65.1371 29.0141L63.3784 25.384L58.9152 24.6779L67.1461 41.6664Z" fill="url(#paint9_linear_1107_7198)" fill-opacity="0.8" style="mix-blend-mode:plus-lighter"/>
<path d="M77.2287 48.7936L70.9134 69.7819L78.0587 75.2844L84.804 78.112L91.5541 68.7459L84.9054 69.8157L85.0819 55.3873L77.2287 48.7936Z" fill="url(#paint10_linear_1107_7198)" fill-opacity="0.8" style="mix-blend-mode:plus-lighter"/>
<path fill-rule="evenodd" clip-rule="evenodd" d="M97.1384 72.136L84.804 78.112L78.0587 75.2844L70.9134 69.7819L62.0006 61.3709L53.8658 60.1129L54.3448 68.128L60.5049 77.5141L59.3658 82.1896L57.1889 89.1607L70.4642 88.8246L74.3822 86.9264L77.7214 99.9203L80.9644 97.1837L81.9096 102.463L97.0314 110.376L95.8097 92.322L89.3767 87.5501L98.6508 78.2161L97.1384 72.136ZM80.1996 88.9485L78.3002 85.0281L80.4506 80.2212L84.3684 84.2395L80.1996 88.9485Z" fill="url(#paint11_linear_1107_7198)" fill-opacity="0.8" style="mix-blend-mode:plus-lighter"/>
<path d="M66.8364 90.5823L58.4329 99.4945L59.4007 116.284L69.9938 111.152L74.4783 102.657L77.7214 99.9203L74.3822 86.9264L70.4642 88.8246L66.8364 90.5823Z" fill="url(#paint12_linear_1107_7198)" fill-opacity="0.8" style="mix-blend-mode:plus-lighter"/>
<path d="M78.3002 85.0281L80.1996 88.9485L84.3684 84.2395L80.4506 80.2212L78.3002 85.0281Z" fill="url(#paint13_linear_1107_7198)" fill-opacity="0.8" style="mix-blend-mode:plus-lighter"/>
<path d="M58.4329 99.4945L66.8364 90.5823L70.4642 88.8246L57.1889 89.1607L59.3658 82.1896L60.5049 77.5141L54.3448 68.128L53.8658 60.1129L62.0006 61.3709L70.9134 69.7819L65.9186 59.4726L44.6365 48.0902L29.3427 54.245L30.4636 62.8455L44.1519 70.0186L53.2493 81.0295L49.1468 80.3279L33.0394 88.1319L27.3399 105.953L41.7059 98.993L51.5732 100.129L54.9373 96.3474L58.4329 99.4945Z" fill="url(#paint14_linear_1107_7198)" fill-opacity="0.8" style="mix-blend-mode:plus-lighter"/>
<path d="M58.1416 129.218L61.1408 119.876L69.9938 111.152L59.4007 116.284L58.4329 99.4945L45.1396 113.107L41.0581 134.268L43.9687 143.973L58.1416 129.218Z" fill="url(#paint15_linear_1107_7198)" fill-opacity="0.8" style="mix-blend-mode:plus-lighter"/>
<defs>
<linearGradient id="paint0_linear_1107_7198" x1="128.307" y1="33.8268" x2="60.4434" y2="151.37" gradientUnits="userSpaceOnUse">
<stop stop-color="white"/>
<stop offset="0.639423" stop-color="white"/>
</linearGradient>
<linearGradient id="paint1_linear_1107_7198" x1="128.307" y1="33.8268" x2="60.4434" y2="151.37" gradientUnits="userSpaceOnUse">
<stop stop-color="white"/>
<stop offset="0.639423" stop-color="white"/>
</linearGradient>
<linearGradient id="paint2_linear_1107_7198" x1="128.307" y1="33.8268" x2="60.4434" y2="151.37" gradientUnits="userSpaceOnUse">
<stop stop-color="white"/>
<stop offset="0.639423" stop-color="white"/>
</linearGradient>
<linearGradient id="paint3_linear_1107_7198" x1="128.307" y1="33.8268" x2="60.4434" y2="151.37" gradientUnits="userSpaceOnUse">
<stop stop-color="white"/>
<stop offset="0.639423" stop-color="white"/>
</linearGradient>
<linearGradient id="paint4_linear_1107_7198" x1="128.307" y1="33.8268" x2="60.4434" y2="151.37" gradientUnits="userSpaceOnUse">
<stop stop-color="white"/>
<stop offset="0.639423" stop-color="white"/>
</linearGradient>
<linearGradient id="paint5_linear_1107_7198" x1="128.307" y1="33.8268" x2="60.4434" y2="151.37" gradientUnits="userSpaceOnUse">
<stop stop-color="white"/>
<stop offset="0.639423" stop-color="white"/>
</linearGradient>
<linearGradient id="paint6_linear_1107_7198" x1="128.307" y1="33.8268" x2="60.4434" y2="151.37" gradientUnits="userSpaceOnUse">
<stop stop-color="white"/>
<stop offset="0.639423" stop-color="white"/>
</linearGradient>
<linearGradient id="paint7_linear_1107_7198" x1="128.307" y1="33.8268" x2="60.4434" y2="151.37" gradientUnits="userSpaceOnUse">
<stop stop-color="white"/>
<stop offset="0.639423" stop-color="white"/>
</linearGradient>
<linearGradient id="paint8_linear_1107_7198" x1="54.9246" y1="26.6113" x2="110.712" y2="141.756" gradientUnits="userSpaceOnUse">
<stop stop-color="white"/>
<stop offset="0.639423" stop-color="white"/>
</linearGradient>
<linearGradient id="paint9_linear_1107_7198" x1="54.9246" y1="26.6113" x2="110.712" y2="141.756" gradientUnits="userSpaceOnUse">
<stop stop-color="white"/>
<stop offset="0.639423" stop-color="white"/>
</linearGradient>
<linearGradient id="paint10_linear_1107_7198" x1="54.9246" y1="26.6113" x2="110.712" y2="141.756" gradientUnits="userSpaceOnUse">
<stop stop-color="white"/>
<stop offset="0.639423" stop-color="white"/>
</linearGradient>
<linearGradient id="paint11_linear_1107_7198" x1="54.9246" y1="26.6113" x2="110.712" y2="141.756" gradientUnits="userSpaceOnUse">
<stop stop-color="white"/>
<stop offset="0.639423" stop-color="white"/>
</linearGradient>
<linearGradient id="paint12_linear_1107_7198" x1="54.9246" y1="26.6113" x2="110.712" y2="141.756" gradientUnits="userSpaceOnUse">
<stop stop-color="white"/>
<stop offset="0.639423" stop-color="white"/>
</linearGradient>
<linearGradient id="paint13_linear_1107_7198" x1="54.9246" y1="26.6113" x2="110.712" y2="141.756" gradientUnits="userSpaceOnUse">
<stop stop-color="white"/>
<stop offset="0.639423" stop-color="white"/>
</linearGradient>
<linearGradient id="paint14_linear_1107_7198" x1="54.9246" y1="26.6113" x2="110.712" y2="141.756" gradientUnits="userSpaceOnUse">
<stop stop-color="white"/>
<stop offset="0.639423" stop-color="white"/>
</linearGradient>
<linearGradient id="paint15_linear_1107_7198" x1="54.9246" y1="26.6113" x2="110.712" y2="141.756" gradientUnits="userSpaceOnUse">
<stop stop-color="white"/>
<stop offset="0.639423" stop-color="white"/>
</linearGradient>
</defs>
</svg>
