<svg width="209" height="190" viewBox="0 0 209 190" fill="none" xmlns="http://www.w3.org/2000/svg">
<path d="M132.552 105.532L109.104 96.54L104.667 101.488L90.9502 98.905L90.5919 107.394L75.4701 119.217L73.4118 101.23L77.4835 97.2567L73.1498 96.0393L68.8162 94.8219L58.6879 95.9438L67.1902 97.6382L54.3365 109.981L48.9355 125.835L50.2171 146.536L55.0755 142.226L69.8124 135.517L80.408 125.033L79.825 118.174L84.1648 142.815L100.772 153.392L98.9613 141.476L101.443 137.178L94.5915 109.703L102.591 114.322L126.44 128.091L144.4 126.405L132.552 105.532Z" fill="url(#paint0_linear_1078_7183)" fill-opacity="0.8" style="mix-blend-mode:plus-lighter"/>
<path d="M117.993 52.0656L101.63 61.5914L95.554 72.1155L117.74 65.1612L116.628 75.982L103.856 84.419L108.755 89.6187L96.5128 89.2703L109.104 96.54L116.754 94.2371L133.378 96.9175L126.86 93.1544L142.393 88.4859L150.076 79.2846L125.654 78.8216L127.109 76.3018L136.513 66.5133L125.963 67.3395L132.21 56.519L127.904 42.7675L130.043 39.0619L128.006 34.7232L117.993 52.0656Z" fill="url(#paint1_linear_1078_7183)" fill-opacity="0.8" style="mix-blend-mode:plus-lighter"/>
<path d="M117.74 65.1612L95.554 72.1155L94.9785 81.6649L96.5128 89.2703L108.755 89.6187L103.856 84.419L116.628 75.982L117.74 65.1612Z" fill="url(#paint2_linear_1078_7183)" fill-opacity="0.8" style="mix-blend-mode:plus-lighter"/>
<path fill-rule="evenodd" clip-rule="evenodd" d="M109.104 96.54L96.5128 89.2703L94.9785 81.6649L95.554 72.1155L97.6305 59.2823L93.8906 51.3917L87.1395 56.5851L82.5678 67.5824L77.7849 69.3666L70.3687 71.6068L78.5691 83.0608L82.5687 85.37L73.1498 96.0393L77.4835 97.2567L73.4118 101.23L75.4701 119.217L90.5919 107.394L90.9502 98.905L104.667 101.488L109.104 96.54ZM84.2577 91.6813L86.5683 87.6792L92.0688 86.7046L90.8742 92.5368L84.2577 91.6813Z" fill="url(#paint3_linear_1078_7183)" fill-opacity="0.8" style="mix-blend-mode:plus-lighter"/>
<path d="M74.8657 80.9227L62.0376 78.8525L47.8741 89.7004L58.6879 95.9438L68.8162 94.8219L73.1498 96.0393L82.5687 85.37L78.5691 83.0608L74.8657 80.9227Z" fill="url(#paint4_linear_1078_7183)" fill-opacity="0.8" style="mix-blend-mode:plus-lighter"/>
<path d="M86.5683 87.6792L84.2577 91.6813L90.8742 92.5368L92.0688 86.7046L86.5683 87.6792Z" fill="url(#paint5_linear_1078_7183)" fill-opacity="0.8" style="mix-blend-mode:plus-lighter"/>
<path d="M62.0376 78.8525L74.8657 80.9227L78.5691 83.0608L70.3687 71.6068L77.7849 69.3666L82.5678 67.5824L87.1395 56.5851L93.8906 51.3917L97.6305 59.2823L95.554 72.1155L101.63 61.5914L98.9493 36.1299L84.4387 26.3687L77.5559 32.4743L79.41 48.7627L75.1611 63.3061L73.3339 59.2867L56.8911 49.7934L37.8518 55.4024L52.5171 63.8694L57.3959 73.2081L62.7188 73.9097L62.0376 78.8525Z" fill="url(#paint6_linear_1078_7183)" fill-opacity="0.8" style="mix-blend-mode:plus-lighter"/>
<path d="M35.7702 96.2968L45.7573 93.3669L58.6879 95.9438L47.8741 89.7004L62.0376 78.8525L42.1716 75.2883L21.164 84.3065L14.3769 92.6412L35.7702 96.2968Z" fill="url(#paint7_linear_1078_7183)" fill-opacity="0.8" style="mix-blend-mode:plus-lighter"/>
<path d="M119.38 75.3928L94.6711 79.3083L93.3078 85.7774L80.1863 90.3739L84.1057 97.8644L76.9485 115.569L66.2127 101.099L67.7464 95.6513L63.4009 96.7579L59.0555 97.8644L50.8758 103.868L59.0555 101.099L54.1136 118.123L57.3514 134.466L68.7688 151.66L70.8137 145.532L80.1863 132.423L84.1057 118.123L80.1863 112.505L96.2048 131.572L115.802 132.423L108.304 123.06V118.123L88.7067 97.8644H97.9089H125.345L140 87.4798L119.38 75.3928Z" fill="url(#paint8_linear_1078_7183)" fill-opacity="0.8" style="mix-blend-mode:plus-lighter"/>
<path d="M80.1863 36.5782L70.8137 52.9212V65.0082L86.4914 47.9842L90.9221 57.8581L84.1057 71.4773L90.9221 73.5202L80.1863 79.3083H94.6711L100.124 73.5202L115.802 67.5618H108.304L119.38 55.8153L121.425 44.0687L100.124 55.8153V52.9212L103.362 39.8127L94.6711 45.7711V33.3436L84.1057 23.64V19.384L80.1863 16.6602V36.5782Z" fill="url(#paint9_linear_1078_7183)" fill-opacity="0.8" style="mix-blend-mode:plus-lighter"/>
<path d="M86.4914 47.9842L70.8137 65.0082L75.074 73.5202L80.1863 79.3083L90.9221 73.5202L84.1057 71.4773L90.9221 57.8581L86.4914 47.9842Z" fill="url(#paint10_linear_1078_7183)" fill-opacity="0.8" style="mix-blend-mode:plus-lighter"/>
<path fill-rule="evenodd" clip-rule="evenodd" d="M94.6711 79.3083H80.1863L75.074 73.5202L70.8137 65.0082L66.2127 52.9212L59.0555 47.9842L55.8177 55.8153L57.3514 67.5618L54.1136 71.4773L48.8309 77.0952L61.6116 82.8834H66.2127L63.4009 96.7579L67.7464 95.6513L66.2127 101.099L76.9485 115.569L84.1057 97.8644L80.1863 90.3739L93.3078 85.7774L94.6711 79.3083ZM70.8137 87.4798V82.8834L75.074 79.3083L76.9485 84.9262L70.8137 87.4798Z" fill="url(#paint11_linear_1078_7183)" fill-opacity="0.8" style="mix-blend-mode:plus-lighter"/>
<path d="M57.3514 82.8834L45.2523 87.4798L38.4359 103.868H50.8758L59.0555 97.8644L63.4009 96.7579L66.2127 82.8834H61.6116H57.3514Z" fill="url(#paint12_linear_1078_7183)" fill-opacity="0.8" style="mix-blend-mode:plus-lighter"/>
<path d="M70.8137 82.8834V87.4798L76.9485 84.9262L75.074 79.3083L70.8137 82.8834Z" fill="url(#paint13_linear_1078_7183)" fill-opacity="0.8" style="mix-blend-mode:plus-lighter"/>
<path d="M45.2523 87.4798L57.3514 82.8834H61.6116L48.8309 77.0952L54.1136 71.4773L57.3514 67.5618L55.8177 55.8153L59.0555 47.9842L66.2127 52.9212L70.8137 65.0082V52.9212L55.8177 32.3222L38.4359 31.1305L35.539 39.8127L45.2523 52.9212L48.8309 67.5618L45.2523 65.0082H26.3369L12.7041 79.3083H29.5746L38.4359 84.9262L43.3778 82.8834L45.2523 87.4798Z" fill="url(#paint14_linear_1078_7183)" fill-opacity="0.8" style="mix-blend-mode:plus-lighter"/>
<path d="M31.2787 115.569L38.4359 108.079L50.8758 103.868H38.4359L45.2523 87.4798L26.3369 94.2894L12.7041 112.505L11 123.06L31.2787 115.569Z" fill="url(#paint15_linear_1078_7183)" fill-opacity="0.8" style="mix-blend-mode:plus-lighter"/>
<path d="M107.515 84C202.174 102.59 210.915 162.412 207.502 190H192.847C222.883 123.535 140.132 94.3984 95.0017 88.1381L107.515 84Z" fill="white" fill-opacity="0.7"/>
<defs>
<linearGradient id="paint0_linear_1078_7183" x1="123.932" y1="32.3713" x2="56.0684" y2="149.914" gradientUnits="userSpaceOnUse">
<stop stop-color="white"/>
<stop offset="0.639423" stop-color="white"/>
</linearGradient>
<linearGradient id="paint1_linear_1078_7183" x1="123.932" y1="32.3713" x2="56.0684" y2="149.914" gradientUnits="userSpaceOnUse">
<stop stop-color="white"/>
<stop offset="0.639423" stop-color="white"/>
</linearGradient>
<linearGradient id="paint2_linear_1078_7183" x1="123.932" y1="32.3713" x2="56.0684" y2="149.914" gradientUnits="userSpaceOnUse">
<stop stop-color="white"/>
<stop offset="0.639423" stop-color="white"/>
</linearGradient>
<linearGradient id="paint3_linear_1078_7183" x1="123.932" y1="32.3713" x2="56.0684" y2="149.914" gradientUnits="userSpaceOnUse">
<stop stop-color="white"/>
<stop offset="0.639423" stop-color="white"/>
</linearGradient>
<linearGradient id="paint4_linear_1078_7183" x1="123.932" y1="32.3713" x2="56.0684" y2="149.914" gradientUnits="userSpaceOnUse">
<stop stop-color="white"/>
<stop offset="0.639423" stop-color="white"/>
</linearGradient>
<linearGradient id="paint5_linear_1078_7183" x1="123.932" y1="32.3713" x2="56.0684" y2="149.914" gradientUnits="userSpaceOnUse">
<stop stop-color="white"/>
<stop offset="0.639423" stop-color="white"/>
</linearGradient>
<linearGradient id="paint6_linear_1078_7183" x1="123.932" y1="32.3713" x2="56.0684" y2="149.914" gradientUnits="userSpaceOnUse">
<stop stop-color="white"/>
<stop offset="0.639423" stop-color="white"/>
</linearGradient>
<linearGradient id="paint7_linear_1078_7183" x1="123.932" y1="32.3713" x2="56.0684" y2="149.914" gradientUnits="userSpaceOnUse">
<stop stop-color="white"/>
<stop offset="0.639423" stop-color="white"/>
</linearGradient>
<linearGradient id="paint8_linear_1078_7183" x1="75.5" y1="16.6602" x2="75.5" y2="151.66" gradientUnits="userSpaceOnUse">
<stop stop-color="white"/>
<stop offset="0.639423" stop-color="white"/>
</linearGradient>
<linearGradient id="paint9_linear_1078_7183" x1="75.5" y1="16.6602" x2="75.5" y2="151.66" gradientUnits="userSpaceOnUse">
<stop stop-color="white"/>
<stop offset="0.639423" stop-color="white"/>
</linearGradient>
<linearGradient id="paint10_linear_1078_7183" x1="75.5" y1="16.6602" x2="75.5" y2="151.66" gradientUnits="userSpaceOnUse">
<stop stop-color="white"/>
<stop offset="0.639423" stop-color="white"/>
</linearGradient>
<linearGradient id="paint11_linear_1078_7183" x1="75.5" y1="16.6602" x2="75.5" y2="151.66" gradientUnits="userSpaceOnUse">
<stop stop-color="white"/>
<stop offset="0.639423" stop-color="white"/>
</linearGradient>
<linearGradient id="paint12_linear_1078_7183" x1="75.5" y1="16.6602" x2="75.5" y2="151.66" gradientUnits="userSpaceOnUse">
<stop stop-color="white"/>
<stop offset="0.639423" stop-color="white"/>
</linearGradient>
<linearGradient id="paint13_linear_1078_7183" x1="75.5" y1="16.6602" x2="75.5" y2="151.66" gradientUnits="userSpaceOnUse">
<stop stop-color="white"/>
<stop offset="0.639423" stop-color="white"/>
</linearGradient>
<linearGradient id="paint14_linear_1078_7183" x1="75.5" y1="16.6602" x2="75.5" y2="151.66" gradientUnits="userSpaceOnUse">
<stop stop-color="white"/>
<stop offset="0.639423" stop-color="white"/>
</linearGradient>
<linearGradient id="paint15_linear_1078_7183" x1="75.5" y1="16.6602" x2="75.5" y2="151.66" gradientUnits="userSpaceOnUse">
<stop stop-color="white"/>
<stop offset="0.639423" stop-color="white"/>
</linearGradient>
</defs>
</svg>
