<svg width="1322" height="813" viewBox="0 0 1322 813" fill="none" xmlns="http://www.w3.org/2000/svg">
<path d="M746 245L748.5 569.5H655.5V175H746V234.5H752V241.5L746 245Z" fill="#DBE7FA" fill-opacity="0.61"/>
<path d="M571 244.5L569.728 570H655.5V176L571 176.5V236H564.5V242.5L571 244.5Z" fill="#DBE7FA" fill-opacity="0.61"/>
<path d="M1113.5 768.5V781.5L1038 792.5L660.5 812.5V801.5L1113.5 768.5Z" fill="#353535"/>
<path d="M207.5 768.5V781.5L283 792.5L660.5 812.5V801.5L207.5 768.5Z" fill="#353535"/>
<path fill-rule="evenodd" clip-rule="evenodd" d="M1031 614V606.5H952V749.5H1031V729H1005V614H1031ZM957.5 729.5L993.5 729V614H957.5V729.5Z" fill="#FAFAFA"/>
<path fill-rule="evenodd" clip-rule="evenodd" d="M1031 614V606.5H952V749.5H1031V729H1005V614H1031ZM957.5 729.5L993.5 729V614H957.5V729.5Z" fill="#FAFAFA"/>
<path fill-rule="evenodd" clip-rule="evenodd" d="M1031 614V606.5H952V749.5H1031V729H1005V614H1031ZM957.5 729.5L993.5 729V614H957.5V729.5Z" fill="#FAFAFA"/>
<path d="M1232.5 344L1193 340V331L1243.5 336.5L1245.5 444.5L1232.5 444V344Z" fill="#6C6C6C"/>
<path d="M0 272L8 243.5L86 224.5H171.5L164.5 165.5L243.5 99L425.5 47L661.5 29.5L897 47L1079 99L1158 165.5L1151 224.5H1236.5L1313.5 243L1321.5 271L1314 228L1252 209.5H1166.5L1171 161.5L1069.5 74L897 22.5L650.5 0L420.5 19L233 74L150 147.5L155 209H69.5L7.5 227.5L0 272Z" fill="#F9F9F9"/>
<path d="M1 272L3 219.5L139.5 179.5H153.5L156 208.5H70.5L8.5 227L1 272Z" fill="#774242"/>
<path d="M1322 273L1319.5 220.5L1183 180.5H1169L1166.5 209.5H1252L1314 228L1322 273Z" fill="#774242"/>
<path d="M43.5 297L1 271.5L9 243L86 224.5H171.5L164.5 165.5L243.5 99L425.5 47L661 29.5V57L432 72.5L257 125L195.5 183V233L201.5 248.5H140.5H86L47.5 262L36 271.5L43.5 297Z" fill="url(#paint0_linear_977_4963)"/>
<path d="M1279 297L1321.5 271.5L1313.5 243L1236.5 224.5H1151L1158 165.5L1079 99L897 47L661 29.5V57L890.5 72.5L1065.5 125L1127 183V233L1121 248.5H1182H1236.5L1275 262L1286.5 271.5L1279 297Z" fill="url(#paint1_linear_977_4963)"/>
<path d="M1114 760L1274.5 748.5V722L1120.5 728.5V736.5L1125.5 738.5V742.5L1118.5 745.5L1114 751.5V760Z" fill="url(#paint2_linear_977_4963)"/>
<path d="M1279 297L1286.5 271.5L1275 262L1236.5 248.5H1121L1114 259.5L1119 262L1118 273.5H1114L1120.39 728.5L1274.5 722L1283 712.5V709.5L1274.5 708.5V691.5L1279 687.5V683H1273.5L1270.5 526L1280.5 508V503L1270.5 500L1266 316L1268.5 302L1279 297Z" fill="url(#paint3_linear_977_4963)"/>
<path d="M1245.5 444H1232.5V344L1193 340V331L1243.5 336.5L1245.5 444Z" fill="#D9D9D9"/>
<path d="M1198.5 684H1237V538.5H1197.5L1198.5 684Z" fill="#A8A8A8"/>
<path d="M1237 684V538.5H1197.5V531.5L1248.5 532L1249 684H1237Z" fill="#CFCFCF"/>
<path fill-rule="evenodd" clip-rule="evenodd" d="M1186 448.5L1251.5 450L1249.5 332L1186.5 325L1186 440.5V443V448.5ZM1243.5 336.5L1245.5 444.5L1193 443.081V331L1243.5 336.5Z" fill="white"/>
<path fill-rule="evenodd" clip-rule="evenodd" d="M1192 690H1254V527L1190.5 525.5L1192 690ZM1248.5 532L1197.5 531.5L1198.5 684H1249L1248.5 532Z" fill="#F4F4F4"/>
<path d="M208 759.5L47.5 748.5V722L201.5 728.5V736.5L196.5 738.5V742.5L203.5 745.5L205.5 748.5L208 751V759.5Z" fill="url(#paint4_linear_977_4963)"/>
<path d="M43 297L35.5 271.5L47 262L85.5 248.5H201.5L207.5 259.5L203 262L204 273.5H208L201.605 728.5L47.5 722L39 712.5V709.5L47.5 708.5V691.5L43 687.5V683H48.5L51.5 526L41.5 508V503L51.5 500L56 316L53.5 302L43 297Z" fill="url(#paint5_linear_977_4963)"/>
<path d="M76.5 444H89.5V344L129 340V331L78.5 336.5L76.5 444Z" fill="#D9D9D9"/>
<path d="M85 684V538.5H124.5V531.5L73.5 532L73 684H85Z" fill="#CFCFCF"/>
<path fill-rule="evenodd" clip-rule="evenodd" d="M136 448.5L70.5 450L72.5 332L135.5 325L136 440.5V443V448.5ZM78.5 336.5L76.5 444.5L129 443.081V331L78.5 336.5Z" fill="white"/>
<path fill-rule="evenodd" clip-rule="evenodd" d="M130 690H68V527L131.5 525.5L130 690ZM73.5 532L124.5 531.5L123.5 684H73L73.5 532Z" fill="#F4F4F4"/>
<path d="M201.5 248.5L195.5 233V183L257 125L432 72.5L661 57L890.5 72.5L1065.5 125L1127 183V233L1121 248.5L1114 259V233L1075.5 191L990 151.5L854 119.5L661 106.5L468.5 115.5L314 150.5L232 191L203.5 228L209 255L207.5 259.5L201.5 248.5Z" fill="#DFDFDF"/>
<path d="M205.5 748.5H244.5L244 257L223 254L209 254.5L207.5 259.5L203 262L204 273.5H208L201.5 736.5L196.5 738.5V742.5L203.5 745.5L205.5 748.5Z" fill="#E6E6E6"/>
<path d="M244.5 748.5H205.5L208 751V759.5L237 760V756L244.5 752V748.5Z" fill="#E6E6E6"/>
<path d="M244.5 752L237 756V762L296.5 763V756L289.5 752V200.5L293.5 194.5L292.5 187L293.5 180L278.5 174L252.5 175.5L240 181.5L242 188V194.5L244.5 197V752Z" fill="#F1F1F1"/>
<path d="M1116.5 749H1077.5L1078 257.5L1099 254.5L1113 255L1114.5 260L1119 262.5L1118 274H1114L1120.5 737L1125.5 739V743L1118.5 746L1116.5 749Z" fill="#E6E6E6"/>
<path d="M1077.5 749H1116.5L1114 751.5V760L1085 760.5V756.5L1077.5 752.5V749Z" fill="#E6E6E6"/>
<path d="M572 765V581.5H750.5V765H572Z" fill="#B1B1B1"/>
<path d="M209 254.5L203.5 228L232 191L238 188V194L240.5 196.5V256.613L223 254L209 254.5Z" fill="#6E6E6E"/>
<path d="M238 188V194L240.5 196.5V256.613L393.5 257V244L418.5 217L469.5 195L569 175.5H747.5L852.5 197.5L896 215L928 246L929.5 259.5L1114 257V233L1080 196L1041 175L990 151.5L858.5 120.5L797.5 115.5L661 106.5L467 116L314 150.5L238 188Z" fill="#6E6E6E"/>
<path d="M1079.43 752.5L1087.5 756.5V762.5L1023.5 763.5V756.5L1031.03 752.5V201L1026.73 195L1027.8 187.5L1026.73 180.5L1042.86 174.5L1070.83 176L1084.27 182L1082.12 188.5V195L1079.43 197.5V752.5Z" fill="#F1F1F1"/>
<path d="M240.567 751.5L232.5 755.5V761.5L296.5 762.5V755.5L288.971 751.5V200L293.273 194L292.197 186.5L293.273 179.5L277.139 173.5L249.172 175L235.727 181L237.878 187.5V194L240.567 196.5V751.5Z" fill="#F1F1F1"/>
<path fill-rule="evenodd" clip-rule="evenodd" d="M572 764.5V581.5H750.5V764.5H572ZM736 588H585V756.5H736V588Z" fill="#CDCDCD"/>
<path d="M658.5 757.5V588.5H665V757.5H658.5Z" fill="#CDCDCD"/>
<path d="M571 175.5L469.792 194.5L416.092 217.5L393.5 244L392 749.5L469.792 759.5L572 764.5L571 243.5L564.5 241.5V235H571V175.5Z" fill="url(#paint6_linear_977_4963)"/>
<path d="M749.835 763.5L855.227 759.5L928.5 749.706L929.5 259.5L928.5 246L895.878 215L845.19 195.5L745.82 175.5V235H751.34V242L745.82 245L749.835 763.5Z" fill="url(#paint7_linear_977_4963)"/>
<path d="M1031 597.5H941.5L942.5 749.5H952V606.5H1031V597.5Z" fill="#D9D9D9"/>
<path d="M942.5 749.5H928.5L929.5 259.5L1031 258V597.5H941.5L942.5 749.5Z" fill="#B1B1B1"/>
<path fill-rule="evenodd" clip-rule="evenodd" d="M289.5 614V606.5H368.5V749.5H289.5V729H315.5V614H289.5ZM363 729.5L327 729V614H363V729.5Z" fill="#FAFAFA"/>
<path d="M289.5 597.5H379L378 749.5H368.5V606.5H289.5V597.5Z" fill="#D9D9D9"/>
<path d="M378 749.5H392L393.5 257L289.5 258V597.5H379L378 749.5Z" fill="#B1B1B1"/>
<path d="M761.5 581.5H560V569.5H761.5V581.5Z" fill="#B9B9B9"/>
<path d="M1031 752.5V749.5H928.5L850 760V764.5L857 769V776.5H792.5V769L800 764.5V761.5L750.5 763.5V765H661V801.5L857 794L1038 778.5L1114 768.5V760L1087.5 760.5V762.5L1023.5 763.5V756.5L1031 752.5Z" fill="url(#paint8_linear_977_4963)"/>
<path d="M289.5 752V749.5H394L472.5 760V764.5L465.5 769V776.5H530V769L522.5 764.5V761.5L572 763.5V765H661.5V801.5L465.5 794L284.5 778.5L208 768.5V759.5L232.5 760V761.5L296.5 763V755.5L289.5 752Z" fill="url(#paint9_linear_977_4963)"/>
<defs>
<linearGradient id="paint0_linear_977_4963" x1="318.63" y1="-45.5" x2="324.632" y2="564.956" gradientUnits="userSpaceOnUse">
<stop stop-color="#D9D9D9"/>
<stop offset="1" stop-color="#737373"/>
</linearGradient>
<linearGradient id="paint1_linear_977_4963" x1="1003.63" y1="-45.5" x2="997.632" y2="564.956" gradientUnits="userSpaceOnUse">
<stop stop-color="#D9D9D9"/>
<stop offset="1" stop-color="#737373"/>
</linearGradient>
<linearGradient id="paint2_linear_977_4963" x1="1238" y1="714.5" x2="1079.1" y2="781.229" gradientUnits="userSpaceOnUse">
<stop stop-color="#D9D9D9"/>
<stop offset="1" stop-color="#737373"/>
</linearGradient>
<linearGradient id="paint3_linear_977_4963" x1="1244.5" y1="409" x2="942.5" y2="404" gradientUnits="userSpaceOnUse">
<stop stop-color="#F9F9F9"/>
<stop offset="1" stop-color="#939393"/>
</linearGradient>
<linearGradient id="paint4_linear_977_4963" x1="84" y1="714.5" x2="242.904" y2="781.229" gradientUnits="userSpaceOnUse">
<stop stop-color="#D9D9D9"/>
<stop offset="1" stop-color="#737373"/>
</linearGradient>
<linearGradient id="paint5_linear_977_4963" x1="77.5" y1="409" x2="379.5" y2="404" gradientUnits="userSpaceOnUse">
<stop stop-color="#F9F9F9"/>
<stop offset="1" stop-color="#939393"/>
</linearGradient>
<linearGradient id="paint6_linear_977_4963" x1="660" y1="175.5" x2="660" y2="763.5" gradientUnits="userSpaceOnUse">
<stop stop-color="#858585"/>
<stop offset="1" stop-color="#B1B1B1"/>
</linearGradient>
<linearGradient id="paint7_linear_977_4963" x1="660" y1="175.5" x2="660" y2="763.5" gradientUnits="userSpaceOnUse">
<stop stop-color="#858585"/>
<stop offset="1" stop-color="#B1B1B1"/>
</linearGradient>
<linearGradient id="paint8_linear_977_4963" x1="887" y1="709.5" x2="882.006" y2="833.85" gradientUnits="userSpaceOnUse">
<stop stop-color="#3C3C3C"/>
<stop offset="1" stop-color="#666666"/>
</linearGradient>
<linearGradient id="paint9_linear_977_4963" x1="435.251" y1="709.5" x2="440.239" y2="833.85" gradientUnits="userSpaceOnUse">
<stop stop-color="#3C3C3C"/>
<stop offset="1" stop-color="#666666"/>
</linearGradient>
</defs>
</svg>
