<svg width="997" height="261" viewBox="0 0 997 261" fill="none" xmlns="http://www.w3.org/2000/svg">
<path d="M183.439 65.9111L235.02 54.2942L259.537 68.7952L207.832 75.6792L183.494 89.9064L183.439 65.9111Z" fill="white" fill-opacity="0.5"/>
<path d="M138.162 100.991L47.9214 103.247L15.5295 71.5787L103.49 77.1019L150.656 61.7364L138.162 100.991Z" fill="white" fill-opacity="0.5"/>
<path d="M116.987 64.8867L149.641 37.8203L197.323 52.897L172.551 62.2283L172.759 79.4385L155.358 53.2066L116.987 64.8867Z" fill="white" fill-opacity="0.5"/>
<path d="M155.269 63.9492L147.708 99.9571L191.2 119.977L185.748 99.3404L203.061 89.2044L166.484 94.2598L155.269 63.9492Z" fill="white" fill-opacity="0.5"/>
<path d="M311.719 12.4793L325.509 65.7817L262.143 97.4576L268.813 66.4912L242.317 52.1368L297.145 58.1003L311.719 12.4793Z" fill="white" fill-opacity="0.5"/>
<path d="M84.2399 20.041L53.2494 67.7753L104.488 71.1668L84.2399 20.041Z" fill="white" fill-opacity="0.5"/>
<path d="M110.77 65.1114L136.817 29.5128L92.7766 26.5976L110.77 65.1114Z" fill="white" fill-opacity="0.5"/>
<path d="M263.788 100.157L314.278 111.455L307.452 77.3726L263.788 100.157Z" fill="white" fill-opacity="0.5"/>
<path d="M315.588 97.5733L311.414 76.4597L333.542 81.4479L315.588 97.5733Z" fill="white" fill-opacity="0.5"/>
<path d="M211.68 84.9275L254.394 108.784L262.605 74.8879L211.68 84.9275Z" fill="white" fill-opacity="0.5"/>
<path d="M493.982 65.9111L545.563 54.2942L570.08 68.7952L518.375 75.6792L494.037 89.9064L493.982 65.9111Z" fill="white" fill-opacity="0.5"/>
<path d="M358.162 69.3653L380.953 31.4281L366.45 10.2544L349.628 49.0299L327.807 65.558L358.162 69.3653Z" fill="white" fill-opacity="0.5"/>
<path d="M47.025 64.7032L69.8168 26.766L55.3136 5.59226L38.4913 44.3678L16.6703 60.8959L47.025 64.7032Z" fill="white" fill-opacity="0.5"/>
<path d="M448.701 100.991L358.46 103.247L326.069 71.5787L414.029 77.1019L461.195 61.7364L448.701 100.991Z" fill="white" fill-opacity="0.5"/>
<path d="M427.522 64.8867L460.177 37.8203L507.858 52.897L483.086 62.2283L483.294 79.4385L465.893 53.2066L427.522 64.8867Z" fill="white" fill-opacity="0.5"/>
<path d="M465.811 63.9492L458.251 99.9571L501.743 119.977L496.291 99.3404L513.604 89.2044L477.027 94.2598L465.811 63.9492Z" fill="white" fill-opacity="0.5"/>
<path d="M622.258 12.4793L636.048 65.7817L572.682 97.4576L579.352 66.4912L552.856 52.1368L607.684 58.1003L622.258 12.4793Z" fill="white" fill-opacity="0.5"/>
<path d="M394.787 20.041L363.796 67.7753L415.035 71.1668L394.787 20.041Z" fill="white" fill-opacity="0.5"/>
<path d="M421.313 65.1114L447.36 29.5128L403.32 26.5976L421.313 65.1114Z" fill="white" fill-opacity="0.5"/>
<path d="M591.272 94.4011L641.763 105.699L634.937 71.6163L591.272 94.4011Z" fill="white" fill-opacity="0.5"/>
<path d="M522.215 84.9275L564.929 108.784L573.14 74.8879L522.215 84.9275Z" fill="white" fill-opacity="0.5"/>
<path d="M217.256 111.088L193.107 102.477L210.078 91.1374L217.256 111.088Z" fill="white" fill-opacity="0.5"/>
<path d="M802.724 71.5038L854.305 59.887L878.822 74.388L827.117 81.272L802.779 95.4991L802.724 71.5038Z" fill="white" fill-opacity="0.5"/>
<path d="M757.447 106.583L667.207 108.84L634.815 77.1714L722.776 82.6946L769.942 67.3291L757.447 106.583Z" fill="white" fill-opacity="0.5"/>
<path d="M736.28 70.4799L768.934 43.4136L816.616 58.4903L791.844 67.8216L792.052 85.0317L774.651 58.7999L736.28 70.4799Z" fill="white" fill-opacity="0.5"/>
<path d="M774.554 69.5419L766.993 105.55L810.485 125.569L805.033 104.933L822.346 94.7971L785.77 99.8525L774.554 69.5419Z" fill="white" fill-opacity="0.5"/>
<path d="M931.004 18.0726L944.794 71.3749L881.428 103.051L888.099 72.0845L861.602 57.7301L916.43 63.6936L931.004 18.0726Z" fill="white" fill-opacity="0.5"/>
<path d="M703.541 25.6333L672.55 73.3676L723.789 76.7591L703.541 25.6333Z" fill="white" fill-opacity="0.5"/>
<path d="M730.063 70.7041L756.11 35.1055L712.07 32.1904L730.063 70.7041Z" fill="white" fill-opacity="0.5"/>
<path d="M883.089 105.751L933.579 117.048L926.753 82.9659L883.089 105.751Z" fill="white" fill-opacity="0.5"/>
<path d="M934.873 103.167L930.699 82.0534L952.828 87.0417L934.873 103.167Z" fill="white" fill-opacity="0.5"/>
<path d="M830.965 90.5217L873.679 114.378L881.89 80.4821L830.965 90.5217Z" fill="white" fill-opacity="0.5"/>
<path d="M977.455 74.958L1000.25 37.0209L985.743 15.8471L968.921 54.6226L947.1 71.1508L977.455 74.958Z" fill="white" fill-opacity="0.5"/>
<path d="M666.318 70.2974L689.11 32.3602L674.607 11.1865L657.784 49.962L635.963 66.4902L666.318 70.2974Z" fill="white" fill-opacity="0.5"/>
<path d="M1067.99 106.583L977.749 108.84L945.358 77.1714L1033.32 82.6946L1080.48 67.3291L1067.99 106.583Z" fill="white" fill-opacity="0.5"/>
<path d="M1014.08 25.6333L983.089 73.3676L1034.33 76.7591L1014.08 25.6333Z" fill="white" fill-opacity="0.5"/>
<path d="M237.287 162.613L289.541 158.457L266.974 128.795L237.287 162.613Z" fill="white" fill-opacity="0.5"/>
<path d="M836.545 116.68L812.396 108.07L829.368 96.7302L836.545 116.68Z" fill="white" fill-opacity="0.5"/>
</svg>
