<svg width="913" height="256" viewBox="0 0 913 256" fill="none" xmlns="http://www.w3.org/2000/svg">
<path d="M167.907 99.4272L219.488 87.8103L244.006 102.311L192.301 109.195L167.963 123.422L167.907 99.4272Z" fill="white" fill-opacity="0.5"/>
<path d="M122.631 134.507L32.3901 136.763L-0.00179209 105.095L87.9591 110.618L135.125 95.2525L122.631 134.507Z" fill="white" fill-opacity="0.5"/>
<path d="M101.456 98.4028L134.11 71.3365L181.792 86.4131L157.02 95.7445L157.228 112.955L139.827 86.7228L101.456 98.4028Z" fill="white" fill-opacity="0.5"/>
<path d="M139.737 97.4653L132.177 133.473L175.669 153.493L170.216 132.856L187.53 122.72L150.953 127.776L139.737 97.4653Z" fill="white" fill-opacity="0.5"/>
<path d="M296.192 45.9954L309.981 99.2978L246.616 130.974L253.286 100.007L226.789 85.6529L281.618 91.6164L296.192 45.9954Z" fill="white" fill-opacity="0.5"/>
<path d="M68.7126 53.5571L37.7221 101.291L88.9609 104.683L68.7126 53.5571Z" fill="white" fill-opacity="0.5"/>
<path d="M95.2391 98.6275L121.286 63.0289L77.2453 60.1138L95.2391 98.6275Z" fill="white" fill-opacity="0.5"/>
<path d="M248.261 133.674L298.751 144.971L291.925 110.889L248.261 133.674Z" fill="white" fill-opacity="0.5"/>
<path d="M300.057 131.09L295.882 109.976L318.011 114.965L300.057 131.09Z" fill="white" fill-opacity="0.5"/>
<path d="M196.145 118.444L238.859 142.3L247.069 108.404L196.145 118.444Z" fill="white" fill-opacity="0.5"/>
<path d="M478.446 99.4272L530.027 87.8103L554.545 102.311L502.84 109.195L478.502 123.422L478.446 99.4272Z" fill="white" fill-opacity="0.5"/>
<path d="M342.634 102.881L365.426 64.9442L350.923 43.7705L334.101 82.546L312.28 99.0742L342.634 102.881Z" fill="white" fill-opacity="0.5"/>
<path d="M433.17 134.507L342.929 136.763L310.537 105.095L398.498 110.618L445.664 95.2525L433.17 134.507Z" fill="white" fill-opacity="0.5"/>
<path d="M411.995 98.4028L444.649 71.3365L492.331 86.4131L467.559 95.7445L467.767 112.955L450.366 86.7228L411.995 98.4028Z" fill="white" fill-opacity="0.5"/>
<path d="M450.28 97.4653L442.72 133.473L486.212 153.493L480.759 132.856L498.073 122.72L461.496 127.776L450.28 97.4653Z" fill="white" fill-opacity="0.5"/>
<path d="M606.731 45.9954L620.52 99.2978L557.155 130.974L563.825 100.007L537.328 85.6529L592.157 91.6164L606.731 45.9954Z" fill="white" fill-opacity="0.5"/>
<path d="M379.259 53.5571L348.269 101.291L399.508 104.683L379.259 53.5571Z" fill="white" fill-opacity="0.5"/>
<path d="M405.778 98.6275L431.825 63.0289L387.784 60.1138L405.778 98.6275Z" fill="white" fill-opacity="0.5"/>
<path d="M575.745 127.917L626.235 139.215L619.409 105.132L575.745 127.917Z" fill="white" fill-opacity="0.5"/>
<path d="M506.68 118.444L549.394 142.3L557.605 108.404L506.68 118.444Z" fill="white" fill-opacity="0.5"/>
<path d="M201.729 144.604L177.579 135.994L194.551 124.654L201.729 144.604Z" fill="white" fill-opacity="0.5"/>
<path d="M860.341 65.9106L911.922 54.2937L936.44 68.7947L884.734 75.6787L860.397 89.9059L860.341 65.9106Z" fill="white" fill-opacity="0.5"/>
<path d="M815.06 100.99L724.82 103.246L692.428 71.5782L780.389 77.1014L827.555 61.7359L815.06 100.99Z" fill="white" fill-opacity="0.5"/>
<path d="M793.889 64.8862L826.544 37.8199L874.225 52.8965L849.453 62.2279L849.662 79.438L832.26 53.2062L793.889 64.8862Z" fill="white" fill-opacity="0.5"/>
<path d="M832.171 63.9487L824.61 99.9566L868.102 119.976L862.65 99.3399L879.964 89.2039L843.387 94.2593L832.171 63.9487Z" fill="white" fill-opacity="0.5"/>
<path d="M988.617 12.4793L1002.41 65.7817L939.042 97.4576L945.712 66.4912L919.215 52.1368L974.043 58.1003L988.617 12.4793Z" fill="white" fill-opacity="0.5"/>
<path d="M761.15 20.0401L730.16 67.7743L781.398 71.1659L761.15 20.0401Z" fill="white" fill-opacity="0.5"/>
<path d="M787.68 65.1104L813.727 29.5118L769.687 26.5967L787.68 65.1104Z" fill="white" fill-opacity="0.5"/>
<path d="M888.578 84.9285L931.293 108.785L939.503 74.8889L888.578 84.9285Z" fill="white" fill-opacity="0.5"/>
<path d="M723.935 64.7041L746.727 26.7669L732.224 5.59324L715.401 44.3687L693.58 60.8969L723.935 64.7041Z" fill="white" fill-opacity="0.5"/>
<path d="M294.904 157.02L347.158 152.863L324.591 123.202L294.904 157.02Z" fill="white" fill-opacity="0.5"/>
<path d="M894.159 111.088L870.009 102.477L886.981 91.1374L894.159 111.088Z" fill="white" fill-opacity="0.5"/>
</svg>
