<svg width="866" height="256" viewBox="0 0 866 256" fill="none" xmlns="http://www.w3.org/2000/svg">
<path d="M576.72 65.9106L628.301 54.2937L652.819 68.7947L601.113 75.6787L576.776 89.9059L576.72 65.9106Z" fill="white" fill-opacity="0.5"/>
<path d="M531.439 100.99L441.199 103.246L408.807 71.5782L496.768 77.1014L543.934 61.7359L531.439 100.99Z" fill="white" fill-opacity="0.5"/>
<path d="M510.268 64.8862L542.923 37.8199L590.604 52.8965L565.832 62.2279L566.041 79.438L548.639 53.2062L510.268 64.8862Z" fill="white" fill-opacity="0.5"/>
<path d="M548.55 63.9487L540.989 99.9566L584.481 119.976L579.029 99.3399L596.342 89.2039L559.766 94.2593L548.55 63.9487Z" fill="white" fill-opacity="0.5"/>
<path d="M704.996 12.4793L718.786 65.7817L655.421 97.4576L662.091 66.4912L635.594 52.1368L690.422 58.1003L704.996 12.4793Z" fill="white" fill-opacity="0.5"/>
<path d="M477.529 20.0401L446.538 67.7743L497.777 71.1659L477.529 20.0401Z" fill="white" fill-opacity="0.5"/>
<path d="M504.059 65.1104L530.106 29.5118L486.066 26.5967L504.059 65.1104Z" fill="white" fill-opacity="0.5"/>
<path d="M657.081 100.157L707.571 111.455L700.745 77.3721L657.081 100.157Z" fill="white" fill-opacity="0.5"/>
<path d="M708.865 97.5742L704.691 76.4606L726.82 81.4489L708.865 97.5742Z" fill="white" fill-opacity="0.5"/>
<path d="M604.957 84.9285L647.671 108.785L655.882 74.8889L604.957 84.9285Z" fill="white" fill-opacity="0.5"/>
<path d="M751.447 69.3653L774.239 31.4281L759.735 10.2544L742.913 49.0299L721.092 65.558L751.447 69.3653Z" fill="white" fill-opacity="0.5"/>
<path d="M440.314 64.7041L463.106 26.7669L448.603 5.59324L431.78 44.3687L409.959 60.8969L440.314 64.7041Z" fill="white" fill-opacity="0.5"/>
<path d="M841.982 100.99L751.742 103.246L719.35 71.5782L807.311 77.1014L854.477 61.7359L841.982 100.99Z" fill="white" fill-opacity="0.5"/>
<path d="M905.722 188.86L835.148 232.811L784.916 222.564L859.628 185.911L885.639 151.573L905.722 188.86Z" fill="white" fill-opacity="0.5"/>
<path d="M820.811 64.8862L853.466 37.8199L901.147 52.8965L876.375 62.2279L876.584 79.438L859.182 53.2062L820.811 64.8862Z" fill="white" fill-opacity="0.5"/>
<path d="M859.093 63.9487L851.532 99.9566L895.024 119.976L889.572 99.3399L906.885 89.2039L870.309 94.2593L859.093 63.9487Z" fill="white" fill-opacity="0.5"/>
<path d="M788.068 20.0401L757.078 67.7743L808.316 71.1659L788.068 20.0401Z" fill="white" fill-opacity="0.5"/>
<path d="M814.602 65.1104L840.649 29.5118L796.609 26.5967L814.602 65.1104Z" fill="white" fill-opacity="0.5"/>
<path d="M815.548 154.996L841.595 119.397L797.554 116.482L815.548 154.996Z" fill="white" fill-opacity="0.5"/>
<path d="M11.2832 157.02L63.5367 152.863L40.9703 123.202L11.2832 157.02Z" fill="white" fill-opacity="0.5"/>
<path d="M610.538 111.088L586.388 102.477L603.36 91.1374L610.538 111.088Z" fill="white" fill-opacity="0.5"/>
</svg>
