<svg width="527" height="178" viewBox="0 0 527 178" fill="none" xmlns="http://www.w3.org/2000/svg">
<path d="M46.7238 71.5043L98.3047 59.8875L122.822 74.3885L71.1173 81.2725L46.7794 95.4996L46.7238 71.5043Z" fill="white" fill-opacity="0.5"/>
<path d="M1.44699 106.583L-88.7935 108.84L-121.185 77.1714L-33.2245 82.6946L13.9416 67.3291L1.44699 106.583Z" fill="white" fill-opacity="0.5"/>
<path d="M-19.7242 70.4799L12.9305 43.4136L60.6119 58.4903L35.8399 67.8216L36.0484 85.0317L18.6469 58.7999L-19.7242 70.4799Z" fill="white" fill-opacity="0.5"/>
<path d="M18.5537 69.5424L10.9932 105.55L54.4851 125.57L49.0329 104.934L66.3464 94.7976L29.7695 99.853L18.5537 69.5424Z" fill="white" fill-opacity="0.5"/>
<path d="M175.004 18.0726L188.794 71.3749L125.428 103.051L132.099 72.0845L105.602 57.7301L160.43 63.6936L175.004 18.0726Z" fill="white" fill-opacity="0.5"/>
<path d="M-25.9367 70.7046L0.1102 35.106L-43.9305 32.1909L-25.9367 70.7046Z" fill="white" fill-opacity="0.5"/>
<path d="M127.085 105.751L177.575 117.049L170.749 82.9664L127.085 105.751Z" fill="white" fill-opacity="0.5"/>
<path d="M178.873 103.168L174.699 82.0544L196.828 87.0427L178.873 103.168Z" fill="white" fill-opacity="0.5"/>
<path d="M74.9611 90.5217L117.675 114.378L125.886 80.4821L74.9611 90.5217Z" fill="white" fill-opacity="0.5"/>
<path d="M357.267 71.5043L408.848 59.8875L433.365 74.3885L381.66 81.2725L357.322 95.4996L357.267 71.5043Z" fill="white" fill-opacity="0.5"/>
<path d="M221.455 74.9585L244.246 37.0213L229.743 15.8476L212.921 54.6231L191.1 71.1513L221.455 74.9585Z" fill="white" fill-opacity="0.5"/>
<path d="M311.99 106.583L221.749 108.84L189.358 77.1714L277.319 82.6946L324.485 67.3291L311.99 106.583Z" fill="white" fill-opacity="0.5"/>
<path d="M290.815 70.4799L323.47 43.4136L371.151 58.4903L346.379 67.8216L346.587 85.0317L329.186 58.7999L290.815 70.4799Z" fill="white" fill-opacity="0.5"/>
<path d="M329.101 69.5424L321.54 105.55L365.032 125.57L359.58 104.934L376.893 94.7976L340.316 99.853L329.101 69.5424Z" fill="white" fill-opacity="0.5"/>
<path d="M485.543 18.0726L499.333 71.3749L435.967 103.051L442.638 72.0845L416.141 57.7301L470.969 63.6936L485.543 18.0726Z" fill="white" fill-opacity="0.5"/>
<path d="M258.076 25.6338L227.085 73.368L278.324 76.7596L258.076 25.6338Z" fill="white" fill-opacity="0.5"/>
<path d="M284.606 70.7046L310.653 35.106L266.612 32.1909L284.606 70.7046Z" fill="white" fill-opacity="0.5"/>
<path d="M285.555 160.589L311.602 124.991L267.562 122.076L285.555 160.589Z" fill="white" fill-opacity="0.5"/>
<path d="M454.565 99.9949L505.056 111.293L498.229 77.21L454.565 99.9949Z" fill="white" fill-opacity="0.5"/>
<path d="M385.508 90.5217L428.222 114.378L436.433 80.4821L385.508 90.5217Z" fill="white" fill-opacity="0.5"/>
<path d="M80.5454 116.681L56.3959 108.071L73.3675 96.7311L80.5454 116.681Z" fill="white" fill-opacity="0.5"/>
</svg>
