<svg width="556" height="203" viewBox="0 0 556 203" fill="none" xmlns="http://www.w3.org/2000/svg">
<path d="M58.7199 96.7661L110.301 85.1492L134.819 99.6502L83.1133 106.534L58.7755 120.761L58.7199 96.7661Z" fill="white" fill-opacity="0.5"/>
<path d="M13.4392 131.845L-76.8013 134.101L-109.193 102.433L-21.2323 107.956L25.9338 92.5908L13.4392 131.845Z" fill="white" fill-opacity="0.5"/>
<path d="M-7.732 95.7417L24.9227 68.6753L72.6041 83.752L47.8321 93.0833L48.0406 110.293L30.6391 84.0616L-7.732 95.7417Z" fill="white" fill-opacity="0.5"/>
<path d="M30.542 94.8046L22.9815 130.813L66.4734 150.832L61.0212 130.196L78.3346 120.06L41.7578 125.115L30.542 94.8046Z" fill="white" fill-opacity="0.5"/>
<path d="M186.996 43.3348L200.786 96.6372L137.421 128.313L144.091 97.3467L117.594 82.9923L172.422 88.9558L186.996 43.3348Z" fill="white" fill-opacity="0.5"/>
<path d="M-13.9406 95.9663L12.1063 60.3677L-31.9344 57.4526L-13.9406 95.9663Z" fill="white" fill-opacity="0.5"/>
<path d="M139.081 131.013L189.571 142.311L182.745 108.228L139.081 131.013Z" fill="white" fill-opacity="0.5"/>
<path d="M190.865 128.429L186.691 107.316L208.82 112.304L190.865 128.429Z" fill="white" fill-opacity="0.5"/>
<path d="M86.9572 115.784L129.671 139.64L137.882 105.744L86.9572 115.784Z" fill="white" fill-opacity="0.5"/>
<path d="M369.263 96.7661L420.844 85.1492L445.362 99.6502L393.656 106.534L369.318 120.761L369.263 96.7661Z" fill="white" fill-opacity="0.5"/>
<path d="M233.447 100.22L256.239 62.2831L241.735 41.1094L224.913 79.8849L203.092 96.413L233.447 100.22Z" fill="white" fill-opacity="0.5"/>
<path d="M323.982 131.845L233.742 134.101L201.35 102.433L289.311 107.956L336.477 92.5909L323.982 131.845Z" fill="white" fill-opacity="0.5"/>
<path d="M302.803 95.7417L335.458 68.6753L383.139 83.752L358.367 93.0833L358.576 110.293L341.174 84.0616L302.803 95.7417Z" fill="white" fill-opacity="0.5"/>
<path d="M341.093 94.8046L333.532 130.813L377.024 150.832L371.572 130.196L388.885 120.06L352.309 125.115L341.093 94.8046Z" fill="white" fill-opacity="0.5"/>
<path d="M446.984 138.64L456.997 84.5005L527.811 82.5501L508.687 107.802L526.642 132.004L479.462 103.442L446.984 138.64Z" fill="white" fill-opacity="0.5"/>
<path d="M270.064 50.8955L239.074 98.6298L290.312 102.021L270.064 50.8955Z" fill="white" fill-opacity="0.5"/>
<path d="M296.598 95.9663L322.645 60.3677L278.605 57.4526L296.598 95.9663Z" fill="white" fill-opacity="0.5"/>
<path d="M297.548 185.851L323.595 150.253L279.554 147.337L297.548 185.851Z" fill="white" fill-opacity="0.5"/>
<path d="M397.504 115.784L440.218 139.64L448.429 105.744L397.504 115.784Z" fill="white" fill-opacity="0.5"/>
<path d="M92.5376 141.943L68.388 133.332L85.3597 121.992L92.5376 141.943Z" fill="white" fill-opacity="0.5"/>
</svg>
