<svg width="725" height="261" viewBox="0 0 725 261" fill="none" xmlns="http://www.w3.org/2000/svg">
<path d="M94.6847 65.9116L146.266 54.2947L170.783 68.7957L119.078 75.6797L94.7404 89.9068L94.6847 65.9116Z" fill="white" fill-opacity="0.5"/>
<path d="M28.2368 64.8862L60.8915 37.8199L108.573 52.8965L83.8009 62.2279L84.0093 79.438L66.6078 53.2062L28.2368 64.8862Z" fill="white" fill-opacity="0.5"/>
<path d="M66.5185 63.9492L58.958 99.9571L102.45 119.977L96.9977 99.3404L114.311 89.2044L77.7344 94.2598L66.5185 63.9492Z" fill="white" fill-opacity="0.5"/>
<path d="M222.965 12.4793L236.755 65.7817L173.389 97.4576L180.059 66.4912L153.563 52.1368L208.391 58.1003L222.965 12.4793Z" fill="white" fill-opacity="0.5"/>
<path d="M22.0203 65.1119L48.0672 29.5132L4.02655 26.5981L22.0203 65.1119Z" fill="white" fill-opacity="0.5"/>
<path d="M175.038 100.158L225.528 111.456L218.702 77.3731L175.038 100.158Z" fill="white" fill-opacity="0.5"/>
<path d="M226.83 97.5737L222.656 76.4602L244.785 81.4484L226.83 97.5737Z" fill="white" fill-opacity="0.5"/>
<path d="M122.922 84.928L165.636 108.784L173.847 74.8884L122.922 84.928Z" fill="white" fill-opacity="0.5"/>
<path d="M405.224 65.9116L456.805 54.2947L481.322 68.7957L429.617 75.6797L405.279 89.9068L405.224 65.9116Z" fill="white" fill-opacity="0.5"/>
<path d="M269.412 69.3653L292.203 31.4281L277.7 10.2544L260.878 49.0299L239.057 65.558L269.412 69.3653Z" fill="white" fill-opacity="0.5"/>
<path d="M359.947 100.991L269.707 103.247L237.315 71.5787L325.276 77.1019L372.442 61.7364L359.947 100.991Z" fill="white" fill-opacity="0.5"/>
<path d="M338.776 64.8862L371.431 37.8199L419.112 52.8965L394.34 62.2279L394.548 79.438L377.147 53.2062L338.776 64.8862Z" fill="white" fill-opacity="0.5"/>
<path d="M377.061 63.9492L369.501 99.9571L412.993 119.977L407.541 99.3404L424.854 89.2044L388.277 94.2598L377.061 63.9492Z" fill="white" fill-opacity="0.5"/>
<path d="M533.508 12.4793L547.298 65.7817L483.932 97.4576L490.602 66.4912L464.106 52.1368L518.934 58.1003L533.508 12.4793Z" fill="white" fill-opacity="0.5"/>
<path d="M306.037 20.041L275.046 67.7753L326.285 71.1668L306.037 20.041Z" fill="white" fill-opacity="0.5"/>
<path d="M332.559 65.1119L358.606 29.5132L314.566 26.5981L332.559 65.1119Z" fill="white" fill-opacity="0.5"/>
<path d="M502.522 94.4011L553.013 105.699L546.187 71.6163L502.522 94.4011Z" fill="white" fill-opacity="0.5"/>
<path d="M433.461 84.928L476.175 108.784L484.386 74.8884L433.461 84.928Z" fill="white" fill-opacity="0.5"/>
<path d="M128.51 111.088L104.361 102.478L121.332 91.1379L128.51 111.088Z" fill="white" fill-opacity="0.5"/>
<path d="M713.978 71.5043L765.559 59.8875L790.076 74.3885L738.371 81.2725L714.033 95.4996L713.978 71.5043Z" fill="white" fill-opacity="0.5"/>
<path d="M668.697 106.583L578.457 108.839L546.065 77.171L634.026 82.6941L681.192 67.3286L668.697 106.583Z" fill="white" fill-opacity="0.5"/>
<path d="M647.53 70.4799L680.184 43.4136L727.866 58.4903L703.094 67.8216L703.302 85.0317L685.901 58.7999L647.53 70.4799Z" fill="white" fill-opacity="0.5"/>
<path d="M685.804 69.5419L678.243 105.55L721.735 125.569L716.283 104.933L733.596 94.7971L697.02 99.8525L685.804 69.5419Z" fill="white" fill-opacity="0.5"/>
<path d="M614.783 25.6333L583.792 73.3676L635.031 76.7591L614.783 25.6333Z" fill="white" fill-opacity="0.5"/>
<path d="M641.313 70.7046L667.36 35.106L623.32 32.1909L641.313 70.7046Z" fill="white" fill-opacity="0.5"/>
<path d="M577.568 70.2969L600.36 32.3597L585.857 11.186L569.034 49.9615L547.213 66.4897L577.568 70.2969Z" fill="white" fill-opacity="0.5"/>
<path d="M148.541 162.613L200.794 158.457L178.228 128.795L148.541 162.613Z" fill="white" fill-opacity="0.5"/>
<path d="M747.795 116.681L723.646 108.071L740.618 96.7306L747.795 116.681Z" fill="white" fill-opacity="0.5"/>
</svg>
