<svg width="900" height="261" viewBox="0 0 900 261" fill="none" xmlns="http://www.w3.org/2000/svg">
<path d="M130.185 65.912L181.766 54.2952L206.283 68.7962L154.578 75.6802L130.24 89.9073L130.185 65.912Z" fill="white" fill-opacity="0.5"/>
<path d="M63.7368 64.8867L96.3915 37.8203L144.073 52.897L119.301 62.2283L119.509 79.4385L102.108 53.2066L63.7368 64.8867Z" fill="white" fill-opacity="0.5"/>
<path d="M102.019 63.9496L94.458 99.9576L137.95 119.977L132.498 99.3409L149.811 89.2048L113.234 94.2602L102.019 63.9496Z" fill="white" fill-opacity="0.5"/>
<path d="M258.465 12.4793L272.255 65.7817L208.889 97.4576L215.559 66.4912L189.063 52.1368L243.891 58.1003L258.465 12.4793Z" fill="white" fill-opacity="0.5"/>
<path d="M30.9939 20.0415L0.00331633 67.7758L51.2422 71.1673L30.9939 20.0415Z" fill="white" fill-opacity="0.5"/>
<path d="M57.5242 65.1123L83.5711 29.5137L39.5305 26.5986L57.5242 65.1123Z" fill="white" fill-opacity="0.5"/>
<path d="M210.546 100.158L261.036 111.456L254.21 77.3736L210.546 100.158Z" fill="white" fill-opacity="0.5"/>
<path d="M262.342 97.5737L258.167 76.4602L280.296 81.4484L262.342 97.5737Z" fill="white" fill-opacity="0.5"/>
<path d="M158.426 84.928L201.14 108.784L209.351 74.8884L158.426 84.928Z" fill="white" fill-opacity="0.5"/>
<path d="M440.724 65.912L492.305 54.2952L516.822 68.7962L465.117 75.6802L440.779 89.9073L440.724 65.912Z" fill="white" fill-opacity="0.5"/>
<path d="M304.916 69.3658L327.707 31.4286L313.204 10.2549L296.382 49.0304L274.561 65.5585L304.916 69.3658Z" fill="white" fill-opacity="0.5"/>
<path d="M395.451 100.991L305.21 103.247L272.819 71.5787L360.779 77.1019L407.945 61.7364L395.451 100.991Z" fill="white" fill-opacity="0.5"/>
<path d="M374.28 64.8867L406.934 37.8203L454.616 52.897L429.844 62.2283L430.052 79.4385L412.651 53.2066L374.28 64.8867Z" fill="white" fill-opacity="0.5"/>
<path d="M412.561 63.9496L405.001 99.9576L448.493 119.977L443.041 99.3409L460.354 89.2048L423.777 94.2602L412.561 63.9496Z" fill="white" fill-opacity="0.5"/>
<path d="M569.008 12.4793L582.798 65.7817L519.432 97.4576L526.102 66.4912L499.606 52.1368L554.434 58.1003L569.008 12.4793Z" fill="white" fill-opacity="0.5"/>
<path d="M341.541 20.0415L310.55 67.7758L361.789 71.1673L341.541 20.0415Z" fill="white" fill-opacity="0.5"/>
<path d="M368.063 65.1123L394.11 29.5137L350.07 26.5986L368.063 65.1123Z" fill="white" fill-opacity="0.5"/>
<path d="M538.026 94.4011L588.517 105.699L581.69 71.6163L538.026 94.4011Z" fill="white" fill-opacity="0.5"/>
<path d="M468.965 84.928L511.679 108.784L519.89 74.8884L468.965 84.928Z" fill="white" fill-opacity="0.5"/>
<path d="M164.01 111.088L139.861 102.478L156.832 91.1379L164.01 111.088Z" fill="white" fill-opacity="0.5"/>
<path d="M749.482 71.5048L801.063 59.8879L825.58 74.389L773.875 81.273L749.537 95.5001L749.482 71.5048Z" fill="white" fill-opacity="0.5"/>
<path d="M704.201 106.583L613.96 108.84L581.569 77.1714L669.529 82.6946L716.695 67.3291L704.201 106.583Z" fill="white" fill-opacity="0.5"/>
<path d="M683.034 70.4799L715.688 43.4136L763.37 58.4903L738.598 67.8216L738.806 85.0317L721.405 58.7999L683.034 70.4799Z" fill="white" fill-opacity="0.5"/>
<path d="M721.304 69.5429L713.743 105.551L757.235 125.57L751.783 104.934L769.096 94.7981L732.52 99.8535L721.304 69.5429Z" fill="white" fill-opacity="0.5"/>
<path d="M877.758 18.0726L891.548 71.3749L828.182 103.051L834.852 72.0845L808.356 57.7301L863.184 63.6936L877.758 18.0726Z" fill="white" fill-opacity="0.5"/>
<path d="M650.291 25.6338L619.3 73.368L670.539 76.7596L650.291 25.6338Z" fill="white" fill-opacity="0.5"/>
<path d="M676.813 70.7046L702.86 35.106L658.82 32.1909L676.813 70.7046Z" fill="white" fill-opacity="0.5"/>
<path d="M829.839 105.752L880.329 117.049L873.503 82.9669L829.839 105.752Z" fill="white" fill-opacity="0.5"/>
<path d="M881.627 103.167L877.453 82.0539L899.582 87.0422L881.627 103.167Z" fill="white" fill-opacity="0.5"/>
<path d="M777.715 90.5222L820.429 114.379L828.64 80.4826L777.715 90.5222Z" fill="white" fill-opacity="0.5"/>
<path d="M924.209 74.9585L947 37.0213L932.497 15.8476L915.675 54.6231L893.854 71.1513L924.209 74.9585Z" fill="white" fill-opacity="0.5"/>
<path d="M613.068 70.2974L635.86 32.3602L621.357 11.1865L604.534 49.962L582.713 66.4902L613.068 70.2974Z" fill="white" fill-opacity="0.5"/>
<path d="M1014.74 106.583L924.503 108.84L892.111 77.1714L980.072 82.6946L1027.24 67.3291L1014.74 106.583Z" fill="white" fill-opacity="0.5"/>
<path d="M184.045 162.613L236.298 158.457L213.732 128.795L184.045 162.613Z" fill="white" fill-opacity="0.5"/>
<path d="M783.299 116.681L759.15 108.071L776.121 96.7311L783.299 116.681Z" fill="white" fill-opacity="0.5"/>
</svg>
