<svg width="413" height="261" viewBox="0 0 413 261" fill="none" xmlns="http://www.w3.org/2000/svg">
<path d="M183.439 65.912L235.02 54.2952L259.537 68.7962L207.832 75.6802L183.494 89.9073L183.439 65.912Z" fill="white" fill-opacity="0.5"/>
<path d="M138.158 100.991L47.9175 103.247L15.5256 71.5792L103.486 77.1023L150.653 61.7368L138.158 100.991Z" fill="white" fill-opacity="0.5"/>
<path d="M116.987 64.8862L149.641 37.8199L197.323 52.8965L172.551 62.2279L172.759 79.438L155.358 53.2062L116.987 64.8862Z" fill="white" fill-opacity="0.5"/>
<path d="M155.265 63.9492L147.704 99.9571L191.196 119.977L185.744 99.3404L203.057 89.2044L166.48 94.2598L155.265 63.9492Z" fill="white" fill-opacity="0.5"/>
<path d="M311.715 12.4793L325.505 65.7817L262.139 97.4576L268.809 66.4912L242.313 52.1368L297.141 58.1003L311.715 12.4793Z" fill="white" fill-opacity="0.5"/>
<path d="M84.2399 20.041L53.2494 67.7753L104.488 71.1668L84.2399 20.041Z" fill="white" fill-opacity="0.5"/>
<path d="M110.778 65.1119L136.825 29.5132L92.7844 26.5981L110.778 65.1119Z" fill="white" fill-opacity="0.5"/>
<path d="M263.792 100.158L314.282 111.456L307.456 77.3731L263.792 100.158Z" fill="white" fill-opacity="0.5"/>
<path d="M315.588 97.5733L311.414 76.4597L333.542 81.4479L315.588 97.5733Z" fill="white" fill-opacity="0.5"/>
<path d="M211.676 84.9285L254.39 108.785L262.601 74.8889L211.676 84.9285Z" fill="white" fill-opacity="0.5"/>
<path d="M358.166 69.3658L380.957 31.4286L366.454 10.2549L349.632 49.0304L327.811 65.5585L358.166 69.3658Z" fill="white" fill-opacity="0.5"/>
<path d="M47.025 64.7036L69.8168 26.7665L55.3136 5.59275L38.4913 44.3683L16.6703 60.8964L47.025 64.7036Z" fill="white" fill-opacity="0.5"/>
<path d="M448.701 100.991L358.46 103.247L326.069 71.5792L414.029 77.1024L461.195 61.7368L448.701 100.991Z" fill="white" fill-opacity="0.5"/>
<path d="M394.791 20.041L363.8 67.7753L415.039 71.1668L394.791 20.041Z" fill="white" fill-opacity="0.5"/>
<path d="M421.317 65.1119L447.364 29.5132L403.323 26.5981L421.317 65.1119Z" fill="white" fill-opacity="0.5"/>
<path d="M217.256 111.088L193.107 102.477L210.078 91.1374L217.256 111.088Z" fill="white" fill-opacity="0.5"/>
<path d="M237.287 162.613L289.541 158.457L266.974 128.795L237.287 162.613Z" fill="white" fill-opacity="0.5"/>
</svg>
