<svg width="64" height="73" viewBox="0 0 64 73" fill="none" xmlns="http://www.w3.org/2000/svg">
<g clip-path="url(#clip0_525_2671)">
<path d="M19.0967 19.1942L26.5104 7.39968L40.9608 28.4889L59.1407 36.1759L50.3535 42.1969L46.1943 49.6954L39.5161 54.2713L23.6667 71.846L10.7982 63.6187L0.513598 44.8402L6.30004 35.1937L13.8244 22.8068L19.0967 19.1942Z" fill="url(#paint0_linear_525_2671)"/>
<path d="M59.1407 36.1759L40.9608 28.4889L26.5104 7.39968L31.7436 0.714802L41.4421 1.3005L53.3864 11.1941L62.0566 23.8477L63.3585 33.2858L59.1407 36.1759Z" fill="url(#paint1_linear_525_2671)"/>
<path d="M26.5104 7.39968L19.0967 19.1942L13.8244 22.8068L6.30004 35.1937L0.513598 44.8402L10.7982 63.6187L23.6667 71.846L39.5161 54.2713L46.1943 49.6954L50.3535 42.1969L59.1407 36.1759M26.5104 7.39968L40.9608 28.4889L59.1407 36.1759M26.5104 7.39968L31.7436 0.714802L41.4421 1.3005L53.3864 11.1941L62.0566 23.8477L63.3585 33.2858L59.1407 36.1759" stroke="white"/>
<path d="M14.7512 55.4935L15.7636 60.6719M15.7636 60.6719L21.7605 64.312M15.7636 60.6719L18.4849 58.3863M18.4849 58.3863L17.0923 50.203M18.4849 58.3863L24.633 58.1808M33.9515 52.3827L29.636 40.4565L39.3117 45.3453M42.6286 44.1371L39.9119 38.1927M49.945 37.0343L43.1452 34.4818M39.9119 38.1927L37.1953 32.2483L43.1452 34.4818M39.9119 38.1927L43.1452 34.4818M25.0912 55.1478L30.1215 54.9797L30.5064 49.7546L25.5815 44.707L20.3084 45.9806L20.5099 52.009L25.0912 55.1478Z" stroke="#E7E7E7" stroke-width="2"/>
</g>
<defs>
<linearGradient id="paint0_linear_525_2671" x1="45.4589" y1="56.9139" x2="14.8722" y2="12.2751" gradientUnits="userSpaceOnUse">
<stop stop-color="#B50000"/>
<stop offset="1" stop-color="#700404"/>
</linearGradient>
<linearGradient id="paint1_linear_525_2671" x1="56.8785" y1="16.2907" x2="3.45254" y2="52.8984" gradientUnits="userSpaceOnUse">
<stop offset="0.293269" stop-color="#940808"/>
<stop offset="1" stop-color="#BA0C0C"/>
</linearGradient>
<clipPath id="clip0_525_2671">
<rect width="64" height="73" fill="white"/>
</clipPath>
</defs>
</svg>
