<svg width="223" height="269" viewBox="0 0 223 269" fill="none" xmlns="http://www.w3.org/2000/svg">
<g clip-path="url(#clip0_447_568)">
<path d="M197.488 113.429L214.012 62.063L141.755 44.9466L67.3761 14.8921L51.9688 62.7874L46.5814 64.8842L47.9495 75.2818L25.62 144.695L21.349 143.321L24.0569 149.554L1.72742 218.968L11.3722 230.496L130.247 268.737L149.48 262.668L169.129 201.584L177.811 199.015L172.256 191.866L194.585 122.453L202.82 121.272L197.488 113.429Z" fill="url(#paint0_linear_447_568)"/>
<path d="M214.012 62.063L223.81 56.0233L198.867 33.4463L103.483 2.7623L67.3478 0.32962L67.3761 14.8921L141.755 44.9466L214.012 62.063Z" fill="url(#paint1_linear_447_568)"/>
<path d="M214.012 62.063L223.81 56.0233L198.867 33.4463L103.483 2.7623L67.3478 0.32962L67.3761 14.8921M214.012 62.063L197.488 113.429L202.82 121.272L194.585 122.453L172.256 191.866L177.811 199.015L169.129 201.584L149.48 262.668L130.247 268.737L11.3722 230.496L1.72742 218.968L24.0569 149.554L21.349 143.321L25.62 144.695L47.9495 75.2818L46.5814 64.8842L51.9688 62.7874L67.3761 14.8921M214.012 62.063L141.755 44.9466L67.3761 14.8921" stroke="white"/>
<path d="M150 152.5L180.5 161H181.5L172 192L177 198.5L168.5 201L148.5 262L130.5 268.5L11.5 230L2 218.5L42.5 95.5L45 109L53.5 123.5L70.5 119.5L101.5 123.5V146L127 164.5L150 152.5Z" fill="url(#paint2_linear_447_568)" stroke="white"/>
<path d="M90 88.5L94 104.5L98.5 103L97 88.5L109.5 78L106.5 64L103.5 75.5L90 88.5Z" fill="#36AA48"/>
<path d="M108 98.5V109.5L114.5 112.5V107H122.5L121 98.5V86L116.5 96L108 98.5Z" fill="#36AA48"/>
<path d="M130 112.5L124.5 128L133.5 120.5L142 108L141 98.5L145.5 86L141 84.5V73L133.5 84.5L137.5 107L130 112.5Z" fill="#36AA48"/>
<path d="M90 88.5L94 104.5L98.5 103L97 88.5L109.5 78L106.5 64L103.5 75.5L90 88.5Z" stroke="white"/>
<path d="M108 98.5V109.5L114.5 112.5V107H122.5L121 98.5V86L116.5 96L108 98.5Z" stroke="white"/>
<path d="M130 112.5L124.5 128L133.5 120.5L142 108L141 98.5L145.5 86L141 84.5V73L133.5 84.5L137.5 107L130 112.5Z" stroke="white"/>
</g>
<defs>
<linearGradient id="paint0_linear_447_568" x1="207.126" y1="134.468" x2="-20" y2="208.5" gradientUnits="userSpaceOnUse">
<stop offset="0.432692" stop-color="#7A7A7A"/>
<stop offset="1" stop-color="#222222"/>
</linearGradient>
<linearGradient id="paint1_linear_447_568" x1="207.126" y1="134.468" x2="-20" y2="208.5" gradientUnits="userSpaceOnUse">
<stop offset="0.432692" stop-color="#7A7A7A"/>
<stop offset="1" stop-color="#222222"/>
</linearGradient>
<linearGradient id="paint2_linear_447_568" x1="91.75" y1="95.5" x2="55.5" y2="269" gradientUnits="userSpaceOnUse">
<stop stop-color="#41D056"/>
<stop offset="1" stop-color="#1D4D24"/>
</linearGradient>
<clipPath id="clip0_447_568">
<rect width="223" height="269" fill="white"/>
</clipPath>
</defs>
</svg>
