<svg width="223" height="349" viewBox="0 0 223 349" fill="none" xmlns="http://www.w3.org/2000/svg">
<g clip-path="url(#clip0_457_618)">
<path d="M89.4779 147.254L162.887 122.527L188.39 155.412L219.991 194.856L222.736 262.198L197.637 311.599L163.793 339.589L169.094 349.11L33.3642 337.914L0.131536 284.711L22.9078 236.632L15.3145 221.372L33.7068 179.491L89.4779 147.254Z" fill="url(#paint0_linear_457_618)"/>
<path d="M136.458 0.246439L171.775 14.7658L185.331 31.5273L178.814 50.1654L181.858 73.6292L155.381 86.0794L157.905 102.435L111.894 110.247L85.5761 93.9464L65.2442 92.2694L38.2112 77.9286L50.5778 68.8562L67.5593 64.2014L85.3797 56.0835L80.6046 33.4862L103.755 27.8263L136.458 0.246439Z" fill="url(#paint1_linear_457_618)"/>
<path d="M113.98 118.493L111.894 110.247L157.905 102.435L160.582 110.226L113.98 118.493Z" fill="url(#paint2_linear_457_618)"/>
<path d="M113.98 118.493L160.582 110.226L163.3 117.515L107.496 131L113.98 118.493Z" fill="url(#paint3_linear_457_618)"/>
<path d="M107.496 131L163.3 117.515L162.887 122.527L89.4779 147.254L107.496 131Z" fill="url(#paint4_linear_457_618)"/>
<path d="M111.894 110.247L85.5761 93.9464L65.2442 92.2694L38.2112 77.9286L50.5778 68.8562L67.5593 64.2014L85.3797 56.0835L80.6046 33.4862L103.755 27.8263L136.458 0.246439L171.775 14.7658L185.331 31.5273L178.814 50.1654L181.858 73.6292L155.381 86.0794L157.905 102.435M111.894 110.247L113.98 118.493M111.894 110.247L157.905 102.435M113.98 118.493L160.582 110.226M113.98 118.493L107.496 131M160.582 110.226L157.905 102.435M160.582 110.226L163.3 117.515M107.496 131L163.3 117.515M107.496 131L89.4779 147.254M163.3 117.515L162.887 122.527M89.4779 147.254L162.887 122.527M89.4779 147.254L33.7068 179.491L15.3145 221.372L22.9078 236.632L0.131536 284.711L33.3642 337.914L169.094 349.11L163.793 339.589L197.637 311.599L222.736 262.198L219.991 194.856L188.39 155.412L162.887 122.527" stroke="white"/>
<path d="M46.7212 182.642L62.4946 183.442L78.7848 169.609L83.1516 161.396L89.4955 159.63L89.2796 152.588L93.2499 153.668L91.4806 160.17L95.7988 170.747L89.0221 191.735L99.8161 202.999L84.5033 195.609L81.3178 181.849L68.7141 189.97L46.0407 185.143L43.1551 183.015L46.7212 182.642Z" fill="url(#paint5_linear_457_618)" stroke="#E7E7E7"/>
<path d="M162.179 219.898L152.159 212.425L167.036 204.185L178.565 214.653L195.447 244.707L174.462 250.265L173.328 237.568L162.179 219.898Z" fill="url(#paint6_linear_457_618)" stroke="white"/>
<path d="M162.895 139.349L150.615 159.892L122.974 178.469L105.638 207.471L138.357 227.029L155.693 198.027L159.665 165.301L171.945 144.758L174.9 144.557L173.534 142.1L174.834 139.925L165.784 134.515L164.484 136.69L161.325 136.442L162.895 139.349Z" fill="url(#paint7_linear_457_618)" stroke="white"/>
<path d="M122.971 179.689L154.807 199.589L147.877 211.519L115.719 191.518L122.971 179.689Z" fill="#8C3D3D" stroke="white"/>
<path d="M128.068 185.352L128.618 186.407L127.242 186.856M129.673 185.857L129.801 187.132L128.112 188.012M131.515 187.848L124.936 195.302M133.56 189.198L126.87 196.441M127.827 190.039L132.137 193.159M127.102 191.222L131.091 194.241M135.311 192.042L137.65 191.896L131.144 197.433M137.822 195.831L137.677 193.492L139.787 192.392L141.73 194.063L140.803 195.887L138.473 196.565M138.473 196.565L137.611 195.941L135.593 196.188L133.932 198.664L135.023 200.242L136.628 200.747L138.949 199.537L138.473 196.565ZM141.169 198.648L143.214 199.998M141.095 200.565L143.077 198.191M140.708 202.913L140.405 203.876L139.772 204.206M141.57 203.537L141.478 204.39L140.634 204.83M119.874 191.769L120.424 192.824L121.479 192.274L120.929 191.219L119.874 191.769ZM121.654 190.036L124.62 182.855L126.023 184.003L122.195 190.559L121.654 190.036ZM146.168 198.458L148.287 197.89L150.112 198.818L150.991 200.506L150.275 202.221L147.193 202.485L144.257 205.089L143.716 204.566L146.964 201.531L149.514 201.276L149.919 199.992L148.305 198.954L146.608 199.302L146.168 198.458ZM143.312 205.85L142.468 206.29L142.908 207.134L143.963 206.584L143.312 205.85Z" stroke="white"/>
<path d="M102.496 258.5L98.2548 275.175L115.59 281.231L96.3807 298L73.8912 281.231L49.9961 275.175L53.7443 240.239L49.9961 223.47H64.9891V207.167L83.2618 213.222L91.2269 189L111.374 220.675L98.2548 233.252L116.996 240.239L102.496 258.5Z" fill="#232323" stroke="white"/>
<path d="M27.4064 219.497L25.0601 207.565L46.8645 212.321L63.019 206.327L61.0374 215.412L62.8812 222.667L61.3752 229.571L61.8191 250.226L48.7169 252.698L30.943 246.917L28.8479 237.324L26.2175 224.948L27.4064 219.497Z" fill="url(#paint8_linear_457_618)"/>
<path d="M63.019 206.327L46.8645 212.321L25.0601 207.565L24.3858 200.184L30.9002 194.753L44.4121 193.893L57.4948 196.747L63.9702 201.966L63.019 206.327Z" fill="url(#paint9_linear_457_618)"/>
<path d="M25.0601 207.565L27.4064 219.497L26.2175 224.948L28.8479 237.324L30.943 246.917L48.7169 252.698L61.8191 250.226L61.3752 229.571L62.8812 222.667L61.0374 215.412L63.019 206.327M25.0601 207.565L46.8645 212.321L63.019 206.327M25.0601 207.565L24.3858 200.184L30.9002 194.753L44.4121 193.893L57.4948 196.747L63.9702 201.966L63.019 206.327" stroke="white"/>
<path d="M46.6778 245.169L50.4201 247.855M50.4201 247.855L56.4099 246.579M50.4201 247.855L50.7819 244.773M50.7819 244.773L44.9997 240.406M50.7819 244.773L54.5664 240.964M57.0192 231.702L47.1395 226.705L56.2146 224.022M57.5996 221.269L52.3157 219.117M57.9992 212.376L52.1499 214.823M52.3157 219.117L47.0318 216.964L52.1499 214.823M52.3157 219.117L52.1499 214.823M53.0427 238.762L56.1391 235.645L53.2569 232.094L47.1062 231.833L44.517 235.798L48.2526 239.509L53.0427 238.762Z" stroke="#E7E7E7" stroke-width="2"/>
<path d="M126.592 261.17L127.57 246.399L143.158 251.615L126.592 261.17Z" fill="#4AC1D6" stroke="white"/>
<path d="M94.5921 202.168L95.5701 187.397L111.158 192.613L94.5921 202.168Z" fill="#4AC1D6" stroke="white"/>
<path d="M153.614 279.455L142.796 258.107L141.837 224.817L126.563 194.678L92.5613 211.909L107.835 242.048L133.391 262.873L144.21 284.221L142.803 286.828L145.61 286.984L146.755 289.245L156.16 284.478L155.015 282.218L156.91 279.679L153.614 279.455Z" fill="url(#paint10_linear_457_618)" stroke="white"/>
<path d="M140.808 224.162L106.987 240.465L100.597 228.237L134.675 211.716L140.808 224.162Z" fill="#C97B3F" stroke="white"/>
<path d="M133.297 225.451L132.111 225.353L132.466 223.95M132.013 226.539L130.866 225.967L131.023 224.069M129.345 227.034L126.553 217.492M127.113 228.044L124.558 218.521M129.461 222.746L124.522 224.725M128.848 221.502L124.166 223.263M123.774 228.006L122.648 230.062L121.438 221.605M119.229 228.108L121.284 229.233L121.088 231.604L118.638 232.356L117.59 230.598L118.261 228.266M118.261 228.266L119.248 227.87L120.117 226.032L118.91 223.306L116.993 223.386L115.709 224.474L115.493 227.082L118.261 228.266ZM115.06 229.434L112.828 230.443M113.479 228.348L114.429 231.292M111.699 226.768L111.047 225.998L111.105 225.287M110.711 227.164L110.039 226.631L110.118 225.683M132.243 215.097L131.057 214.999L130.959 216.185L132.145 216.283L132.243 215.097ZM132.758 217.528L137.248 223.868L135.529 224.442L132.027 217.706L132.758 217.528ZM112.553 233.763L111.902 235.858L110.144 236.907L108.247 236.75L107.179 235.229L108.6 232.481L107.965 228.608L108.697 228.43L109.529 232.797L108.384 235.09L109.254 236.117L110.993 235.305L111.604 233.685L112.553 233.763ZM107.826 227.403L107.905 226.455L106.956 226.376L106.858 227.562L107.826 227.403Z" stroke="white"/>
<path d="M90.8463 221.152L93.6051 215.916L96.7581 212.894L95.7259 219.932L99.1735 215.505L98.2802 220.163L99.7404 222.047L100.936 219.778L103.408 219.743L103.516 222.922L110.564 223.513L109.276 225.957L105.921 230.209L100.508 231.595L95.3263 230.425L91.6252 226.023L90.8463 221.152Z" fill="#E6B97F"/>
<path d="M105.401 221.462L111.658 221.86L113.037 219.241L113.775 213.609L111.581 208.885L107.548 207.652L101.805 207.972L98.2013 211.425L97.3906 216.35L99.211 213.741L100.525 214.21L99.7047 219.576L101.139 218.547L104.933 218.54L105.401 221.462Z" fill="#E6B97F"/>
<path d="M90.8463 221.152L93.6051 215.916L96.7581 212.894L95.7259 219.932L99.1735 215.505L98.2802 220.163L99.7404 222.047L100.936 219.778L103.408 219.743L103.516 222.922L110.564 223.513L109.276 225.957L105.921 230.209L100.508 231.595L95.3263 230.425L91.6252 226.023L90.8463 221.152Z" stroke="white"/>
<path d="M105.401 221.462L111.658 221.86L113.037 219.241L113.775 213.609L111.581 208.885L107.548 207.652L101.805 207.972L98.2013 211.425L97.3906 216.35L99.211 213.741L100.525 214.21L99.7047 219.576L101.139 218.547L104.933 218.54L105.401 221.462Z" stroke="white"/>
<path d="M168.659 202.746L170.267 197.05L172.722 193.438L173.178 200.537L175.628 195.488L175.724 200.231L177.545 201.77L178.242 199.301L180.652 198.752L181.42 201.839L188.436 200.95L187.685 203.608L185.289 208.466L180.283 210.948L174.971 210.883L170.435 207.347L168.659 202.746Z" fill="#E6B97F"/>
<path d="M182.959 200.018L189.162 199.105L189.966 196.257L189.515 190.595L186.386 186.431L182.184 186.065L176.633 187.572L173.828 191.7L174.06 196.686L175.298 193.755L176.68 193.941L176.995 199.359L178.183 198.055L181.894 197.258L182.959 200.018Z" fill="#E6B97F"/>
<path d="M168.659 202.746L170.267 197.05L172.722 193.438L173.178 200.537L175.628 195.488L175.724 200.231L177.545 201.77L178.242 199.301L180.652 198.752L181.42 201.839L188.436 200.95L187.685 203.608L185.289 208.466L180.283 210.948L174.971 210.883L170.435 207.347L168.659 202.746Z" stroke="white"/>
<path d="M182.959 200.018L189.162 199.105L189.966 196.257L189.515 190.595L186.386 186.431L182.184 186.065L176.633 187.572L173.828 191.7L174.06 196.686L175.298 193.755L176.68 193.941L176.995 199.359L178.183 198.055L181.894 197.258L182.959 200.018Z" stroke="white"/>
<path d="M158.821 263.977L162.579 259.405L166.276 257.081L163.846 263.766L168.116 260.124L166.302 264.507L167.352 266.647L168.98 264.665L171.409 265.129L170.874 268.265L177.658 270.264L175.904 272.398L171.76 275.887L166.18 276.153L161.34 273.963L158.602 268.905L158.821 263.977Z" fill="#E6B97F"/>
<path d="M173.014 267.214L179.063 268.865L180.942 266.579L182.799 261.211L181.603 256.142L177.901 254.121L172.211 253.276L167.986 255.932L166.199 260.592L168.508 258.404L169.7 259.128L167.815 264.219L169.427 263.5L173.146 264.258L173.014 267.214Z" fill="#E6B97F"/>
<path d="M158.821 263.977L162.579 259.405L166.276 257.081L163.846 263.766L168.116 260.124L166.302 264.507L167.352 266.647L168.98 264.665L171.409 265.129L170.874 268.265L177.658 270.264L175.904 272.398L171.76 275.887L166.18 276.153L161.34 273.963L158.602 268.905L158.821 263.977Z" stroke="white"/>
<path d="M173.014 267.214L179.063 268.865L180.942 266.579L182.799 261.211L181.603 256.142L177.901 254.121L172.211 253.276L167.986 255.932L166.199 260.592L168.508 258.404L169.7 259.128L167.815 264.219L169.427 263.5L173.146 264.258L173.014 267.214Z" stroke="white"/>
<path d="M151.409 219.688L146.876 234.818L156.432 253.933L163.369 260.13L163.574 266.712L170.465 268.18L168.47 271.778L162.576 268.512L151.276 270.187L132.506 258.607L118.995 266.409L129.819 253.296L143.942 253.479L139.056 239.304L149.143 218.432L151.897 216.136L151.409 219.688Z" fill="url(#paint11_linear_457_618)" stroke="#E7E7E7"/>
<path d="M86.851 193.472L89.4715 181.25L72.8485 184.845L71.0657 200.315L78.1508 234.05L97.6032 224.413L90.0963 214.111L86.851 193.472Z" fill="url(#paint12_linear_457_618)" stroke="white"/>
</g>
<defs>
<linearGradient id="paint0_linear_457_618" x1="121.028" y1="9.57081" x2="93.5358" y2="342.878" gradientUnits="userSpaceOnUse">
<stop stop-color="#6073B9"/>
<stop offset="0.927885" stop-color="#1A244B"/>
</linearGradient>
<linearGradient id="paint1_linear_457_618" x1="121.028" y1="9.57081" x2="93.5358" y2="342.878" gradientUnits="userSpaceOnUse">
<stop stop-color="#6073B9"/>
<stop offset="0.927885" stop-color="#1A244B"/>
</linearGradient>
<linearGradient id="paint2_linear_457_618" x1="121.028" y1="9.57081" x2="93.5358" y2="342.878" gradientUnits="userSpaceOnUse">
<stop stop-color="#6073B9"/>
<stop offset="0.927885" stop-color="#1A244B"/>
</linearGradient>
<linearGradient id="paint3_linear_457_618" x1="121.028" y1="9.57081" x2="93.5358" y2="342.878" gradientUnits="userSpaceOnUse">
<stop stop-color="#6073B9"/>
<stop offset="0.927885" stop-color="#1A244B"/>
</linearGradient>
<linearGradient id="paint4_linear_457_618" x1="121.028" y1="9.57081" x2="93.5358" y2="342.878" gradientUnits="userSpaceOnUse">
<stop stop-color="#6073B9"/>
<stop offset="0.927885" stop-color="#1A244B"/>
</linearGradient>
<linearGradient id="paint5_linear_457_618" x1="82.9519" y1="150.866" x2="70.9072" y2="195.133" gradientUnits="userSpaceOnUse">
<stop stop-color="#CBB529"/>
<stop offset="1" stop-color="#A66317"/>
</linearGradient>
<linearGradient id="paint6_linear_457_618" x1="163.64" y1="242.194" x2="207.166" y2="214.775" gradientUnits="userSpaceOnUse">
<stop stop-color="white"/>
<stop offset="1" stop-color="#737373"/>
</linearGradient>
<linearGradient id="paint7_linear_457_618" x1="123.403" y1="170.59" x2="154.633" y2="212.35" gradientUnits="userSpaceOnUse">
<stop stop-color="#295843"/>
<stop offset="1" stop-color="#133024"/>
</linearGradient>
<linearGradient id="paint8_linear_457_618" x1="66.7336" y1="227.695" x2="20.581" y2="217.628" gradientUnits="userSpaceOnUse">
<stop stop-color="#B50000"/>
<stop offset="1" stop-color="#700404"/>
</linearGradient>
<linearGradient id="paint9_linear_457_618" x1="49.6815" y1="195.042" x2="37.6331" y2="250.28" gradientUnits="userSpaceOnUse">
<stop offset="0.293269" stop-color="#940808"/>
<stop offset="1" stop-color="#BA0C0C"/>
</linearGradient>
<linearGradient id="paint10_linear_457_618" x1="148.271" y1="229.385" x2="58.0432" y2="251.953" gradientUnits="userSpaceOnUse">
<stop stop-color="#4A4A4A"/>
<stop offset="1" stop-color="#CFCFCF"/>
</linearGradient>
<linearGradient id="paint11_linear_457_618" x1="173.644" y1="262.444" x2="133.519" y2="240.204" gradientUnits="userSpaceOnUse">
<stop stop-color="#CBB529"/>
<stop offset="1" stop-color="#A66317"/>
</linearGradient>
<linearGradient id="paint12_linear_457_618" x1="100.433" y1="211.213" x2="49.6217" y2="219.24" gradientUnits="userSpaceOnUse">
<stop stop-color="white"/>
<stop offset="1" stop-color="#737373"/>
</linearGradient>
<clipPath id="clip0_457_618">
<rect width="223" height="349" fill="white"/>
</clipPath>
</defs>
</svg>
