<svg width="147" height="248" viewBox="0 0 147 248" fill="none" xmlns="http://www.w3.org/2000/svg">
<g clip-path="url(#clip0_520_2641)">
<path d="M72.7349 98.9749L104.963 94.7236L128.151 109.646L145.896 138.89L143.711 186.652L124.91 220.543L101.81 238.915L104.617 245.875L19.1751 232.211L1.19721 193.162L18.4477 160.109L14.521 148.991L28.6292 120.137L72.7349 98.9749Z" fill="url(#paint0_linear_520_2641)"/>
<path d="M55.4928 1.08007L97.2118 4.13435L103.879 11.3502L102.105 22.6421L97.1703 54.0478L102.328 68.6186L102.975 80.2978L73.3341 83.8776L57.5906 71.2312L14.1817 74.418L6.04845 62.9887L16.2332 61.3617L8.21087 49.2266L25.871 36.1343L34.2203 16.8504L48.403 19.1185L55.4928 1.08007Z" fill="url(#paint1_linear_520_2641)"/>
<path d="M74.1765 89.8002L73.3341 83.8776L102.975 80.2978L104.219 85.9228L74.1765 89.8002Z" fill="url(#paint2_linear_520_2641)"/>
<path d="M74.1765 89.8002L104.219 85.9228L105.518 91.1949L71.7261 94.1109L74.1765 89.8002Z" fill="url(#paint3_linear_520_2641)"/>
<path d="M71.7261 94.1109L105.518 91.1949L104.963 94.7236L72.7349 98.9749L71.7261 94.1109Z" fill="url(#paint4_linear_520_2641)"/>
<path d="M73.3341 83.8776L57.5906 71.2312L14.1817 74.418L6.04845 62.9887L16.2332 61.3617L8.21087 49.2266L25.871 36.1343L34.2203 16.8504L48.403 19.1185L55.4928 1.08007L97.2118 4.13435L103.879 11.3502L102.105 22.6421L97.1703 54.0478L102.328 68.6186L102.975 80.2978M73.3341 83.8776L74.1765 89.8002M73.3341 83.8776L102.975 80.2978M74.1765 89.8002L104.219 85.9228M74.1765 89.8002L71.7261 94.1109M104.219 85.9228L102.975 80.2978M104.219 85.9228L105.518 91.1949M71.7261 94.1109L105.518 91.1949M71.7261 94.1109L72.7349 98.9749M105.518 91.1949L104.963 94.7236M72.7349 98.9749L104.963 94.7236M72.7349 98.9749L28.6292 120.137L14.521 148.991L18.4477 160.109L1.1972 193.162L19.1751 232.211L104.617 245.875L101.81 238.915L124.91 220.543L143.711 186.652L145.896 138.89L128.151 109.646L104.963 94.7236" stroke="white"/>
<path d="M96.736 185.384L97.4063 197.938L83.2683 201.944L97.6774 216.531L116.496 204.111L135.861 200.445L134.745 171.94L138.629 158.546L130.74 153.103L127.555 144.555L116.206 140.403L107.621 128.47L89.871 153.092L99.6512 163.965L97.3845 175.569L96.736 185.384Z" fill="#232323" stroke="white"/>
<path d="M75.5451 137.293L66.8157 129.633L61.7159 142.301L75.5451 137.293Z" fill="#4AC1D6" stroke="white"/>
<path d="M112.717 221.302L112.73 210.007L100.828 213.22L112.717 221.302Z" fill="#4AC1D6" stroke="white"/>
<path d="M77.8384 239.076L77.8513 227.781L65.9493 230.994L77.8384 239.076Z" fill="#4AC1D6" stroke="white"/>
<path d="M39.0042 202.309L46.5568 215.626L59.1964 221.081L44.0089 232.914L28.06 219.05L10.5225 213.276L15.0792 186.856L13.1241 173.905L24.3193 174.635L25.1396 162.221L38.4789 167.721L45.6451 149.665L59.0948 174.765L48.6662 183.703L62.3085 189.936L39.0042 202.309Z" fill="#232323" stroke="white"/>
<path d="M50.3423 230.123L50.3552 218.828L38.4532 222.041L50.3423 230.123Z" fill="#4AC1D6" stroke="white"/>
<path d="M38.9427 167.685L37.1462 163.563L34.944 161.109L35.3605 166.518L33.009 162.979L33.4417 166.57L32.2566 167.934L31.4781 166.148L29.6343 166L29.393 168.416L24.1011 168.523L24.9395 170.446L27.2311 173.848L31.203 175.166L35.131 174.528L38.116 171.355L38.9427 167.685Z" fill="#E6B97F"/>
<path d="M28.0595 167.212L23.3673 167.21L22.4691 165.15L22.2018 160.825L24.0777 157.335L27.1513 156.592L31.4234 157.115L33.9403 159.92L34.2978 163.709L33.0698 161.634L32.0652 161.927L32.4076 166.053L31.3887 165.2L28.5555 165.01L28.0595 167.212Z" fill="#E6B97F"/>
<path d="M38.9427 167.685L37.1462 163.563L34.944 161.109L35.3605 166.518L33.009 162.979L33.4417 166.57L32.2566 167.934L31.4781 166.148L29.6343 166L29.393 168.416L24.1011 168.523L24.9395 170.446L27.2311 173.848L31.203 175.166L35.131 174.528L38.116 171.355L38.9427 167.685Z" stroke="white"/>
<path d="M28.0595 167.212L23.3673 167.21L22.4691 165.15L22.2018 160.825L24.0777 157.335L27.1513 156.592L31.4234 157.115L33.9403 159.92L34.2978 163.709L33.0698 161.634L32.0652 161.927L32.4076 166.053L31.3887 165.2L28.5555 165.01L28.0595 167.212Z" stroke="white"/>
<path d="M110.259 121.474L108.463 117.353L106.26 114.898L106.677 120.308L104.325 116.769L104.758 120.359L103.573 121.723L102.794 119.937L100.951 119.789L100.709 122.205L95.4175 122.312L96.2559 124.235L98.5475 127.637L102.519 128.955L106.447 128.317L109.432 125.145L110.259 121.474Z" fill="#E6B97F"/>
<path d="M99.3759 121.001L94.6837 121L93.7855 118.939L93.5182 114.614L95.3941 111.124L98.4677 110.382L102.74 110.904L105.257 113.709L105.614 117.499L104.386 115.424L103.382 115.717L103.724 119.842L102.705 118.99L99.8719 118.799L99.3759 121.001Z" fill="#E6B97F"/>
<path d="M110.259 121.474L108.463 117.353L106.26 114.898L106.677 120.308L104.325 116.769L104.758 120.359L103.573 121.723L102.794 119.937L100.951 119.789L100.709 122.205L95.4175 122.312L96.2559 124.235L98.5475 127.637L102.519 128.955L106.447 128.317L109.432 125.145L110.259 121.474Z" stroke="white"/>
<path d="M99.3759 121.001L94.6837 121L93.7855 118.939L93.5182 114.614L95.3941 111.124L98.4677 110.382L102.74 110.904L105.257 113.709L105.614 117.499L104.386 115.424L103.382 115.717L103.724 119.842L102.705 118.99L99.8719 118.799L99.3759 121.001Z" stroke="white"/>
<path d="M41.5568 182.402L53.2342 168.515L75.9881 158.065L92.4739 138.459L70.8429 119.573L54.3571 139.179L47.2512 163.291L35.5737 177.178L33.3688 176.953L34.0626 178.976L32.8261 180.446L38.8092 185.67L40.0456 184.2L42.3433 184.789L41.5568 182.402Z" fill="url(#paint5_linear_520_2641)" stroke="white"/>
<path d="M76.1455 157.148L55.2085 138.117L61.8419 130.026L83.0027 149.174L76.1455 157.148Z" fill="#C97B3F" stroke="white"/>
<path d="M60.2308 140.088L61.0903 140.322L61.1971 139.223M60.8581 141.199L61.8105 141.082L62.1821 139.679M62.6097 142.24L67 136.1M63.9247 143.538L68.143 137.351M63.6178 139.129L66.5915 141.818M64.3658 138.392L67.214 140.859M66.285 144.368L66.5546 146.134L69.5557 140.368M69.4584 145.607L67.7254 145.888L67.2609 147.643L68.7942 148.812L69.9789 147.818L70.0996 145.97M70.0996 145.97L69.5048 145.432L69.3607 143.888L70.9032 142.239L72.232 142.788L72.8593 143.899L72.3483 145.829L70.0996 145.97ZM72.0557 147.63L73.3707 148.928M73.4449 147.256L72.0279 149.127M75.0989 146.577L75.754 146.191L75.8933 145.665M75.6936 147.115L76.3023 146.905L76.4881 146.203M63.6035 132.919L64.463 133.153L64.2308 134.03L63.3712 133.796L63.6035 132.919ZM62.6232 134.533L57.8518 137.937L58.9158 138.79L63.0925 134.849L62.6232 134.533ZM72.7203 151.384L72.6461 153.057L73.6172 154.261L74.9925 154.635L76.1308 153.816L75.8286 151.477L77.2595 148.857L76.7902 148.542L75.0945 151.466L75.3177 153.407L74.4442 153.922L73.4267 152.893L73.408 151.571L72.7203 151.384ZM77.6637 148.027L77.8495 147.325L78.5371 147.512L78.3049 148.39L77.6637 148.027Z" stroke="white"/>
<path d="M142.367 144.09L130.549 143.931L119.081 132.605L116.234 126.138L111.586 124.485L112.101 119.133L109.082 119.762L110.076 124.799L106.32 132.642L110.324 148.954L101.697 157.005L113.503 152.124L116.574 141.801L125.576 148.598L142.749 146.027L145.011 144.547L142.367 144.09Z" fill="url(#paint6_linear_520_2641)" stroke="#E7E7E7"/>
<path d="M113.402 223.79L101.584 223.631L90.1164 212.305L87.2689 205.838L82.6209 204.185L83.1365 198.833L80.1175 199.462L81.1114 204.499L77.3549 212.342L81.359 228.654L72.7325 236.705L84.5382 231.824L87.6091 221.501L96.6116 228.298L113.784 225.727L116.046 224.247L113.402 223.79Z" fill="url(#paint7_linear_520_2641)" stroke="#E7E7E7"/>
<path d="M74.5878 123.365L71.4636 114.661L59.3497 126.426L46.685 128.944L51.4757 134.073L53.108 139.531L56.749 143.429L64.4724 157.058L73.8178 153.459L82.9545 142.629L80.5763 135.548L77.4623 126.443L74.5878 123.365Z" fill="url(#paint8_linear_520_2641)"/>
<path d="M46.685 128.944L59.3497 126.426L71.4636 114.661L69.034 109.586L62.7581 108.638L53.7754 113.45L46.507 120.509L44.3854 126.482L46.685 128.944Z" fill="url(#paint9_linear_520_2641)"/>
<path d="M71.4636 114.661L74.5878 123.365L77.4623 126.443L80.5763 135.548L82.9545 142.629L73.8178 153.459L64.4724 157.058L56.749 143.429L53.108 139.531L51.4757 134.073L46.685 128.944M71.4636 114.661L59.3497 126.426L46.685 128.944M71.4636 114.661L69.034 109.586L62.7581 108.638L53.7754 113.45L46.507 120.509L44.3854 126.482L46.685 128.944" stroke="white"/>
<path d="M72.3945 147.621L71.04 150.858M71.04 150.858L66.7114 152.408M71.04 150.858L69.6138 148.995M69.6138 148.995L71.6219 143.852M69.6138 148.995L65.7142 148.018M60.5536 142.961L64.9405 135.779L58.091 137.639M56.1371 136.397L58.6851 132.895M52.4338 130.764L57.1267 130.033M58.6851 132.895L61.2331 129.393L57.1267 130.033M58.6851 132.895L57.1267 130.033M65.836 145.978L62.6454 145.179L63.1137 141.721L66.9498 139.106L70.1444 140.659L69.1917 144.561L65.836 145.978Z" stroke="#E7E7E7" stroke-width="2"/>
<path d="M109.075 179.106L93.6317 186.034L70.1924 185.432L48.3895 195.213L59.128 220.253L80.9309 210.472L96.6019 192.961L112.046 186.033L113.821 187.142L114.044 185.136L115.68 184.402L112.709 177.476L111.074 178.21L109.366 176.753L109.075 179.106Z" fill="url(#paint10_linear_520_2641)" stroke="white"/>
<path d="M69.6889 186.144L79.7821 211.018L70.9284 215.125L60.6927 190.058L69.6889 186.144Z" fill="#8C3D3D" stroke="white"/>
<path d="M70.2927 191.577L70.1758 192.423L69.2038 192.115M71.0053 192.54L70.5566 193.339L69.2294 193.153M71.2459 194.471L64.4252 196.102M71.865 196.11L65.0677 197.572M68.2363 194.222L69.4278 197.838M67.3367 194.613L68.3857 198.037M71.7037 198.502L73.1033 199.389L67.1098 199.929M71.5914 201.764L72.4653 200.334L74.1243 200.567L74.5542 202.352L73.276 203.035L71.6638 202.464M71.6638 202.464L71.4255 201.741L70.1684 201.047L68.2033 201.807L68.1822 203.184L68.8948 204.146L70.7197 204.402L71.6638 202.464ZM72.3553 204.804L72.9745 206.443M71.5281 205.895L73.6358 205.328M70.3457 207.11L69.7779 207.547L69.2802 207.478M70.584 207.833L70.1821 208.294L69.5185 208.201M62.972 191.931L62.8551 192.777L63.6846 192.894L63.8015 192.048L62.972 191.931ZM64.7011 191.656L69.3394 188.684L69.6735 189.938L64.7969 192.187L64.7011 191.656ZM75.2971 206.768L76.7434 207.316L77.4093 208.617L77.2223 209.971L76.1101 210.677L74.2361 209.552L71.4882 209.857L71.3924 209.326L74.4955 208.899L76.061 209.808L76.8181 209.224L76.3181 207.946L75.2036 207.445L75.2971 206.768ZM70.6354 209.91L69.9718 209.817L69.8783 210.494L70.7078 210.61L70.6354 209.91Z" stroke="white"/>
</g>
<defs>
<linearGradient id="paint0_linear_520_2641" x1="33.5045" y1="3.35154" x2="117.445" y2="302.642" gradientUnits="userSpaceOnUse">
<stop stop-color="#5465A6"/>
<stop offset="0.274038" stop-color="#3C4A80"/>
<stop offset="0.754728" stop-color="#1A244B"/>
</linearGradient>
<linearGradient id="paint1_linear_520_2641" x1="33.5045" y1="3.35154" x2="117.445" y2="302.642" gradientUnits="userSpaceOnUse">
<stop stop-color="#5465A6"/>
<stop offset="0.274038" stop-color="#3C4A80"/>
<stop offset="0.754728" stop-color="#1A244B"/>
</linearGradient>
<linearGradient id="paint2_linear_520_2641" x1="33.5045" y1="3.35154" x2="117.445" y2="302.642" gradientUnits="userSpaceOnUse">
<stop stop-color="#5465A6"/>
<stop offset="0.274038" stop-color="#3C4A80"/>
<stop offset="0.754728" stop-color="#1A244B"/>
</linearGradient>
<linearGradient id="paint3_linear_520_2641" x1="33.5045" y1="3.35154" x2="117.445" y2="302.642" gradientUnits="userSpaceOnUse">
<stop stop-color="#5465A6"/>
<stop offset="0.274038" stop-color="#3C4A80"/>
<stop offset="0.754728" stop-color="#1A244B"/>
</linearGradient>
<linearGradient id="paint4_linear_520_2641" x1="33.5045" y1="3.35154" x2="117.445" y2="302.642" gradientUnits="userSpaceOnUse">
<stop stop-color="#5465A6"/>
<stop offset="0.274038" stop-color="#3C4A80"/>
<stop offset="0.754728" stop-color="#1A244B"/>
</linearGradient>
<linearGradient id="paint5_linear_520_2641" x1="74.6664" y1="163.938" x2="32.1897" y2="107.85" gradientUnits="userSpaceOnUse">
<stop stop-color="#4A4A4A"/>
<stop offset="1" stop-color="#CFCFCF"/>
</linearGradient>
<linearGradient id="paint6_linear_520_2641" x1="116.913" y1="118.13" x2="124.045" y2="152.347" gradientUnits="userSpaceOnUse">
<stop stop-color="#CBB529"/>
<stop offset="1" stop-color="#A66317"/>
</linearGradient>
<linearGradient id="paint7_linear_520_2641" x1="87.9479" y1="197.83" x2="95.0804" y2="232.047" gradientUnits="userSpaceOnUse">
<stop stop-color="#CBB529"/>
<stop offset="1" stop-color="#A66317"/>
</linearGradient>
<linearGradient id="paint8_linear_520_2641" x1="52.5913" y1="144.337" x2="78.7079" y2="119.944" gradientUnits="userSpaceOnUse">
<stop stop-color="#B50000"/>
<stop offset="1" stop-color="#700404"/>
</linearGradient>
<linearGradient id="paint9_linear_520_2641" x1="50.8478" y1="116.293" x2="80.5725" y2="146.899" gradientUnits="userSpaceOnUse">
<stop offset="0.293269" stop-color="#940808"/>
<stop offset="1" stop-color="#BA0C0C"/>
</linearGradient>
<linearGradient id="paint10_linear_520_2641" x1="73.6631" y1="180.997" x2="74.6226" y2="218.414" gradientUnits="userSpaceOnUse">
<stop stop-color="#295843"/>
<stop offset="1" stop-color="#133024"/>
</linearGradient>
<clipPath id="clip0_520_2641">
<rect width="147" height="248" fill="white"/>
</clipPath>
</defs>
</svg>
