<svg width="192" height="292" viewBox="0 0 192 292" fill="none" xmlns="http://www.w3.org/2000/svg">
<g clip-path="url(#clip0_447_567)">
<path d="M88.3751 120.158L126.995 108.978L158.166 122.612L185.377 154.537L191.696 212.529L175.08 256.92L150.284 283.409L155.028 291.273L47.9466 290.851L18.6055 247.15L33.4828 204.06L26.5866 191.393L38.4112 153.957L88.3751 120.158Z" fill="url(#paint0_linear_447_567)"/>
<path d="M48.8555 5.37416L100.459 1.21916L109.973 8.66608L109.929 22.613L109.805 61.403L118.857 78.0009L121.847 91.9599L86.2658 101.844L64.6282 89.555L12.1324 101.552L0.0325101 89.3003L12.1838 85.4256L0.0866239 72.3024L19.2229 53.2006L25.8049 28.3832L43.5796 28.4533L48.8555 5.37416Z" fill="url(#paint1_linear_447_567)"/>
<path d="M88.4112 108.826L86.2658 101.844L121.847 91.9599L124.427 98.5077L88.4112 108.826Z" fill="url(#paint2_linear_447_567)"/>
<path d="M88.4112 108.826L124.427 98.5077L127.009 104.62L86.2255 114.483L88.4112 108.826Z" fill="url(#paint3_linear_447_567)"/>
<path d="M86.2255 114.483L127.009 104.62L126.995 108.978L88.3751 120.158L86.2255 114.483Z" fill="url(#paint4_linear_447_567)"/>
<path d="M86.2658 101.844L64.6282 89.555L12.1324 101.552L0.0325101 89.3003L12.1838 85.4256L0.0866239 72.3024L19.2229 53.2006L25.8049 28.3832L43.5796 28.4533L48.8555 5.37416L100.459 1.21916L109.973 8.66608L109.929 22.613L109.805 61.403L118.857 78.0009L121.847 91.9599M86.2658 101.844L88.4112 108.826M86.2658 101.844L121.847 91.9599M88.4112 108.826L124.427 98.5077M88.4112 108.826L86.2255 114.483M124.427 98.5077L121.847 91.9599M124.427 98.5077L127.009 104.62M86.2255 114.483L127.009 104.62M86.2255 114.483L88.3751 120.158M127.009 104.62L126.995 108.978M88.3751 120.158L126.995 108.978M88.3751 120.158L38.4112 153.957L26.5866 191.393L33.4828 204.06L18.6055 247.15L47.9466 290.851L155.028 291.273L150.284 283.409L175.08 256.92L191.696 212.529L185.377 154.537L158.166 122.612L126.995 108.978" stroke="white"/>
<path d="M134.014 219.818L137.199 234.828L120.661 242.312L141.034 257.194L161.711 238.687L184.706 230.632L177.971 196.475L180.199 179.597L169.524 174.516L164.018 164.809L149.354 161.933L136.605 149.159L119.533 182.175L133.544 193.448L132.958 207.864L134.014 219.818Z" fill="#232323" stroke="white"/>
<path d="M80.4327 179.541L76.2501 169.024L61.6943 183.761L46.1194 187.237L52.2331 193.34L54.4515 199.945L59.0978 204.584L69.1495 220.959L80.5788 216.272L91.4859 202.77L88.2854 194.209L84.1009 183.203L80.4327 179.541Z" fill="url(#paint5_linear_447_567)"/>
<path d="M46.1194 187.237L61.6943 183.761L76.2501 169.024L73.0594 162.912L65.2612 161.956L54.3249 168.112L45.5914 176.954L43.1849 184.308L46.1194 187.237Z" fill="url(#paint6_linear_447_567)"/>
<path d="M76.2501 169.024L80.4327 179.541L84.1009 183.203L88.2854 194.209L91.4859 202.77L80.5788 216.272L69.1495 220.959L59.0978 204.584L54.4515 199.945L52.2331 193.34L46.1194 187.237M76.2501 169.024L61.6943 183.761L46.1194 187.237M76.2501 169.024L73.0594 162.912L65.2612 161.956L54.3249 168.112L45.5914 176.954L43.1849 184.308L46.1194 187.237" stroke="white"/>
<path d="M78.6267 209.197L77.0692 213.188M77.0692 213.188L71.7712 215.218M77.0692 213.188L75.237 210.961M75.237 210.961L77.5334 204.624M75.237 210.961L70.3774 209.895M63.8089 203.892L68.9735 194.992L60.5683 197.479M58.106 196.026L61.1301 191.673M53.3192 189.274L59.0978 188.232M61.1301 191.673L64.1541 187.32L59.0978 188.232M61.1301 191.673L59.0978 188.232M70.4536 207.403L66.4775 206.53L66.9305 202.297L71.5805 198.985L75.5891 200.777L74.553 205.566L70.4536 207.403Z" stroke="#E7E7E7" stroke-width="2"/>
<path d="M130.208 264.737L115.723 266.764L99.5631 255.262L94.862 248L88.8653 246.879L88.4876 240.329L84.9136 241.655L87.0783 247.542L83.9613 257.703L91.9318 276.616L82.8973 287.943L96.4176 279.841L98.2289 266.82L110.521 273.325L131.041 267.001L133.529 264.793L130.208 264.737Z" fill="url(#paint7_linear_447_567)" stroke="#E7E7E7"/>
<path d="M99.033 165.818L86.9125 158.221L83.0615 174.451L99.033 165.818Z" fill="#4AC1D6" stroke="white"/>
<path d="M160.337 260.117L158.225 246.497L144.272 252.605L160.337 260.117Z" fill="#4AC1D6" stroke="white"/>
<path d="M121.017 288.093L118.905 274.473L104.952 280.58L121.017 288.093Z" fill="#4AC1D6" stroke="white"/>
<path d="M66.5865 251.062L78.333 265.699L94.8207 269.903L78.4738 287.021L56.3543 273.3L33.8157 269.631L34.4117 236.923L29.5805 221.675L43.4111 220.454L42.0756 205.333L59.4277 209.46L64.7911 186.346L85.9706 214.083L74.899 226.816L92.7596 231.77L66.5865 251.062Z" fill="#232323" stroke="white"/>
<path d="M85.716 282.461L83.6039 268.841L69.6514 274.949L85.716 282.461Z" fill="#4AC1D6" stroke="white"/>
<path d="M123.54 189.157L120.566 184.526L117.41 181.98L118.939 188.423L115.396 184.598L116.601 188.845L115.409 190.712L114.12 188.705L111.837 188.873L111.997 191.831L105.544 192.953L106.932 195.115L110.376 198.786L115.482 199.629L120.167 198.123L123.22 193.738L123.54 189.157Z" fill="#E6B97F"/>
<path d="M110.139 190.63L104.4 191.509L102.913 189.193L101.771 184.029L103.408 179.469L107.027 177.997L112.351 177.825L115.958 180.735L117.109 185.236L115.216 182.965L114.043 183.507L115.239 188.417L113.832 187.58L110.331 187.882L110.139 190.63Z" fill="#E6B97F"/>
<path d="M123.54 189.157L120.566 184.526L117.41 181.98L118.939 188.423L115.396 184.598L116.601 188.845L115.409 190.712L114.12 188.705L111.837 188.873L111.997 191.831L105.544 192.953L106.932 195.115L110.376 198.786L115.482 199.629L120.167 198.123L123.22 193.738L123.54 189.157Z" stroke="white"/>
<path d="M110.139 190.63L104.4 191.509L102.913 189.193L101.771 184.029L103.408 179.469L107.027 177.997L112.351 177.825L115.958 180.735L117.109 185.236L115.216 182.965L114.043 183.507L115.239 188.417L113.832 187.58L110.331 187.882L110.139 190.63Z" stroke="white"/>
<path d="M53.376 233.225L58.7662 223.289L71.4842 239.68L86.539 245.012L79.7509 250.333L76.7711 256.623L71.6122 260.667L59.7054 275.712L48.9092 269.677L39.6685 254.954L43.8535 246.841L49.3032 236.418L53.376 233.225Z" fill="url(#paint8_linear_447_567)"/>
<path d="M86.539 245.012L71.4842 239.68L58.7662 223.289L62.6534 217.606L70.5083 217.599L80.6424 225.032L88.2732 234.866L89.7973 242.458L86.539 245.012Z" fill="url(#paint9_linear_447_567)"/>
<path d="M58.7662 223.289L53.376 233.225L49.3032 236.418L43.8535 246.841L39.6685 254.954L48.9092 269.677L59.7054 275.712L71.6122 260.667L76.7711 256.623L79.7509 250.333L86.539 245.012M58.7662 223.289L71.4842 239.68L86.539 245.012M58.7662 223.289L62.6534 217.606L70.5083 217.599L80.6424 225.032L88.2732 234.866L89.7973 242.458L86.539 245.012" stroke="white"/>
<path d="M51.6906 262.889L52.7674 267.04M52.7674 267.04L57.7888 269.695M52.7674 267.04L54.8485 265.05M54.8485 265.05L53.3141 258.481M54.8485 265.05L59.799 264.578M67.027 259.411L62.9464 249.951L70.9989 253.436M73.6146 252.291L71.1243 247.604M79.1617 246.166L73.5469 244.433M71.1243 247.604L68.634 242.916L73.5469 244.433M71.1243 247.604L73.5469 244.433M60.0165 262.095L64.0669 261.709L64.1153 257.451L59.8882 253.6L55.6973 254.896L56.1624 259.776L60.0165 262.095Z" stroke="#E7E7E7" stroke-width="2"/>
<path d="M80.6158 174.902L92.4178 193.775L118.401 210.506L135.062 237.15L105.181 256.019L88.5193 229.375L84.1528 198.994L72.3508 180.121L69.6104 179.993L70.8235 177.679L69.5739 175.68L77.8389 170.461L79.0885 172.46L82.0079 172.165L80.6158 174.902Z" fill="url(#paint10_linear_447_567)" stroke="white"/>
<path d="M118.428 211.643L89.3706 230.812L96.0386 241.776L125.391 222.506L118.428 211.643Z" fill="#C97B3F" stroke="white"/>
<path d="M95.8669 229.341L96.9614 229.215L96.8945 230.561M96.8347 228.115L97.9799 228.429L98.1826 230.189M99.1666 227.176L103.438 235.381M101.01 225.849L105.063 234.078M99.8416 231.113L103.966 228.407M100.625 232.138L104.556 229.677M104.049 225.275L104.697 223.193L107.335 230.694M108.158 224.354L106.086 223.701L105.833 221.5L107.92 220.367L109.192 221.782L109.008 224.033M109.008 224.033L108.183 224.574L107.729 226.411L109.321 228.68L111.047 228.258L112.015 227.031L111.736 224.61L109.008 224.033ZM111.702 222.384L113.545 221.056M113.335 223.088L111.937 220.573M115.239 224.206L115.971 224.791L116.047 225.451M116.064 223.665L116.771 224.029L116.872 224.91M98.7078 238.603L99.8023 238.477L99.6756 237.377L98.5811 237.503L98.7078 238.603ZM97.7977 236.478L92.5672 231.507L94.0235 230.669L98.429 236.182L97.7977 236.478ZM113.19 217.975L113.4 215.944L114.806 214.666L116.557 214.464L117.803 215.658L117.013 218.426L118.294 221.846L117.663 222.142L116.112 218.307L116.734 216.005L115.757 215.225L114.326 216.283L114.066 217.874L113.19 217.975ZM118.64 222.921L118.741 223.802L119.617 223.701L119.49 222.6L118.64 222.921Z" stroke="white"/>
</g>
<defs>
<linearGradient id="paint0_linear_447_567" x1="22.3881" y1="12.2434" x2="178.129" y2="358.774" gradientUnits="userSpaceOnUse">
<stop stop-color="#386341"/>
<stop offset="0.274038" stop-color="#4A7F54"/>
<stop offset="0.754728" stop-color="#1E3823"/>
</linearGradient>
<linearGradient id="paint1_linear_447_567" x1="22.3881" y1="12.2434" x2="178.129" y2="358.774" gradientUnits="userSpaceOnUse">
<stop stop-color="#386341"/>
<stop offset="0.274038" stop-color="#4A7F54"/>
<stop offset="0.754728" stop-color="#1E3823"/>
</linearGradient>
<linearGradient id="paint2_linear_447_567" x1="22.3881" y1="12.2434" x2="178.129" y2="358.774" gradientUnits="userSpaceOnUse">
<stop stop-color="#386341"/>
<stop offset="0.274038" stop-color="#4A7F54"/>
<stop offset="0.754728" stop-color="#1E3823"/>
</linearGradient>
<linearGradient id="paint3_linear_447_567" x1="22.3881" y1="12.2434" x2="178.129" y2="358.774" gradientUnits="userSpaceOnUse">
<stop stop-color="#386341"/>
<stop offset="0.274038" stop-color="#4A7F54"/>
<stop offset="0.754728" stop-color="#1E3823"/>
</linearGradient>
<linearGradient id="paint4_linear_447_567" x1="22.3881" y1="12.2434" x2="178.129" y2="358.774" gradientUnits="userSpaceOnUse">
<stop stop-color="#386341"/>
<stop offset="0.274038" stop-color="#4A7F54"/>
<stop offset="0.754728" stop-color="#1E3823"/>
</linearGradient>
<linearGradient id="paint5_linear_447_567" x1="53.9877" y1="205.824" x2="84.963" y2="174.795" gradientUnits="userSpaceOnUse">
<stop stop-color="#B50000"/>
<stop offset="1" stop-color="#700404"/>
</linearGradient>
<linearGradient id="paint6_linear_447_567" x1="50.8072" y1="171.673" x2="88.1749" y2="208.581" gradientUnits="userSpaceOnUse">
<stop offset="0.293269" stop-color="#940808"/>
<stop offset="1" stop-color="#BA0C0C"/>
</linearGradient>
<linearGradient id="paint7_linear_447_567" x1="94.1837" y1="238.217" x2="109.03" y2="278.252" gradientUnits="userSpaceOnUse">
<stop stop-color="#CBB529"/>
<stop offset="1" stop-color="#A66317"/>
</linearGradient>
<linearGradient id="paint8_linear_447_567" x1="76.5399" y1="262.516" x2="49.4496" y2="227.956" gradientUnits="userSpaceOnUse">
<stop stop-color="#B50000"/>
<stop offset="1" stop-color="#700404"/>
</linearGradient>
<linearGradient id="paint9_linear_447_567" x1="83.7159" y1="228.993" x2="42.2855" y2="261.14" gradientUnits="userSpaceOnUse">
<stop offset="0.293269" stop-color="#940808"/>
<stop offset="1" stop-color="#BA0C0C"/>
</linearGradient>
<linearGradient id="paint10_linear_447_567" x1="117.838" y1="203.181" x2="56.612" y2="264.033" gradientUnits="userSpaceOnUse">
<stop stop-color="#4A4A4A"/>
<stop offset="1" stop-color="#CFCFCF"/>
</linearGradient>
<clipPath id="clip0_447_567">
<rect width="192" height="292" fill="white"/>
</clipPath>
</defs>
</svg>
