<svg width="214" height="338" viewBox="0 0 214 338" fill="none" xmlns="http://www.w3.org/2000/svg">
<g clip-path="url(#clip0_520_2641)">
<path d="M113.381 135.427L68.3067 125.594L33.6383 143.467L4.88714 181.877L2.03308 248.412L24.4164 297.73L54.8153 326.041L49.9767 335.355L172.58 326.828L202.881 274.844L182.587 226.877L189.527 211.93L173.156 170.174L113.381 135.427Z" fill="url(#paint0_linear_520_2641)"/>
<path d="M149.968 1.70596L90.5546 0.850434L80.2213 10.0482L81.326 25.932L84.3985 70.1089L75.2866 89.696L72.9168 105.821L114.413 114.407L138.265 98.7826L199.292 108.504L212.224 93.6388L198.015 90.1381L210.878 74.2804L187.518 53.9591L178.105 26.1839L157.754 27.5993L149.968 1.70596Z" fill="url(#paint1_linear_520_2641)"/>
<path d="M112.484 122.522L114.413 114.407L72.9168 105.821L70.4564 113.474L112.484 122.522Z" fill="url(#paint2_linear_520_2641)"/>
<path d="M112.484 122.522L70.4564 113.474L67.9615 120.63L115.414 128.802L112.484 122.522Z" fill="url(#paint3_linear_520_2641)"/>
<path d="M115.414 128.802L67.9615 120.63L68.3067 125.594L113.381 135.427L115.414 128.802Z" fill="url(#paint4_linear_520_2641)"/>
<path d="M114.413 114.407L138.265 98.7826L199.292 108.504L212.224 93.6388L198.015 90.1381L210.878 74.2804L187.518 53.9591L178.105 26.1839L157.754 27.5993L149.968 1.70596L90.5546 0.850434L80.2213 10.0482L81.326 25.932L84.3985 70.1089L75.2866 89.696L72.9168 105.821M114.413 114.407L112.484 122.522M114.413 114.407L72.9168 105.821M112.484 122.522L70.4564 113.474M112.484 122.522L115.414 128.802M70.4564 113.474L72.9168 105.821M70.4564 113.474L67.9615 120.63M115.414 128.802L67.9615 120.63M115.414 128.802L113.381 135.427M67.9615 120.63L68.3067 125.594M113.381 135.427L68.3067 125.594M113.381 135.427L173.156 170.174L189.527 211.93L182.587 226.877L202.881 274.844L172.58 326.828L49.9767 335.355L54.8153 326.041L24.4164 297.73L2.03308 248.412L4.88714 181.877L33.6383 143.467L68.3067 125.594" stroke="#E7E7E7"/>
<path d="M68.6642 252.388L66.1527 269.724L85.6593 277.009L63.4539 295.489L38.372 275.958L11.4269 268.508L16.5552 229.094L12.726 210.036L24.5671 203.448L30.1378 191.976L46.714 187.601L60.348 172.093L82.3989 208.422L67.206 222.314L68.9684 238.691L68.6642 252.388Z" fill="#232323" stroke="#E7E7E7"/>
<path d="M126.98 202.487L130.974 190.194L148.76 205.889L166.86 208.68L160.321 216.091L158.28 223.781L153.31 229.413L143.037 248.821L129.593 244.338L116.08 229.777L119.097 219.785L123.056 206.934L126.98 202.487Z" fill="url(#paint5_linear_520_2641)"/>
<path d="M166.86 208.68L148.76 205.889L130.974 190.194L134.166 182.992L143.024 181.319L156.015 187.51L166.687 196.927L169.999 205.123L166.86 208.68Z" fill="url(#paint6_linear_520_2641)"/>
<path d="M130.974 190.194L126.98 202.487L123.056 206.934L119.097 219.785L116.08 229.777L129.593 244.338L143.037 248.821L153.31 229.413L158.28 223.781L160.321 216.091L166.86 208.68M130.974 190.194L148.76 205.889L166.86 208.68M130.974 190.194L134.166 182.992L143.024 181.319L156.015 187.51L166.687 196.927L169.999 205.123L166.86 208.68" stroke="#E7E7E7"/>
<path d="M131.305 236.132L133.391 240.562M133.391 240.562L139.612 242.476M133.391 240.562L135.321 237.888M135.321 237.888L132.211 230.841M135.321 237.888L140.805 236.308M147.874 228.977L141.285 219.227L151.1 221.43M153.81 219.59L150.017 214.859M158.781 211.54L152.084 210.786M150.017 214.859L146.224 210.127L152.084 210.786M150.017 214.859L152.084 210.786M140.529 233.476L145.017 232.183L144.178 227.395L138.602 223.971L134.147 226.313L135.696 231.691L140.529 233.476Z" stroke="#E7E7E7" stroke-width="2"/>
<path d="M104.64 188.251L117.947 178.688L123.585 196.887L104.64 188.251Z" fill="#4AC1D6" stroke="#E7E7E7"/>
<path d="M41.5806 300.27L42.9686 284.597L59.4102 290.508L41.5806 300.27Z" fill="#4AC1D6" stroke="#E7E7E7"/>
<path d="M88.7134 329.189L90.1015 313.515L106.543 319.426L88.7134 329.189Z" fill="#4AC1D6" stroke="#E7E7E7"/>
<path d="M148.245 282.919L135.9 300.474L117.336 306.499L137.353 324.772L161.647 307.484L187.182 301.613L184.023 264.4L188.402 246.669L172.47 246.315L172.855 228.991L153.295 234.994L145.403 209.067L123.246 242.25L136.89 255.925L116.81 262.907L148.245 282.919Z" fill="#232323" stroke="#E7E7E7"/>
<path d="M128.733 320.124L130.121 304.451L146.563 310.361L128.733 320.124Z" fill="#4AC1D6" stroke="#E7E7E7"/>
<path d="M152.639 234.886L155.694 229.387L159.116 226.251L157.853 233.705L161.621 229.082L160.562 234.011L162.069 236.048L163.393 233.665L166.02 233.685L166.061 237.066L173.536 237.861L172.11 240.427L168.444 244.867L162.659 246.211L157.181 244.846L153.352 240.08L152.639 234.886Z" fill="#E6B97F"/>
<path d="M168.098 235.559L174.737 236.129L176.265 233.38L177.182 227.412L174.962 222.341L170.705 220.935L164.595 221.139L160.684 224.723L159.707 229.937L161.703 227.208L163.088 227.738L162.089 233.42L163.637 232.361L167.67 232.443L168.098 235.559Z" fill="#E6B97F"/>
<path d="M152.639 234.886L155.694 229.387L159.116 226.251L157.853 233.705L161.621 229.082L160.562 234.011L162.069 236.048L163.393 233.665L166.02 233.685L166.061 237.066L173.536 237.861L172.11 240.427L168.444 244.867L162.659 246.211L157.181 244.846L153.352 240.08L152.639 234.886Z" stroke="#E7E7E7"/>
<path d="M168.098 235.559L174.737 236.129L176.265 233.38L177.182 227.412L174.962 222.341L170.705 220.935L164.595 221.139L160.684 224.723L159.707 229.937L161.703 227.208L163.088 227.738L162.089 233.42L163.637 232.361L167.67 232.443L168.098 235.559Z" stroke="#E7E7E7"/>
<path d="M107.721 169.043L113.226 157.348L128.902 175.15L146.51 180.19L139.092 186.721L136.103 194.095L130.465 199.059L117.84 217.025L105.064 210.891L93.4837 194.75L97.7306 185.215L103.271 172.962L107.721 169.043Z" fill="url(#paint7_linear_520_2641)"/>
<path d="M146.51 180.19L128.902 175.15L113.226 157.348L117.296 150.603L126.294 150.054L138.406 157.826L147.812 168.507L150.07 177.054L146.51 180.19Z" fill="url(#paint8_linear_520_2641)"/>
<path d="M113.226 157.348L107.721 169.043L103.271 172.962L97.7306 185.215L93.4837 194.75L105.064 210.891L117.84 217.025L130.465 199.059L136.103 194.095L139.092 186.721L146.51 180.19M113.226 157.348L128.902 175.15L146.51 180.19M113.226 157.348L117.296 150.603L126.294 150.054L138.406 157.826L147.812 168.507L150.07 177.054L146.51 180.19" stroke="#E7E7E7"/>
<path d="M107.796 202.965L109.309 207.621M109.309 207.621L115.241 210.301M109.309 207.621L111.559 205.21M111.559 205.21L109.358 197.829M111.559 205.21L117.199 204.331M125.131 197.945L119.818 187.445L129.278 190.861M132.198 189.376L129.028 184.206M138.139 182.013L131.59 180.425M129.028 184.206L125.859 179.036L131.59 180.425M129.028 184.206L131.59 180.425M117.281 201.486L121.895 200.767L121.663 195.911L116.56 191.815L111.847 193.579L112.709 199.109L117.281 201.486Z" stroke="#E7E7E7" stroke-width="2"/>
<path d="M106.287 222.73L91.4927 202.036L60.5966 184.76L39.7101 155.544L72.6699 131.981L93.5563 161.196L100.609 195.519L115.404 216.213L118.552 216.169L117.318 218.891L118.885 221.082L109.768 227.599L108.202 225.408L104.877 225.946L106.287 222.73Z" fill="url(#paint9_linear_520_2641)" stroke="#E7E7E7"/>
<path d="M60.4891 183.467L92.4848 159.617L84.1057 147.582L51.7788 171.566L60.4891 183.467Z" fill="#C97B3F" stroke="#E7E7E7"/>
<path d="M85.1391 161.741L83.8937 161.96L83.8795 160.422M84.1132 163.206L82.78 162.927L82.4289 160.934M81.505 164.436L76.0572 155.38M79.4827 166.076L74.284 156.976M80.4659 159.996L75.9232 163.365M79.4993 158.882L75.1618 161.958M76.0395 166.94L75.4382 169.357L71.9095 160.99M71.3948 168.272L73.812 168.873L74.2509 171.364L71.9357 172.799L70.3831 171.275L70.4423 168.696M70.4423 168.696L71.3509 168.022L71.747 165.898L69.7698 163.422L67.8211 164.022L66.7951 165.487L67.2779 168.226L70.4423 168.696ZM67.4677 170.761L65.4454 172.402M65.5486 170.072L67.3206 172.842M63.2926 168.929L62.4137 168.313L62.2821 167.566M62.3841 169.602L61.5491 169.236L61.3735 168.24M81.2594 151.382L80.014 151.601L80.2334 152.846L81.4788 152.627L81.2594 151.382ZM82.4455 153.741L88.7733 159.046L87.1614 160.1L81.7421 154.121L82.4455 153.741ZM66.0598 175.889L65.9566 178.218L64.4325 179.771L62.4399 180.122L60.9312 178.847L61.6499 175.638L59.9514 171.829L60.6548 171.448L62.6901 175.712L62.1327 178.378L63.3045 179.199L64.8725 177.895L65.0635 176.064L66.0598 175.889ZM59.4829 170.627L59.3074 169.631L58.311 169.806L58.5305 171.052L59.4829 170.627Z" stroke="#E7E7E7"/>
<path d="M9.23689 189.523L25.9793 190.745L43.6164 176.43L48.4508 167.806L55.2336 166.079L55.1705 158.59L59.364 159.832L57.3304 166.7L61.6694 178.041L53.9727 200.183L65.1769 212.408L49.0793 204.193L46.0192 189.496L32.4343 197.828L8.45473 192.164L5.43859 189.835L9.23689 189.523Z" fill="url(#paint10_linear_520_2641)" stroke="#E7E7E7"/>
<path d="M40.3072 303.639L57.0497 304.861L74.6868 290.546L79.5211 281.922L86.304 280.195L86.2408 272.706L90.4343 273.948L88.4007 280.816L92.7397 292.157L85.043 314.299L96.2472 326.523L80.1496 318.309L77.0896 303.612L63.5046 311.944L39.525 306.28L36.5089 303.951L40.3072 303.639Z" fill="url(#paint11_linear_520_2641)" stroke="#E7E7E7"/>
</g>
<defs>
<linearGradient id="paint0_linear_520_2641" x1="180.799" y1="7.54199" x2="30.0473" y2="414.51" gradientUnits="userSpaceOnUse">
<stop stop-color="#386341"/>
<stop offset="0.274038" stop-color="#4A7F54"/>
<stop offset="0.754728" stop-color="#1E3823"/>
</linearGradient>
<linearGradient id="paint1_linear_520_2641" x1="180.799" y1="7.54199" x2="30.0473" y2="414.51" gradientUnits="userSpaceOnUse">
<stop stop-color="#386341"/>
<stop offset="0.274038" stop-color="#4A7F54"/>
<stop offset="0.754728" stop-color="#1E3823"/>
</linearGradient>
<linearGradient id="paint2_linear_520_2641" x1="180.799" y1="7.54199" x2="30.0473" y2="414.51" gradientUnits="userSpaceOnUse">
<stop stop-color="#386341"/>
<stop offset="0.274038" stop-color="#4A7F54"/>
<stop offset="0.754728" stop-color="#1E3823"/>
</linearGradient>
<linearGradient id="paint3_linear_520_2641" x1="180.799" y1="7.54199" x2="30.0473" y2="414.51" gradientUnits="userSpaceOnUse">
<stop stop-color="#386341"/>
<stop offset="0.274038" stop-color="#4A7F54"/>
<stop offset="0.754728" stop-color="#1E3823"/>
</linearGradient>
<linearGradient id="paint4_linear_520_2641" x1="180.799" y1="7.54199" x2="30.0473" y2="414.51" gradientUnits="userSpaceOnUse">
<stop stop-color="#386341"/>
<stop offset="0.274038" stop-color="#4A7F54"/>
<stop offset="0.754728" stop-color="#1E3823"/>
</linearGradient>
<linearGradient id="paint5_linear_520_2641" x1="159.256" y1="230.442" x2="121.61" y2="197.221" gradientUnits="userSpaceOnUse">
<stop stop-color="#B50000"/>
<stop offset="1" stop-color="#700404"/>
</linearGradient>
<linearGradient id="paint6_linear_520_2641" x1="160.314" y1="191.303" x2="120.552" y2="236.36" gradientUnits="userSpaceOnUse">
<stop offset="0.293269" stop-color="#940808"/>
<stop offset="1" stop-color="#BA0C0C"/>
</linearGradient>
<linearGradient id="paint7_linear_520_2641" x1="136.236" y1="200.826" x2="103.054" y2="163.144" gradientUnits="userSpaceOnUse">
<stop stop-color="#B50000"/>
<stop offset="1" stop-color="#700404"/>
</linearGradient>
<linearGradient id="paint8_linear_520_2641" x1="142.194" y1="162.128" x2="97.095" y2="201.842" gradientUnits="userSpaceOnUse">
<stop offset="0.293269" stop-color="#940808"/>
<stop offset="1" stop-color="#BA0C0C"/>
</linearGradient>
<linearGradient id="paint9_linear_520_2641" x1="61.7357" y1="193.069" x2="127.378" y2="119.151" gradientUnits="userSpaceOnUse">
<stop stop-color="#4A4A4A"/>
<stop offset="1" stop-color="#CFCFCF"/>
</linearGradient>
<linearGradient id="paint10_linear_520_2641" x1="48.4871" y1="156.611" x2="34.6429" y2="203.367" gradientUnits="userSpaceOnUse">
<stop stop-color="#CBB529"/>
<stop offset="1" stop-color="#A66317"/>
</linearGradient>
<linearGradient id="paint11_linear_520_2641" x1="79.5574" y1="270.727" x2="65.7132" y2="317.482" gradientUnits="userSpaceOnUse">
<stop stop-color="#CBB529"/>
<stop offset="1" stop-color="#A66317"/>
</linearGradient>
<clipPath id="clip0_520_2641">
<rect width="214" height="338" fill="white"/>
</clipPath>
</defs>
</svg>
