<svg width="323" height="153" viewBox="0 0 323 153" fill="none" xmlns="http://www.w3.org/2000/svg">
<g clip-path="url(#clip0_488_2592)">
<path d="M2.41062 35.5429L48.0228 39.466L112.112 54.0488L133.547 63.5149L173.336 58.4131L215.158 44.9075L244.496 49.2888L321.813 21.4602L276.807 10.1307L260.225 8.18534L238.23 0.419616L166.453 4.7372L134.26 2.35071L2.41062 35.5429Z" fill="#563F2A"/>
<path d="M107.691 74.159L112.112 54.0488L48.0228 39.466L2.41062 35.5429L19.2758 70.0241L6.19689 107.531L124.645 151.787L121.357 126.151L111.595 104.602L124.797 92.3233L107.691 74.159Z" fill="url(#paint0_linear_488_2592)"/>
<path d="M112.112 54.0488L107.691 74.159L124.797 92.3233L111.595 104.602L121.357 126.151L124.645 151.787L183.711 139.328L296.385 114.294L310.619 55.4678L321.813 21.4602L244.496 49.2888L215.158 44.9075L173.336 58.4131L133.547 63.5149L112.112 54.0488Z" fill="#563F2A"/>
<path d="M112.112 54.0488L107.691 74.159L124.797 92.3233L111.595 104.602L121.357 126.151L124.645 151.787M112.112 54.0488L48.0228 39.466L2.41062 35.5429M112.112 54.0488L133.547 63.5149L173.336 58.4131L215.158 44.9075L244.496 49.2888L321.813 21.4602M124.645 151.787L6.19689 107.531L19.2758 70.0241L2.41062 35.5429M124.645 151.787L183.711 139.328L296.385 114.294L310.619 55.4678L321.813 21.4602M2.41062 35.5429L134.26 2.35071L166.453 4.7372L238.23 0.419616L260.225 8.18534L276.807 10.1307L321.813 21.4602" stroke="white"/>
<path d="M131.627 74.2113L132.39 89M131.627 74.2113L124 74.9155M131.627 74.2113L137.729 73.507M147.644 73.507L153.746 77.7324M153.746 77.7324L157.559 71.3944M153.746 77.7324L148.407 86.5352M173.958 74.2113L167.093 73.507V67.8732H175.102M173.958 74.2113L175.102 67.8732M173.958 74.2113L173.195 81.9577M173.958 74.2113H180.441V67.8732H175.102M188.449 80.9014L193.407 66.8169L197.983 78.7887M202.559 65.0563L204.466 77.7324L214 64V76.6761" stroke="white"/>
</g>
<defs>
<linearGradient id="paint0_linear_488_2592" x1="155.684" y1="-0.396415" x2="174.38" y2="145.41" gradientUnits="userSpaceOnUse">
<stop offset="0.8125" stop-color="#886242"/>
<stop offset="1" stop-color="#4C3623"/>
</linearGradient>
<clipPath id="clip0_488_2592">
<rect width="323" height="153" fill="white"/>
</clipPath>
</defs>
</svg>
