<svg width="186" height="315" viewBox="0 0 186 315" fill="none" xmlns="http://www.w3.org/2000/svg">
<path d="M69.0985 113.249L53.0158 120.148L41.7216 140.385L35.3594 142.111L31.0704 137.81L30.7613 110.768L36.39 102.02L52.0229 97.7802L41.1192 98.591L27.8674 89.3053L10.9616 82.3767L11.6229 66.4404L10.6856 50.5276L23.3527 71.6207L29.5561 64.7617L38.2952 66.2124L45.7981 72.9091L51.3545 65.134L63.8595 79.5432L74.7452 91.6173L77.4449 95.959L81.7334 102.992L92.0982 109.548L69.0985 113.249Z" fill="white" fill-opacity="0.9"/>
<path d="M102.883 134.92L69.0985 113.249L92.0982 109.548L93.8238 115.91L103.163 123.72L102.883 134.92Z" fill="white" fill-opacity="0.9"/>
<path d="M99.7114 110.996L109.829 115.743L109.609 133.096L102.883 134.92L103.163 123.72L93.8238 115.91L92.0982 109.548L99.7114 110.996Z" fill="white" fill-opacity="0.9"/>
<path d="M132.807 93.4329L136.444 101.589L128.784 123.211L122.856 121.501L109.829 115.743L99.7114 110.996L92.0982 109.548L98.7331 107.749L105.368 105.949L109.539 99.7437L116.447 97.8702L129.723 89.9761L132.807 93.4329Z" fill="white" fill-opacity="0.9"/>
<path d="M74.7452 91.6173L63.8595 79.5432L51.9135 57.804L52.9696 44.827L50.1926 35.974L58.0841 39.5426L56.76 26.5669L68.6364 44.4505L81.7943 41.6198L79.2569 58.6225L96.3262 51.0272L105.557 58.185L97.2786 36.7626L115.958 45.7024L105.992 34.0292L124.921 33.0615L132.551 25.6981L142.488 24.3096L153.201 12.3056L150.678 36.2855L132.245 49.8137L141.217 56.8054L136.944 64.7947L152.577 60.5546L169.679 55.1897L161.781 68.0008L171.481 77.8597L172.763 82.5859L162.851 82.7373L148.401 79.8263L132.807 93.4329L129.723 89.9761L116.447 97.8702L109.539 99.7437L105.368 105.949L98.7331 107.749L92.0982 109.548L81.7334 102.992L77.4449 95.959L74.7452 91.6173Z" fill="white" fill-opacity="0.9"/>
<path d="M95.103 119.159C118.141 158.338 179.385 234.094 94.3092 308.073L97.6743 313.633C167.459 242.125 147.325 202.12 98.8453 117.064L95.103 119.159Z" fill="white" fill-opacity="0.2"/>
<path d="M55.0564 160.564L59.3044 158.678L60.5703 155.896C60.5703 155.896 65.6229 155.622 68.6598 154.619C71.6966 153.616 74.5123 151.858 76.8316 150.107C79.1509 148.357 80.415 147.255 82.2262 144.982C84.0374 142.71 87.107 135.462 87.107 135.462L79.4037 141.546L73.0681 145.953L68.9311 148.85L59.0514 151.63L68.5669 147.556L74.4159 143.322L79.3476 136.896L80.8587 131.002L81.3267 126.669L77.4216 130.052L79.3843 124.293L77.965 124.799L77.9099 120.523L76.059 125.477L73.1993 123.462L73.2258 133.934L68.8745 135.453L65.3556 138.536L66.6064 131.91L63.5188 129.617L60.7492 122.166L59.6045 129.183L58.1227 120.516L53.9624 130.276L55.3161 135.087L50.712 140.269L43.2143 137.036L40.3066 132.718L31.9442 124.52L34.6956 134.297L30.4875 128.293L31.031 138.759L28.6933 141.618L30.0021 146.269L23.0752 145.346L14.4136 138.391L16.1736 144.645L11.7158 140.13L13.546 146.634L9.59466 149.139L10.5638 151.861L13.0109 152.318L22.1016 153.521C22.1016 153.521 19.057 154.993 16.9519 155.204C14.8467 155.414 6.89736 151.702 6.89736 151.702L11.0717 156.625C11.0717 156.625 15.3414 158.988 18.2906 159.961C21.2397 160.934 23.236 161.552 26.5093 161.613C29.7825 161.674 32.9523 159.94 34.9637 160.206C36.9751 160.471 37.8993 161.535 39.9126 161.786C41.9259 162.036 45.7175 159.605 47.0423 160.702C48.367 161.8 50.0445 164.286 50.0445 164.286L52.783 163.515L52.5664 161.265L55.0564 160.564Z" fill="#CAB8FF"/>
<path d="M140.48 248.375C124.615 142.424 54.0554 184.563 50.2781 158.979" stroke="#CAB8FF" stroke-width="4"/>
</svg>
