<svg width="246" height="329" viewBox="0 0 246 329" fill="none" xmlns="http://www.w3.org/2000/svg">
<path d="M122.66 115.591L135.498 124.673L141.624 144.576L146.891 147.287L151.468 144.312L156.815 120.606L153.511 111.863L140.569 105.202L149.999 107.962L163.387 102.289L179.544 99.3736L181.954 85.245L185.765 71.4371L170.674 87.5955L166.51 80.4036L158.558 80.0381L150.708 84.5146L147.284 76.639L133.59 86.9543L121.758 95.5214L118.571 98.83L113.482 104.206L103.143 108.021L122.66 115.591Z" fill="white" fill-opacity="0.9"/>
<path d="M88.9031 128.293L122.66 115.591L103.143 108.021L100.432 113.288L90.7593 118.399L88.9031 128.293Z" fill="white" fill-opacity="0.9"/>
<path d="M96.1806 107.865L86.398 110.137L83.335 125.428L88.9031 128.293L90.7593 118.399L100.432 113.288L103.143 108.021L96.1806 107.865Z" fill="white" fill-opacity="0.9"/>
<path d="M70.3936 86.2182L65.6667 92.7025L68.3391 113.142L73.8694 112.752L86.398 110.137L96.1806 107.865L103.143 108.021L97.6499 105.194L92.1571 102.368L89.6561 96.1315L83.9376 93.1885L73.7529 83.7594L70.3936 86.2182Z" fill="white" fill-opacity="0.9"/>
<path d="M121.758 95.5214L133.59 86.9543L148.169 70.0927L149.677 58.4905L153.779 51.232L146.174 52.8867L149.773 41.7324L135.98 55.2189L124.948 50.2615L123.987 65.6793L110.412 55.8007L100.956 60.3581L112.253 43.0866L94.1594 47.4363L105.108 39.0488L88.6559 34.6454L83.3327 26.7423L74.8611 23.657L67.7003 11.0973L65.4162 32.6438L79.0757 47.9922L69.8786 52.4522L72.134 60.2751L59.1921 53.6145L45.1696 45.6897L49.7056 58.4304L39.3314 65.2735L37.3178 69.1862L45.9995 71.1797L59.2443 71.3339L70.3936 86.2182L73.7529 83.7594L83.9376 93.1885L89.6561 96.1315L92.1571 102.368L97.6499 105.194L103.143 108.021L113.482 104.206L118.571 98.83L121.758 95.5214Z" fill="white" fill-opacity="0.9"/>
<path d="M126.991 127.715L143.073 134.614L154.368 154.851L160.73 156.576L165.019 152.275L165.328 125.233L159.699 116.486L144.066 112.246L154.97 113.057L168.222 103.771L185.128 96.8426L184.466 80.9062L185.404 64.9934L172.737 86.0865L166.533 79.2275L157.794 80.6783L150.291 87.375L144.735 79.5998L132.23 94.0091L121.344 106.083L118.644 110.425L114.356 117.458L103.991 124.014L126.991 127.715Z" fill="white" fill-opacity="0.9"/>
<path d="M93.2066 149.386L126.991 127.715L103.991 124.014L102.265 130.376L92.9266 138.186L93.2066 149.386Z" fill="white" fill-opacity="0.9"/>
<path d="M96.3779 125.462L86.2598 130.209L86.4808 147.562L93.2066 149.386L92.9266 138.186L102.265 130.376L103.991 124.014L96.3779 125.462Z" fill="white" fill-opacity="0.9"/>
<path d="M63.2822 107.899L59.6453 116.054L67.3049 137.677L73.2328 135.967L86.2598 130.209L96.3779 125.462L103.991 124.014L97.3562 122.214L90.7213 120.415L86.5498 114.21L79.6423 112.336L66.3664 104.442L63.2822 107.899Z" fill="white" fill-opacity="0.9"/>
<path d="M121.344 106.083L132.23 94.0091L144.176 72.2698L143.12 59.2928L145.897 50.4399L138.005 54.0084L139.329 41.0327L127.453 58.9163L114.295 56.0856L116.832 73.0883L99.7631 65.493L90.5319 72.6508L98.8107 51.2284L80.1311 60.1682L90.0968 48.495L71.1683 47.5274L63.5379 40.1639L53.6011 38.7755L42.8885 26.7715L45.4114 50.7513L63.8448 64.2795L54.8725 71.2712L59.1455 79.2605L43.5126 75.0204L26.4099 69.6555L34.3081 82.4666L24.6087 92.3255L23.3268 97.0517L33.2384 97.2031L47.6885 94.2921L63.2822 107.899L66.3664 104.442L79.6423 112.336L86.5498 114.21L90.7213 120.415L97.3562 122.214L103.991 124.014L114.356 117.458L118.644 110.425L121.344 106.083Z" fill="white" fill-opacity="0.9"/>
<path d="M100.982 133.624C77.9444 172.804 16.7 248.56 101.776 322.538L98.4111 328.099C28.6261 256.591 48.7605 216.586 97.2401 131.53L100.982 133.624Z" fill="white" fill-opacity="0.2"/>
<path d="M84.2878 173.108L69.3774 167.39L66.5559 170.536L57.8333 168.894L57.6054 174.292L47.9895 181.81L46.6806 170.372L49.2698 167.845L46.5141 167.071L43.7583 166.297L37.3177 167.011L42.7243 168.088L34.5507 175.937L31.1162 186.019L31.9311 199.182L35.0206 196.442L44.3918 192.175L51.1295 185.508L50.7588 181.147L53.5185 196.816L64.0792 203.542L62.9275 195.965L64.5057 193.231L60.1488 175.76L65.2355 178.697L80.4014 187.453L91.822 186.381L84.2878 173.108Z" fill="url(#paint0_linear_482_2544)" fill-opacity="0.7" style="mix-blend-mode:plus-lighter"/>
<path d="M75.0298 139.108L64.6246 145.166L60.7609 151.858L74.869 147.436L74.1619 154.317L66.0404 159.682L69.1553 162.989L61.3706 162.767L69.3774 167.39L74.242 165.925L84.8129 167.63L80.6682 165.237L90.546 162.268L95.4313 156.417L79.9016 156.123L80.8267 154.52L86.8068 148.296L80.098 148.821L84.0706 141.94L81.3322 133.196L82.6927 130.839L81.3968 128.08L75.0298 139.108Z" fill="url(#paint1_linear_482_2544)" fill-opacity="0.7" style="mix-blend-mode:plus-lighter"/>
<path d="M74.869 147.436L60.7609 151.858L60.3949 157.931L61.3706 162.767L69.1553 162.989L66.0404 159.682L74.1619 154.317L74.869 147.436Z" fill="url(#paint2_linear_482_2544)" fill-opacity="0.7" style="mix-blend-mode:plus-lighter"/>
<path fill-rule="evenodd" clip-rule="evenodd" d="M69.3774 167.39L61.3706 162.767L60.3949 157.931L60.7609 151.858L62.0813 143.698L59.7031 138.68L55.4101 141.982L52.5029 148.976L49.4615 150.11L44.7455 151.535L49.9601 158.818L52.5035 160.287L46.5141 167.071L49.2698 167.845L46.6806 170.372L47.9895 181.81L57.6054 174.292L57.8333 168.894L66.5559 170.536L69.3774 167.39ZM53.5775 164.3L55.0468 161.755L58.5446 161.135L57.785 164.844L53.5775 164.3Z" fill="url(#paint3_linear_482_2544)" fill-opacity="0.7" style="mix-blend-mode:plus-lighter"/>
<path d="M47.6052 157.459L39.4478 156.142L30.4412 163.04L37.3177 167.011L43.7583 166.297L46.5141 167.071L52.5035 160.287L49.9601 158.818L47.6052 157.459Z" fill="url(#paint4_linear_482_2544)" fill-opacity="0.7" style="mix-blend-mode:plus-lighter"/>
<path d="M55.0468 161.755L53.5775 164.3L57.785 164.844L58.5446 161.135L55.0468 161.755Z" fill="url(#paint5_linear_482_2544)" fill-opacity="0.7" style="mix-blend-mode:plus-lighter"/>
<path d="M39.4478 156.142L47.6052 157.459L49.9601 158.818L44.7455 151.535L49.4615 150.11L52.5029 148.976L55.4101 141.982L59.7031 138.68L62.0813 143.698L60.7609 151.858L64.6246 145.166L62.9199 128.975L53.6926 122.768L49.3159 126.65L50.4949 137.008L47.793 146.256L46.6311 143.7L36.1751 137.664L24.0681 141.23L33.3937 146.615L36.4962 152.553L39.8809 152.999L39.4478 156.142Z" fill="url(#paint6_linear_482_2544)" fill-opacity="0.7" style="mix-blend-mode:plus-lighter"/>
<path d="M22.7444 167.235L29.0952 165.372L37.3177 167.011L30.4412 163.04L39.4478 156.142L26.815 153.876L13.4563 159.61L9.14035 164.91L22.7444 167.235Z" fill="url(#paint7_linear_482_2544)" fill-opacity="0.7" style="mix-blend-mode:plus-lighter"/>
<path d="M76.2941 154.468L60.5529 156.966L59.6844 161.094L51.3253 164.027L53.8222 168.807L49.2627 180.104L42.4234 170.87L43.4005 167.394L40.6322 168.1L37.8639 168.807L32.653 172.637L37.8639 170.87L34.7157 181.733L36.7783 192.161L44.0518 203.133L45.3545 199.222L51.3253 190.858L53.8222 181.733L51.3253 178.148L61.53 190.315L74.0143 190.858L69.2377 184.883V181.733L56.7533 168.807H62.6156H80.0937L89.4299 162.18L76.2941 154.468Z" fill="url(#paint8_linear_482_2544)" fill-opacity="0.7" style="mix-blend-mode:plus-lighter"/>
<path d="M51.3253 129.701L45.3545 140.129V147.841L55.342 136.979L58.1646 143.279L53.8222 151.969L58.1646 153.273L51.3253 156.966H60.5529L64.0268 153.273L74.0143 149.471H69.2377L76.2941 141.976L77.5968 134.48L64.0268 141.976V140.129L66.0895 131.765L60.5529 135.567V127.637L53.8222 121.445V118.729L51.3253 116.991V129.701Z" fill="url(#paint9_linear_482_2544)" fill-opacity="0.7" style="mix-blend-mode:plus-lighter"/>
<path d="M55.342 136.979L45.3545 147.841L48.0685 153.273L51.3253 156.966L58.1646 153.273L53.8222 151.969L58.1646 143.279L55.342 136.979Z" fill="url(#paint10_linear_482_2544)" fill-opacity="0.7" style="mix-blend-mode:plus-lighter"/>
<path fill-rule="evenodd" clip-rule="evenodd" d="M60.5529 156.966H51.3253L48.0685 153.273L45.3545 147.841L42.4234 140.129L37.8639 136.979L35.8013 141.976L36.7783 149.471L34.7157 151.969L31.3503 155.554L39.4923 159.247H42.4234L40.6322 168.1L43.4005 167.394L42.4234 170.87L49.2627 180.104L53.8222 168.807L51.3253 164.027L59.6844 161.094L60.5529 156.966ZM45.3545 162.18V159.247L48.0685 156.966L49.2627 160.551L45.3545 162.18Z" fill="url(#paint11_linear_482_2544)" fill-opacity="0.7" style="mix-blend-mode:plus-lighter"/>
<path d="M36.7783 159.247L29.0705 162.18L24.7281 172.637H32.653L37.8639 168.807L40.6322 168.1L42.4234 159.247H39.4923H36.7783Z" fill="url(#paint12_linear_482_2544)" fill-opacity="0.7" style="mix-blend-mode:plus-lighter"/>
<path d="M45.3545 159.247V162.18L49.2627 160.551L48.0685 156.966L45.3545 159.247Z" fill="url(#paint13_linear_482_2544)" fill-opacity="0.7" style="mix-blend-mode:plus-lighter"/>
<path d="M29.0705 162.18L36.7783 159.247H39.4923L31.3503 155.554L34.7157 151.969L36.7783 149.471L35.8013 141.976L37.8639 136.979L42.4234 140.129L45.3545 147.841V140.129L35.8013 126.985L24.7281 126.225L22.8826 131.765L29.0705 140.129L31.3503 149.471L29.0705 147.841H17.0204L8.3356 156.966H19.083L24.7281 160.551L27.8764 159.247L29.0705 162.18Z" fill="url(#paint14_linear_482_2544)" fill-opacity="0.7" style="mix-blend-mode:plus-lighter"/>
<path d="M20.1686 180.104L24.7281 175.324L32.653 172.637H24.7281L29.0705 162.18L17.0204 166.525L8.3356 178.148L7.25 184.883L20.1686 180.104Z" fill="url(#paint15_linear_482_2544)" fill-opacity="0.7" style="mix-blend-mode:plus-lighter"/>
<path d="M191.638 203.03L187.39 201.144L186.124 198.362C186.124 198.362 181.072 198.088 178.035 197.085C174.998 196.081 172.183 194.324 169.863 192.573C167.544 190.822 166.28 189.72 164.469 187.448C162.657 185.175 159.588 177.927 159.588 177.927L167.291 184.012L173.627 188.419L177.764 191.316L187.643 194.096L178.128 190.022L172.279 185.788L167.347 179.362L165.836 173.468L165.368 169.135L169.273 172.518L167.31 166.759L168.73 167.265L168.785 162.989L170.636 167.943L173.495 165.928L173.469 176.4L177.82 177.918L181.339 181.001L180.088 174.376L183.176 172.083L185.946 164.632L187.09 171.649L188.572 162.982L192.732 172.742L191.379 177.553L195.983 182.735L203.48 179.502L206.388 175.184L214.751 166.986L211.999 176.763L216.207 170.758L215.664 181.225L218.001 184.084L216.693 188.735L223.62 187.811L232.281 180.857L230.521 187.111L234.979 182.596L233.149 189.099L237.1 191.605L236.131 194.327L233.684 194.784L224.593 195.987C224.593 195.987 227.638 197.459 229.743 197.669C231.848 197.88 239.797 194.168 239.797 194.168L235.623 199.091C235.623 199.091 231.353 201.453 228.404 202.427C225.455 203.4 223.459 204.018 220.186 204.079C216.912 204.14 213.742 202.406 211.731 202.671C209.72 202.937 208.795 204.001 206.782 204.252C204.769 204.502 200.977 202.07 199.652 203.168C198.328 204.265 196.65 206.752 196.65 206.752L193.912 205.981L194.128 203.731L191.638 203.03Z" fill="#CAB8FF"/>
<path d="M66.1936 190.378C77.475 205.657 108.184 234.778 60.9916 266.881L62.6436 269.047C101.628 238.331 91.914 222.644 68.2401 189.435L66.1936 190.378Z" fill="white" fill-opacity="0.2"/>
<path d="M106.215 290.841C122.079 184.889 192.639 227.029 196.417 201.444" stroke="#CAB8FF" stroke-width="4"/>
<path d="M109.784 144.243L114.032 142.357L115.297 139.575C115.297 139.575 120.35 139.301 123.387 138.298C126.424 137.294 129.239 135.537 131.559 133.786C133.878 132.035 135.142 130.933 136.953 128.661C138.764 126.388 141.834 119.14 141.834 119.14L134.131 125.225L127.795 129.632L123.658 132.529L113.779 135.309L123.294 131.235L129.143 127.001L134.075 120.575L135.586 114.681L136.054 110.348L132.149 113.731L134.111 107.972L132.692 108.477L132.637 104.202L130.786 109.156L127.926 107.141L127.953 117.613L123.602 119.131L120.083 122.214L121.334 115.588L118.246 113.295L115.476 105.845L114.332 112.862L112.85 104.195L108.689 113.955L110.043 118.766L105.439 123.948L97.9414 120.715L95.0337 116.397L86.6714 108.199L89.4227 117.976L85.2146 111.971L85.7582 122.438L83.4204 125.297L84.7292 129.948L77.8023 129.024L69.1407 122.07L70.9007 128.324L66.4429 123.809L68.2731 130.312L64.3218 132.818L65.2909 135.54L67.738 135.997L76.8287 137.2C76.8287 137.2 73.7842 138.672 71.679 138.882C69.5738 139.093 61.6245 135.38 61.6245 135.38L65.7989 140.304C65.7989 140.304 70.0685 142.666 73.0177 143.64C75.9669 144.613 77.9631 145.23 81.2364 145.292C84.5096 145.353 87.6794 143.619 89.6908 143.884C91.7022 144.15 92.6264 145.214 94.6397 145.464C96.653 145.715 100.445 143.283 101.769 144.381C103.094 145.478 104.772 147.965 104.772 147.965L107.51 147.194L107.294 144.944L109.784 144.243Z" fill="#CAB8FF"/>
<path d="M176.004 326C176.004 183.5 110.594 172.261 106.827 146.571" stroke="#CAB8FF" stroke-width="4"/>
<defs>
<linearGradient id="paint0_linear_482_2544" x1="78.8064" y1="126.585" x2="35.6519" y2="201.33" gradientUnits="userSpaceOnUse">
<stop stop-color="white"/>
<stop offset="0.639423" stop-color="white"/>
</linearGradient>
<linearGradient id="paint1_linear_482_2544" x1="78.8064" y1="126.585" x2="35.6519" y2="201.33" gradientUnits="userSpaceOnUse">
<stop stop-color="white"/>
<stop offset="0.639423" stop-color="white"/>
</linearGradient>
<linearGradient id="paint2_linear_482_2544" x1="78.8064" y1="126.585" x2="35.6519" y2="201.33" gradientUnits="userSpaceOnUse">
<stop stop-color="white"/>
<stop offset="0.639423" stop-color="white"/>
</linearGradient>
<linearGradient id="paint3_linear_482_2544" x1="78.8064" y1="126.585" x2="35.6519" y2="201.33" gradientUnits="userSpaceOnUse">
<stop stop-color="white"/>
<stop offset="0.639423" stop-color="white"/>
</linearGradient>
<linearGradient id="paint4_linear_482_2544" x1="78.8064" y1="126.585" x2="35.6519" y2="201.33" gradientUnits="userSpaceOnUse">
<stop stop-color="white"/>
<stop offset="0.639423" stop-color="white"/>
</linearGradient>
<linearGradient id="paint5_linear_482_2544" x1="78.8064" y1="126.585" x2="35.6519" y2="201.33" gradientUnits="userSpaceOnUse">
<stop stop-color="white"/>
<stop offset="0.639423" stop-color="white"/>
</linearGradient>
<linearGradient id="paint6_linear_482_2544" x1="78.8064" y1="126.585" x2="35.6519" y2="201.33" gradientUnits="userSpaceOnUse">
<stop stop-color="white"/>
<stop offset="0.639423" stop-color="white"/>
</linearGradient>
<linearGradient id="paint7_linear_482_2544" x1="78.8064" y1="126.585" x2="35.6519" y2="201.33" gradientUnits="userSpaceOnUse">
<stop stop-color="white"/>
<stop offset="0.639423" stop-color="white"/>
</linearGradient>
<linearGradient id="paint8_linear_482_2544" x1="48.3399" y1="116.991" x2="48.3399" y2="203.133" gradientUnits="userSpaceOnUse">
<stop stop-color="white"/>
<stop offset="0.639423" stop-color="white"/>
</linearGradient>
<linearGradient id="paint9_linear_482_2544" x1="48.3399" y1="116.991" x2="48.3399" y2="203.133" gradientUnits="userSpaceOnUse">
<stop stop-color="white"/>
<stop offset="0.639423" stop-color="white"/>
</linearGradient>
<linearGradient id="paint10_linear_482_2544" x1="48.3399" y1="116.991" x2="48.3399" y2="203.133" gradientUnits="userSpaceOnUse">
<stop stop-color="white"/>
<stop offset="0.639423" stop-color="white"/>
</linearGradient>
<linearGradient id="paint11_linear_482_2544" x1="48.3399" y1="116.991" x2="48.3399" y2="203.133" gradientUnits="userSpaceOnUse">
<stop stop-color="white"/>
<stop offset="0.639423" stop-color="white"/>
</linearGradient>
<linearGradient id="paint12_linear_482_2544" x1="48.3399" y1="116.991" x2="48.3399" y2="203.133" gradientUnits="userSpaceOnUse">
<stop stop-color="white"/>
<stop offset="0.639423" stop-color="white"/>
</linearGradient>
<linearGradient id="paint13_linear_482_2544" x1="48.3399" y1="116.991" x2="48.3399" y2="203.133" gradientUnits="userSpaceOnUse">
<stop stop-color="white"/>
<stop offset="0.639423" stop-color="white"/>
</linearGradient>
<linearGradient id="paint14_linear_482_2544" x1="48.3399" y1="116.991" x2="48.3399" y2="203.133" gradientUnits="userSpaceOnUse">
<stop stop-color="white"/>
<stop offset="0.639423" stop-color="white"/>
</linearGradient>
<linearGradient id="paint15_linear_482_2544" x1="48.3399" y1="116.991" x2="48.3399" y2="203.133" gradientUnits="userSpaceOnUse">
<stop stop-color="white"/>
<stop offset="0.639423" stop-color="white"/>
</linearGradient>
</defs>
</svg>
