<svg width="123" height="234" viewBox="0 0 123 234" fill="none" xmlns="http://www.w3.org/2000/svg">
<path d="M68.2204 52.2428L63.9724 50.357L62.7065 47.5752C62.7065 47.5752 57.6539 47.3008 54.617 46.2976C51.5802 45.2944 48.7645 43.5368 46.4452 41.786C44.1259 40.0352 42.8618 38.9332 41.0506 36.6608C39.2394 34.3884 36.1698 27.1403 36.1698 27.1403L43.8731 33.2248L50.2087 37.6321L54.3457 40.5287L64.2253 43.3088L54.7099 39.2345L48.8609 35.0005L43.9292 28.5751L42.418 22.6807L41.9501 18.3479L45.8552 21.731L43.8925 15.9721L45.3118 16.4774L45.3669 12.2015L47.2178 17.1559L50.0775 15.1407L50.051 25.6127L54.4023 27.1313L57.9212 30.2143L56.6704 23.5885L59.758 21.2954L62.5276 13.8449L63.6723 20.8621L65.1541 12.1946L69.3144 21.9552L67.9607 26.7656L72.5648 31.9482L80.0625 28.7146L82.9702 24.3969L91.3325 16.1986L88.5812 25.9758L92.7893 19.9713L92.2458 30.4376L94.5835 33.2965L93.2747 37.9476L100.202 37.0243L108.863 30.0697L107.103 36.3239L111.561 31.8086L109.731 38.3123L113.682 40.8178L112.713 43.5401L110.266 43.9966L101.175 45.1999C101.175 45.1999 104.22 46.6716 106.325 46.8823C108.43 47.0929 116.379 43.3804 116.379 43.3804L112.205 48.3037C112.205 48.3037 107.935 50.6664 104.986 51.6396C102.037 52.6127 100.041 53.2304 96.7675 53.2918C93.4943 53.3531 90.3245 51.6188 88.3131 51.8843C86.3017 52.1497 85.3775 53.214 83.3642 53.4645C81.3509 53.7149 77.5592 51.2833 76.2345 52.3809C74.9098 53.4784 73.2323 55.9648 73.2323 55.9648L70.4938 55.1941L70.7103 52.9435L68.2204 52.2428Z" fill="#CAB8FF"/>
<path d="M2 234C1.99947 91.5 67.4102 80.261 71.1764 54.5713" stroke="#CAB8FF" stroke-width="4"/>
</svg>
