<svg width="115" height="164" viewBox="0 0 115 164" fill="none" xmlns="http://www.w3.org/2000/svg">
<path d="M30.1747 67.1077L45.0851 61.3897L47.9066 64.5364L56.6292 62.8936L56.857 68.2918L66.473 75.8103L67.7818 64.3722L65.1926 61.8455L67.9484 61.0713L70.7042 60.2972L77.1447 61.0106L71.7381 62.088L79.9118 69.9365L83.3463 80.0185L82.5313 93.1823L79.4419 90.4417L70.0707 86.1751L63.3329 79.5084L63.7036 75.147L60.944 90.816L50.3833 97.5416L51.5349 89.9645L49.9568 87.2311L54.3137 69.7602L49.227 72.697L34.0611 81.4531L22.6405 80.3805L30.1747 67.1077Z" fill="url(#paint0_linear_1114_7208)" fill-opacity="0.7" style="mix-blend-mode:plus-lighter"/>
<path d="M39.4327 33.1085L49.8378 39.166L53.7016 45.8582L39.5934 41.436L40.3006 48.3169L48.4221 53.682L45.3072 56.9885L53.0919 56.767L45.0851 61.3897L40.2205 59.9253L29.6496 61.6298L33.7943 59.2368L23.9165 56.2682L19.0312 50.4171L34.5609 50.1226L33.6357 48.5202L27.6557 42.2958L34.3645 42.8211L30.3919 35.9404L33.1303 27.1958L31.7698 24.8394L33.0656 22.0805L39.4327 33.1085Z" fill="url(#paint1_linear_1114_7208)" fill-opacity="0.7" style="mix-blend-mode:plus-lighter"/>
<path d="M39.5934 41.436L53.7016 45.8582L54.0676 51.9307L53.0919 56.767L45.3072 56.9885L48.4221 53.682L40.3006 48.3169L39.5934 41.436Z" fill="url(#paint2_linear_1114_7208)" fill-opacity="0.7" style="mix-blend-mode:plus-lighter"/>
<path fill-rule="evenodd" clip-rule="evenodd" d="M45.0851 61.3897L53.0919 56.767L54.0676 51.9307L53.7016 45.8582L52.3812 37.6976L54.7593 32.6799L59.0524 35.9824L61.9595 42.9756L65.0009 44.1102L69.7169 45.5347L64.5023 52.8183L61.959 54.2867L67.9484 61.0713L65.1926 61.8455L67.7818 64.3722L66.473 75.8103L56.857 68.2918L56.6292 62.8936L47.9066 64.5364L45.0851 61.3897ZM60.8849 58.3001L59.4156 55.7552L55.9178 55.1354L56.6775 58.8441L60.8849 58.3001Z" fill="url(#paint3_linear_1114_7208)" fill-opacity="0.7" style="mix-blend-mode:plus-lighter"/>
<path d="M66.8573 51.4587L75.0147 50.1423L84.0212 57.0404L77.1447 61.0106L70.7042 60.2972L67.9484 61.0713L61.959 54.2867L64.5023 52.8183L66.8573 51.4587Z" fill="url(#paint4_linear_1114_7208)" fill-opacity="0.7" style="mix-blend-mode:plus-lighter"/>
<path d="M59.4156 55.7552L60.8849 58.3001L56.6775 58.8441L55.9178 55.1354L59.4156 55.7552Z" fill="url(#paint5_linear_1114_7208)" fill-opacity="0.7" style="mix-blend-mode:plus-lighter"/>
<path d="M75.0147 50.1423L66.8573 51.4587L64.5023 52.8183L69.7169 45.5347L65.0009 44.1102L61.9595 42.9756L59.0524 35.9824L54.7593 32.6799L52.3812 37.6976L53.7016 45.8582L49.8378 39.166L51.5426 22.975L60.7698 16.7679L65.1466 20.6504L63.9676 31.0082L66.6694 40.2563L67.8313 37.7004L78.2873 31.6636L90.3944 35.2304L81.0688 40.6145L77.9663 46.553L74.5815 46.9991L75.0147 50.1423Z" fill="url(#paint6_linear_1114_7208)" fill-opacity="0.7" style="mix-blend-mode:plus-lighter"/>
<path d="M91.7181 61.2351L85.3673 59.3719L77.1447 61.0106L84.0212 57.0404L75.0147 50.1423L87.6474 47.8758L101.006 53.6104L105.322 58.9105L91.7181 61.2351Z" fill="url(#paint7_linear_1114_7208)" fill-opacity="0.7" style="mix-blend-mode:plus-lighter"/>
<path d="M38.1684 48.4677L53.9095 50.9661L54.778 55.094L63.1371 58.0269L60.6403 62.8065L65.1998 74.1038L72.039 64.8704L71.062 61.3943L73.8303 62.1004L76.5986 62.8065L81.8094 66.6372L76.5986 64.8704L79.7468 75.7332L77.6842 86.1614L70.4106 97.1328L69.1079 93.2222L63.1371 84.8579L60.6403 75.7332L63.1371 72.1485L52.9325 84.3147L40.4481 84.8579L45.2247 78.8834V75.7332L57.7091 62.8065H51.8469H34.3688L25.0326 56.1802L38.1684 48.4677Z" fill="url(#paint8_linear_1114_7208)" fill-opacity="0.7" style="mix-blend-mode:plus-lighter"/>
<path d="M63.1371 23.7006L69.1079 34.1289V41.8414L59.1204 30.9787L56.2979 37.2791L60.6403 45.9692L56.2979 47.2728L63.1371 50.9661H53.9095L50.4356 47.2728L40.4481 43.4708H45.2247L38.1684 35.9755L36.8656 28.4802L50.4356 35.9755V34.1289L48.373 25.7645L53.9095 29.5665V21.6367L60.6403 15.4449V12.7293L63.1371 10.9912V23.7006Z" fill="url(#paint9_linear_1114_7208)" fill-opacity="0.7" style="mix-blend-mode:plus-lighter"/>
<path d="M59.1204 30.9787L69.1079 41.8414L66.3939 47.2728L63.1371 50.9661L56.2979 47.2728L60.6403 45.9692L56.2979 37.2791L59.1204 30.9787Z" fill="url(#paint10_linear_1114_7208)" fill-opacity="0.7" style="mix-blend-mode:plus-lighter"/>
<path fill-rule="evenodd" clip-rule="evenodd" d="M53.9095 50.9661H63.1371L66.3939 47.2728L69.1079 41.8414L72.039 34.1289L76.5986 30.9787L78.6612 35.9755L77.6842 43.4708L79.7468 45.9692L83.1122 49.554L74.9702 53.2473H72.039L73.8303 62.1004L71.062 61.3943L72.039 64.8704L65.1998 74.1038L60.6403 62.8065L63.1371 58.0269L54.778 55.094L53.9095 50.9661ZM69.1079 56.1802V53.2473L66.3939 50.9661L65.1998 54.5508L69.1079 56.1802Z" fill="url(#paint11_linear_1114_7208)" fill-opacity="0.7" style="mix-blend-mode:plus-lighter"/>
<path d="M77.6842 53.2473L85.3919 56.1802L89.7343 66.6372H81.8094L76.5986 62.8065L73.8303 62.1004L72.039 53.2473H74.9702H77.6842Z" fill="url(#paint12_linear_1114_7208)" fill-opacity="0.7" style="mix-blend-mode:plus-lighter"/>
<path d="M69.1079 53.2473V56.1802L65.1998 54.5508L66.3939 50.9661L69.1079 53.2473Z" fill="url(#paint13_linear_1114_7208)" fill-opacity="0.7" style="mix-blend-mode:plus-lighter"/>
<path d="M85.3919 56.1802L77.6842 53.2473H74.9702L83.1122 49.554L79.7468 45.9692L77.6842 43.4708L78.6612 35.9755L76.5986 30.9787L72.039 34.1289L69.1079 41.8414V34.1289L78.6612 20.9849L89.7343 20.2245L91.5798 25.7645L85.3919 34.1289L83.1122 43.4708L85.3919 41.8414H97.4421L106.127 50.9661H95.3794L89.7343 54.5508L86.5861 53.2473L85.3919 56.1802Z" fill="url(#paint14_linear_1114_7208)" fill-opacity="0.7" style="mix-blend-mode:plus-lighter"/>
<path d="M94.2938 74.1038L89.7343 69.3242L81.8094 66.6372H89.7343L85.3919 56.1802L97.4421 60.5253L106.127 72.1485L107.212 78.8834L94.2938 74.1038Z" fill="url(#paint15_linear_1114_7208)" fill-opacity="0.7" style="mix-blend-mode:plus-lighter"/>
<path d="M48.2689 84.3777C36.9875 99.6569 6.27836 128.778 53.4708 160.881L51.8189 163.047C12.8347 132.331 22.5485 116.644 46.2223 83.4352L48.2689 84.3777Z" fill="white" fill-opacity="0.2"/>
<defs>
<linearGradient id="paint0_linear_1114_7208" x1="35.6561" y1="20.5849" x2="78.8105" y2="95.3305" gradientUnits="userSpaceOnUse">
<stop stop-color="white"/>
<stop offset="0.639423" stop-color="white"/>
</linearGradient>
<linearGradient id="paint1_linear_1114_7208" x1="35.6561" y1="20.5849" x2="78.8105" y2="95.3305" gradientUnits="userSpaceOnUse">
<stop stop-color="white"/>
<stop offset="0.639423" stop-color="white"/>
</linearGradient>
<linearGradient id="paint2_linear_1114_7208" x1="35.6561" y1="20.5849" x2="78.8105" y2="95.3305" gradientUnits="userSpaceOnUse">
<stop stop-color="white"/>
<stop offset="0.639423" stop-color="white"/>
</linearGradient>
<linearGradient id="paint3_linear_1114_7208" x1="35.6561" y1="20.5849" x2="78.8105" y2="95.3305" gradientUnits="userSpaceOnUse">
<stop stop-color="white"/>
<stop offset="0.639423" stop-color="white"/>
</linearGradient>
<linearGradient id="paint4_linear_1114_7208" x1="35.6561" y1="20.5849" x2="78.8105" y2="95.3305" gradientUnits="userSpaceOnUse">
<stop stop-color="white"/>
<stop offset="0.639423" stop-color="white"/>
</linearGradient>
<linearGradient id="paint5_linear_1114_7208" x1="35.6561" y1="20.5849" x2="78.8105" y2="95.3305" gradientUnits="userSpaceOnUse">
<stop stop-color="white"/>
<stop offset="0.639423" stop-color="white"/>
</linearGradient>
<linearGradient id="paint6_linear_1114_7208" x1="35.6561" y1="20.5849" x2="78.8105" y2="95.3305" gradientUnits="userSpaceOnUse">
<stop stop-color="white"/>
<stop offset="0.639423" stop-color="white"/>
</linearGradient>
<linearGradient id="paint7_linear_1114_7208" x1="35.6561" y1="20.5849" x2="78.8105" y2="95.3305" gradientUnits="userSpaceOnUse">
<stop stop-color="white"/>
<stop offset="0.639423" stop-color="white"/>
</linearGradient>
<linearGradient id="paint8_linear_1114_7208" x1="66.1225" y1="10.9912" x2="66.1225" y2="97.1328" gradientUnits="userSpaceOnUse">
<stop stop-color="white"/>
<stop offset="0.639423" stop-color="white"/>
</linearGradient>
<linearGradient id="paint9_linear_1114_7208" x1="66.1225" y1="10.9912" x2="66.1225" y2="97.1328" gradientUnits="userSpaceOnUse">
<stop stop-color="white"/>
<stop offset="0.639423" stop-color="white"/>
</linearGradient>
<linearGradient id="paint10_linear_1114_7208" x1="66.1225" y1="10.9912" x2="66.1225" y2="97.1328" gradientUnits="userSpaceOnUse">
<stop stop-color="white"/>
<stop offset="0.639423" stop-color="white"/>
</linearGradient>
<linearGradient id="paint11_linear_1114_7208" x1="66.1225" y1="10.9912" x2="66.1225" y2="97.1328" gradientUnits="userSpaceOnUse">
<stop stop-color="white"/>
<stop offset="0.639423" stop-color="white"/>
</linearGradient>
<linearGradient id="paint12_linear_1114_7208" x1="66.1225" y1="10.9912" x2="66.1225" y2="97.1328" gradientUnits="userSpaceOnUse">
<stop stop-color="white"/>
<stop offset="0.639423" stop-color="white"/>
</linearGradient>
<linearGradient id="paint13_linear_1114_7208" x1="66.1225" y1="10.9912" x2="66.1225" y2="97.1328" gradientUnits="userSpaceOnUse">
<stop stop-color="white"/>
<stop offset="0.639423" stop-color="white"/>
</linearGradient>
<linearGradient id="paint14_linear_1114_7208" x1="66.1225" y1="10.9912" x2="66.1225" y2="97.1328" gradientUnits="userSpaceOnUse">
<stop stop-color="white"/>
<stop offset="0.639423" stop-color="white"/>
</linearGradient>
<linearGradient id="paint15_linear_1114_7208" x1="66.1225" y1="10.9912" x2="66.1225" y2="97.1328" gradientUnits="userSpaceOnUse">
<stop stop-color="white"/>
<stop offset="0.639423" stop-color="white"/>
</linearGradient>
</defs>
</svg>
