<svg width="235" height="202" viewBox="0 0 235 202" fill="none" xmlns="http://www.w3.org/2000/svg">
<path d="M95.9633 116.274L86.2875 98.8731L73.9945 94.5246L64.8899 89.9441L52.4438 87.9932C52.4438 87.9932 45.1953 88.8077 42.7552 91.8999C40.7928 94.3869 40.6781 96.5619 40.8086 99.7815C40.9247 102.645 41.6409 104.286 42.8931 106.977C45.5605 112.708 49.0103 115.184 54.2663 119.085C59.4137 122.905 62.8697 124.514 68.9738 126.484C74.6166 128.305 78.1052 129.621 83.8474 129.018C88.4304 128.536 94.7769 125.261 94.7769 125.261L95.9633 116.274Z" fill="white" fill-opacity="0.7"/>
<path d="M86.2875 98.8731L95.9633 116.274L111.993 120.347L116.453 118.286L129.031 112.474L124.019 103.247L117.856 100.146L111.692 97.0457L101.795 88.6337L90.7993 83.1019L87.1673 95.7977L86.2875 98.8731Z" fill="white" fill-opacity="0.7"/>
<path d="M111.993 120.347L95.9633 116.274L94.7769 125.261L93.809 132.593C93.809 132.593 95.8578 141.305 99.0132 146.147C101.964 150.675 104.03 153.369 108.766 156.242C113.23 158.951 116.5 161.025 121.493 160.251C122.92 160.03 123.797 159.931 124.996 159.219C128.465 157.163 127.006 149.294 127.006 149.294L125.692 142.486L115.312 128.403L111.993 120.347Z" fill="white" fill-opacity="0.7"/>
<path d="M115.312 128.403L125.692 142.486L141.303 148.264L158.487 151.96L166.016 150.428L172.504 150.79L170.1 145.276L159.945 140.167L148.834 133.294L140.668 128.068L116.453 118.286L111.993 120.347L115.312 128.403Z" fill="white" fill-opacity="0.7"/>
<path d="M125.692 142.486L127.006 149.294C127.006 149.294 130.677 154.447 133.852 156.969C137.696 160.021 140.478 161.032 145.127 162.641C150.214 164.402 153.463 166.081 158.592 165.185C160.943 164.774 162.459 164.578 164.259 163.166C166.574 161.351 167.592 156.541 167.592 156.541L166.016 150.428L158.487 151.96L141.303 148.264L125.692 142.486Z" fill="white" fill-opacity="0.7"/>
<path d="M116.453 118.286L140.668 128.068L148.834 133.294L164.791 133.499L183.176 129.576L201.273 120.081L180.699 124.208L180.621 116.436L164.485 114.745L155.99 119.332L144.819 123.131L135.242 123.502L116.453 118.286Z" fill="white" fill-opacity="0.7"/>
<path d="M124.019 103.247L129.031 112.474L116.453 118.286L135.242 123.502L144.819 123.131L155.99 119.332L164.485 114.745L166.825 110.094L164.122 102.907L148.479 97.1924L140.977 96.4915L133.475 95.7906L122.858 98.7514L117.856 100.146L124.019 103.247Z" fill="white" fill-opacity="0.7"/>
<path d="M148.479 97.1924L164.122 102.907L166.825 110.094L164.485 114.745L181.774 107.366L186.774 97.4283L202.63 90.9081L184.675 88.4164L195.452 72.5553L174.981 93.8821L172.311 80.524L155.818 92.024L140.977 96.4915L148.479 97.1924Z" fill="white" fill-opacity="0.7"/>
<path d="M133.475 95.7906L140.977 96.4915L155.818 92.024L161.202 81.3217L155.557 75.129L145.776 79.1892L141.069 69.3566L136.422 78.5937L129.521 76.9582L117.758 79.5816L122.03 81.7309L131.39 88.5952L130.463 94.2755L122.858 98.7514L133.475 95.7906Z" fill="white" fill-opacity="0.7"/>
<path d="M101.795 88.6337L111.692 97.0457L117.856 100.146L122.858 98.7514L130.463 94.2755L114.425 86.2068L104.286 74.9593L101.795 88.6337Z" fill="white" fill-opacity="0.7"/>
<path d="M90.7993 83.1019L101.795 88.6337L104.286 74.9593L114.425 86.2068L130.463 94.2755L131.39 88.5952L122.03 81.7309L117.758 79.5816L112.083 68.1848L116.147 60.106L106.631 57.109L112.699 50.5335L107.043 45.5807L94.7161 49.3242L95.7239 56.0432L96.1656 67.2018L92.9786 78.77L90.7993 83.1019Z" fill="white" fill-opacity="0.7"/>
<path d="M95.7239 56.0432L94.7161 49.3242L108.863 30.3853L98.5094 31.1433L89.9095 20.8496L81.3805 27.2995L72.9526 28.4299L76.9544 46.6003L83.1579 53.6329L88.8333 65.0297L92.9786 78.77L96.1656 67.2018L95.7239 56.0432Z" fill="white" fill-opacity="0.7"/>
<path d="M90.7993 83.1019L92.9786 78.77L88.8333 65.0297L83.1579 53.6329L76.9544 46.6003L69.4606 42.8302L66.3519 53.7193L66.1775 64.0092L70.146 79.4966L75.0758 88.363L87.1673 95.7977L90.7993 83.1019Z" fill="white" fill-opacity="0.7"/>
<path d="M73.9945 94.5246L86.2875 98.8731L87.1673 95.7977L75.0758 88.363L70.146 79.4966L66.1775 64.0092L66.3519 53.7193L53.8007 47.4049L40.2143 21.9046L45.2872 56.0825L47.3539 68.03L56.324 80.2805L64.8899 89.9441L73.9945 94.5246Z" fill="white" fill-opacity="0.7"/>
<path d="M109.715 123.215L101.768 104.516L90.0262 98.8371L81.4556 93.2469L69.34 89.9931C69.34 89.9931 62.1032 90.0839 59.4059 92.9831C57.2365 95.3147 56.9216 97.5171 56.7521 100.808C56.6014 103.735 57.1568 105.478 58.1447 108.345C60.2488 114.45 63.4276 117.322 68.2588 121.828C72.9902 126.242 76.2555 128.232 82.1036 130.859C87.5098 133.287 90.8345 134.982 96.5635 134.953C101.136 134.93 107.71 132.242 107.71 132.242L109.715 123.215Z" fill="white" fill-opacity="0.7"/>
<path d="M101.768 104.516L109.715 123.215L125.174 128.994L129.771 127.35L142.737 122.715L138.64 112.812L132.839 109.028L127.037 105.244L118.038 95.6726L107.688 88.9214L102.923 101.475L101.768 104.516Z" fill="white" fill-opacity="0.7"/>
<path d="M125.174 128.994L109.715 123.215L107.71 132.242L106.074 139.607C106.074 139.607 107.291 148.684 109.959 153.935C112.455 158.844 114.247 161.798 118.659 165.205C122.819 168.416 125.857 170.861 130.862 170.581C132.292 170.502 133.167 170.49 134.418 169.888C138.036 168.148 137.324 159.989 137.324 159.989L136.656 152.925L127.707 137.533L125.174 128.994Z" fill="white" fill-opacity="0.7"/>
<path d="M127.707 137.533L136.656 152.925L151.544 160.398L168.179 165.911L175.76 165.118L182.136 166.147L180.272 160.29L170.712 154.054L160.372 145.926L152.789 139.774L129.771 127.35L125.174 128.994L127.707 137.533Z" fill="white" fill-opacity="0.7"/>
<path d="M136.656 152.925L137.324 159.989C137.324 159.989 140.473 165.609 143.376 168.499C146.891 171.998 149.546 173.31 153.99 175.423C158.853 177.733 161.907 179.773 167.057 179.383C169.418 179.204 170.934 179.159 172.843 177.906C175.298 176.293 176.75 171.501 176.75 171.501L175.76 165.118L168.179 165.911L151.544 160.398L136.656 152.925Z" fill="white" fill-opacity="0.7"/>
<path d="M129.771 127.35L152.789 139.774L160.372 145.926L176.119 147.76L194.646 145.64L213.406 137.818L192.696 139.923L193.339 132.004L177.554 128.638L168.736 132.442L157.348 135.172L147.852 134.574L129.771 127.35Z" fill="white" fill-opacity="0.7"/>
<path d="M138.64 112.812L142.737 122.715L129.771 127.35L147.852 134.574L157.348 135.172L168.736 132.442L177.554 128.638L180.297 124.143L178.292 116.551L163.367 109.141L156.02 107.663L148.674 106.185L137.91 108.118L132.839 109.028L138.64 112.812Z" fill="white" fill-opacity="0.7"/>
<path d="M163.367 109.141L178.292 116.551L180.297 124.143L177.554 128.638L195.32 122.889L201.18 113.282L217.45 108.26L199.942 103.895L212.059 88.8465L189.858 108.471L188.458 94.6009L171.098 104.627L156.02 107.663L163.367 109.141Z" fill="white" fill-opacity="0.7"/>
<path d="M148.674 106.185L156.02 107.663L171.098 104.627L177.409 94.2812L172.406 87.4024L162.366 90.539L158.627 80.0504L153.179 88.9798L146.514 86.6121L134.648 88.0842L138.67 90.7073L147.281 98.6482L145.839 104.336L137.91 108.118L148.674 106.185Z" fill="white" fill-opacity="0.7"/>
<path d="M118.038 95.6726L127.037 105.244L132.839 109.028L137.91 108.118L145.839 104.336L130.741 94.4887L121.767 82.0067L118.038 95.6726Z" fill="white" fill-opacity="0.7"/>
<path d="M107.688 88.9214L118.038 95.6726L121.767 82.0067L130.741 94.4887L145.839 104.336L147.281 98.6482L138.67 90.7073L134.648 88.0842L130.098 75.9047L134.862 68.0951L125.739 64.0749L132.342 57.9995L127.214 52.3817L114.688 54.9367L115.061 61.8788L114.463 73.2827L110.242 84.7338L107.688 88.9214Z" fill="white" fill-opacity="0.7"/>
<path d="M115.061 61.8788L114.688 54.9367L130.42 37.099L120.121 36.8159L112.578 25.4614L103.554 31.1582L95.1228 31.4504L97.3923 50.3545L102.869 58.1451L107.42 70.3246L110.242 84.7338L114.463 73.2827L115.061 61.8788Z" fill="white" fill-opacity="0.7"/>
<path d="M107.688 88.9214L110.242 84.7338L107.42 70.3246L102.869 58.1451L97.3923 50.3545L90.3381 45.7533L86.2575 56.5211L85.1315 66.9779L87.6168 83.1475L91.6656 92.6752L102.923 101.475L107.688 88.9214Z" fill="white" fill-opacity="0.7"/>
<path d="M90.0262 98.8371L101.768 104.516L102.923 101.475L91.6656 92.6752L87.6168 83.1475L85.1315 66.9779L86.2575 56.5211L74.4425 48.8148L63.383 21.4729L65.2271 56.7808L66.1616 69.1533L73.8884 82.5374L81.4556 93.2469L90.0262 98.8371Z" fill="white" fill-opacity="0.7"/>
</svg>
