<svg width="249" height="146" viewBox="0 0 249 146" fill="none" xmlns="http://www.w3.org/2000/svg">
<path d="M-171 146L-152.794 140.113L-141.363 117.27L-152.794 110.205L-141.363 82.4164L166.016 33.6689L249 27.7816L229.101 15.5358L210.895 18.1263V11.7679H192.69L202.427 8L25.0282 11.7679L-5.45564 22.8362H-87.1694V27.7816H-171V146Z" fill="#D9D9D9" fill-opacity="0.6"/>
<path d="M-204 138L-185.794 132.113L-174.363 109.27L-185.794 102.205L-174.363 74.4164L133.016 25.6689L216 19.7816L196.101 7.53584L177.895 10.1263V3.76792H159.69L169.427 0L-7.97177 3.76792L-38.4556 14.8362H-120.169V19.7816H-204V138Z" fill="#D9D9D9" fill-opacity="0.6"/>
</svg>
