<svg width="563" height="100" viewBox="0 0 563 100" fill="none" xmlns="http://www.w3.org/2000/svg">
<path d="M116.73 11.1111L56.1204 30.3704H34.5702L0 65.5555H24.7189L81.2624 40L99.6698 75.5555H116.73L165.218 65.5555V100L219.992 84.8148L232.114 93.7037L246.93 100L341.212 84.8148L391.945 100L429.209 93.7037L475.003 65.5555L540.103 75.5555L563 51.1111L520.348 40L511.818 30.3704L497.002 40L475.003 18.1481H451.208L429.209 0V40L382.517 30.3704L364.558 51.1111L352.885 30.3704L292.724 11.1111V40L273.868 24.4444L239.746 51.1111L191.258 11.1111V40H165.218V11.1111L142.77 30.3704L116.73 11.1111Z" fill="white"/>
</svg>
