<svg width="320" height="152" viewBox="0 0 320 152" fill="none" xmlns="http://www.w3.org/2000/svg">
<path d="M0.000467419 35.1232L45.6127 39.0464L109.702 53.6292L131.137 63.0953L170.926 57.9935L212.748 44.4879L242.086 48.8691L319.403 21.0405L274.397 9.71098L257.815 7.76566L235.82 -6.27605e-05L164.043 4.31752L131.85 1.93103L0.000467419 35.1232Z" fill="black"/>
<path d="M105.281 73.7394L109.702 53.6292L45.6127 39.0464L0.000467419 35.1232L16.8657 69.6045L3.78673 107.111L122.234 151.367L118.947 125.731L109.184 104.182L122.387 91.9036L105.281 73.7394Z" fill="url(#paint0_linear_335_758)"/>
<path d="M109.702 53.6292L105.281 73.7394L122.387 91.9036L109.184 104.182L118.947 125.731L122.234 151.367L181.301 138.908L293.975 113.875L308.209 55.0481L319.403 21.0405L242.086 48.8691L212.748 44.4879L170.926 57.9935L131.137 63.0953L109.702 53.6292Z" fill="black"/>
<defs>
<linearGradient id="paint0_linear_335_758" x1="153.274" y1="-0.816093" x2="171.97" y2="144.99" gradientUnits="userSpaceOnUse">
<stop offset="0.8125" stop-color="#121212"/>
<stop offset="1" stop-color="#272727"/>
</linearGradient>
</defs>
</svg>
