<svg width="180" height="241" viewBox="0 0 180 241" fill="none" xmlns="http://www.w3.org/2000/svg">
<path d="M93.1916 70.3163L113.7 74.812L137.652 66.4899L166.552 70.29L176.167 69.0705L179.957 63.828L169.819 62.1337L167.431 58.8114L171.396 52.287L165.049 41.9706L161.845 40.6873L155.559 26.0008L156.088 15.396L145.714 19.3538L140.239 14.4568L137.797 1.9862L135.697 7.22949L126.086 -5.73617e-05L106.565 2.3222L95.958 6.86257L95.4817 29.9951L93.3758 48.7568L93.1916 70.3163Z" fill="url(#paint0_linear_335_764)"/>
<path d="M106.512 204.806L137.654 145.619L135.457 105.529L114.082 82.0955L93.9222 80.1056L75.0195 80.1056L58.7271 81.8965L34.3648 95.4625L26.2034 104.024L0.247361 164.613L0.000747542 195.612L21.5542 209.314L49.927 218.65L74.1044 228.333L88.5538 231.078L103.525 240.116L115.006 235.926L100.096 220.827L106.512 204.806Z" fill="url(#paint1_linear_335_764)"/>
<path d="M114.082 82.0955L112.939 82.6197L94.003 80.1058L93.9222 80.1056L114.082 82.0955Z" fill="#0B0B0B"/>
<path d="M94.003 80.1058L112.939 82.6197L114.456 78.8328L93.1314 74.6865L94.003 80.1058Z" fill="#0B0B0B"/>
<path d="M93.1314 74.6865L114.456 78.8328L113.7 74.812L93.1916 70.3163L93.1314 74.6865Z" fill="#0B0B0B"/>
<defs>
<linearGradient id="paint0_linear_335_764" x1="137.145" y1="1.72489" x2="49.5183" y2="220.514" gradientUnits="userSpaceOnUse">
<stop offset="0.572115" stop-color="#0B0B0B"/>
<stop offset="1" stop-color="#282828"/>
</linearGradient>
<linearGradient id="paint1_linear_335_764" x1="137.145" y1="1.72489" x2="49.5183" y2="220.514" gradientUnits="userSpaceOnUse">
<stop offset="0.572115" stop-color="#0B0B0B"/>
<stop offset="1" stop-color="#282828"/>
</linearGradient>
</defs>
</svg>
