<svg width="165" height="228" viewBox="0 0 165 228" fill="none" xmlns="http://www.w3.org/2000/svg">
<path d="M146.109 64.1367L139.905 17.0572L75.9859 30.659L5.50591 34.7694L11.2912 78.6679L7.7959 82.3648L12.8004 90.1196L21.1849 153.741L17.2704 154.257L21.7718 158.194L30.1563 221.815L42.1698 227.352L151.124 212.993L164.136 200.922L156.758 144.935L162.695 139.622L155.584 136.028L147.199 72.4075L153.304 68.3666L146.109 64.1367Z" fill="url(#paint0_linear_335_766)"/>
<path d="M139.905 17.0572L145.423 8.56285L117.081 9.96719e-05L29.656 11.5216L-0.00167402 23.1973L5.50591 34.7694L75.9859 30.659L139.905 17.0572Z" fill="url(#paint1_linear_335_766)"/>
<defs>
<linearGradient id="paint0_linear_335_766" x1="146.131" y1="130.585" x2="18.2067" y2="162.311" gradientUnits="userSpaceOnUse">
<stop offset="0.254808"/>
<stop offset="1" stop-color="#292929"/>
</linearGradient>
<linearGradient id="paint1_linear_335_766" x1="146.131" y1="130.585" x2="18.2067" y2="162.311" gradientUnits="userSpaceOnUse">
<stop offset="0.254808"/>
<stop offset="1" stop-color="#292929"/>
</linearGradient>
</defs>
</svg>
