<svg width="192" height="298" viewBox="0 0 192 298" fill="none" xmlns="http://www.w3.org/2000/svg">
<path d="M102.609 91.9883L76.9995 92.7681L50.1423 77.3997L14.6247 75.4581L3.36667 71.8331L0.000182118 64.6927L12.541 64.9407L16.1519 61.4927L12.8634 52.7755L22.796 41.8292L26.9278 41.0106L37.7711 24.8091L39.5216 11.9706L51.0738 19.0506L58.7421 14.4085L64.4755 0.000101456L65.8151 6.76129L78.9689 0.251573L101.861 7.42718L113.562 15.2584L108.93 43.1112L107.237 66.088L102.609 91.9883Z" fill="url(#paint0_linear_335_759)"/>
<path d="M55.2289 254.789L31.1884 176.794L42.8394 129.204L73.7465 105.904L98.3746 108.051L140.186 118.115L166.355 139.865L174.219 151.97L191.725 230.479L185.049 267.715L156.116 279.303L119.985 284.119L88.8085 290.296L70.8601 290.338L50.8707 297.812L38.0427 290.204L59.322 275.448L55.2289 254.789Z" fill="url(#paint1_linear_335_759)"/>
<path d="M73.7465 105.904L76.1562 102.304L87.7951 102.926L99.4341 103.548L98.3746 108.051L73.7465 105.904Z" fill="black"/>
<path d="M99.4341 103.548L87.7951 102.926L76.1562 102.304L75.1887 97.4208L101.698 97.2434L99.4341 103.548Z" fill="black"/>
<path d="M101.698 97.2434L75.1887 97.4208L76.9995 92.7681L102.609 91.9883L101.698 97.2434Z" fill="black"/>
<defs>
<linearGradient id="paint0_linear_335_759" x1="63.3487" y1="0.223359" x2="120.056" y2="286.447" gradientUnits="userSpaceOnUse">
<stop offset="0.855769" stop-color="#0B0B0B"/>
</linearGradient>
<linearGradient id="paint1_linear_335_759" x1="63.3487" y1="0.223359" x2="120.056" y2="286.447" gradientUnits="userSpaceOnUse">
<stop offset="0.855769" stop-color="#0B0B0B"/>
</linearGradient>
</defs>
</svg>
