<svg width="149" height="248" viewBox="0 0 149 248" fill="none" xmlns="http://www.w3.org/2000/svg">
<path d="M72.3066 99.081L105.467 94.3453L129.601 109.178L148.344 138.612L146.823 187.092L127.96 221.718L104.427 240.659L107.428 247.683L19.1319 234.943L-0.000876558 195.567L17.2767 161.81L13.058 150.582L27.1606 121.128L72.3066 99.081Z" fill="url(#paint0_linear_335_767)"/>
<path d="M53.0303 -6.76211e-05L96.087 2.55072L103.072 9.78318L101.415 21.2613L96.8094 53.1849L102.35 67.8983L103.196 79.7374L72.6929 83.758L56.2684 71.1358L11.5652 74.9383L3.00504 63.4508L13.48 61.6667L5.02342 49.4618L23.0293 35.9488L31.3414 16.277L45.9977 18.3917L53.0303 -6.76211e-05Z" fill="url(#paint1_linear_335_767)"/>
<path d="M73.6522 89.755L72.6929 83.758L103.196 79.7374L104.564 85.4273L73.6522 89.755Z" fill="url(#paint2_linear_335_767)"/>
<path d="M73.6522 89.755L104.564 85.4273L105.985 90.7584L71.192 94.1601L73.6522 89.755Z" fill="url(#paint3_linear_335_767)"/>
<path d="M71.192 94.1601L105.985 90.7584L105.467 94.3453L72.3066 99.081L71.192 94.1601Z" fill="url(#paint4_linear_335_767)"/>
<defs>
<linearGradient id="paint0_linear_335_767" x1="92.691" y1="2.06073" x2="58.2751" y2="240.591" gradientUnits="userSpaceOnUse">
<stop offset="0.870192"/>
<stop offset="1" stop-color="#353535"/>
</linearGradient>
<linearGradient id="paint1_linear_335_767" x1="92.691" y1="2.06073" x2="58.2751" y2="240.591" gradientUnits="userSpaceOnUse">
<stop offset="0.870192"/>
<stop offset="1" stop-color="#353535"/>
</linearGradient>
<linearGradient id="paint2_linear_335_767" x1="92.691" y1="2.06073" x2="58.2751" y2="240.591" gradientUnits="userSpaceOnUse">
<stop offset="0.870192"/>
<stop offset="1" stop-color="#353535"/>
</linearGradient>
<linearGradient id="paint3_linear_335_767" x1="92.691" y1="2.06073" x2="58.2751" y2="240.591" gradientUnits="userSpaceOnUse">
<stop offset="0.870192"/>
<stop offset="1" stop-color="#353535"/>
</linearGradient>
<linearGradient id="paint4_linear_335_767" x1="92.691" y1="2.06073" x2="58.2751" y2="240.591" gradientUnits="userSpaceOnUse">
<stop offset="0.870192"/>
<stop offset="1" stop-color="#353535"/>
</linearGradient>
</defs>
</svg>
