<svg width="977" height="410" viewBox="0 0 977 410" fill="none" xmlns="http://www.w3.org/2000/svg">
<path d="M57 72H927V94H57V72Z" fill="#D9D9D9"/>
<path d="M933 169H54V303H933V169Z" fill="url(#paint0_linear_985_4972)"/>
<path d="M929 140V169H56V140H929Z" fill="#CCCCCC"/>
<path d="M0 311H63.0229V307.487L56.1832 305.38L57.1603 14.0512L63.0229 10.3042L60.5802 7.25979L64 3.98117L59.6031 0.936747L50.3206 0H14.6565L5.86259 0.936747L0.9771 3.98117L3.9084 7.25979L0.9771 10.3042L7.32824 14.0512V305.38L0 307.487V311Z" fill="#F9F9F9"/>
<path d="M918 311H981.023V307.487L974.183 305.38L975.16 14.0512L981.023 10.3042L978.58 7.25979L982 3.98117L977.603 0.936747L968.321 0H932.656L923.863 0.936747L918.977 3.98117L921.908 7.25979L918.977 10.3042L925.328 14.0512V305.38L918 307.487V311Z" fill="#F9F9F9"/>
<path d="M855.36 347.11L802.59 380.542L662.229 401.499L488.142 409.336V409.483L486.508 409.409L484.876 409.483V409.336L310.787 401.499L170.427 380.542L117.656 347.11V289.727L128.537 297.212L243.327 315.175L456.587 323.658L484.876 322.744V322.639L486.508 322.691L488.142 322.639V322.744L516.43 323.658L729.689 315.175L844.48 297.212L855.36 289.727V347.11Z" fill="url(#paint1_linear_985_4972)"/>
<path d="M878.214 273.759L844.483 297.211L729.693 315.175L516.433 323.657H456.589L243.329 315.175L128.538 297.211L94.8086 273.759V259.787L128.538 277.252L243.329 296.712L456.589 306.192H516.433L729.693 296.712L844.483 277.252L878.214 259.787V273.759Z" fill="#C4C4C4"/>
<path d="M178.045 232.343L170.429 247.312L178.045 255.297L203.07 265.775L300.452 279.248L466.926 285.734H506.097L672.569 279.248L769.951 265.775L794.977 255.297L802.593 247.312L794.977 232.343L788.448 224.858H844.483L878.214 247.312V259.787L844.483 277.252L729.693 296.712L516.433 306.192H456.589L243.329 296.712L128.538 277.252L94.8086 259.787V247.312L128.538 224.858H184.573L178.045 232.343Z" fill="white"/>
<defs>
<linearGradient id="paint0_linear_985_4972" x1="493.5" y1="303" x2="493.5" y2="169" gradientUnits="userSpaceOnUse">
<stop stop-color="#898989"/>
<stop offset="1" stop-color="#A9A9A9"/>
</linearGradient>
<linearGradient id="paint1_linear_985_4972" x1="486.508" y1="289.727" x2="486.508" y2="409.483" gradientUnits="userSpaceOnUse">
<stop stop-color="#8B8B8B"/>
<stop offset="1" stop-color="#A7A7A7"/>
</linearGradient>
</defs>
</svg>
