<svg width="784" height="185" viewBox="0 0 784 185" fill="none" xmlns="http://www.w3.org/2000/svg">
<path d="M760.552 122.252L707.781 155.684L567.421 176.641L393.333 184.478V184.625L391.699 184.551L390.067 184.625V184.478L215.979 176.641L75.6182 155.684L22.8477 122.252V64.8682L33.7285 72.3535L148.519 90.3164L361.778 98.7998L390.067 97.8857V97.7803L391.699 97.833L393.333 97.7803V97.8857L421.621 98.7998L634.881 90.3164L749.672 72.3535L760.552 64.8682V122.252Z" fill="url(#paint0_linear_482_2560)"/>
<path d="M783.405 48.9004L749.675 72.3525L634.885 90.3164L421.624 98.7988H361.78L148.521 90.3164L33.7295 72.3525L0 48.9004V34.9287L33.7295 52.3936L148.521 71.8535L361.78 81.334H421.624L634.885 71.8535L749.675 52.3936L783.405 34.9287V48.9004Z" fill="#C4C4C4"/>
<path d="M83.2363 7.48438L75.6201 22.4541L83.2363 30.4385L108.262 40.917L205.644 54.3896L372.117 60.876H411.288L577.761 54.3896L675.143 40.917L700.168 30.4385L707.784 22.4541L700.168 7.48438L693.64 0H749.675L783.405 22.4541V34.9287L749.675 52.3936L634.885 71.8535L421.624 81.334H361.78L148.521 71.8535L33.7295 52.3936L0 34.9287V22.4541L33.7295 0H89.7646L83.2363 7.48438Z" fill="white"/>
<defs>
<linearGradient id="paint0_linear_482_2560" x1="391.7" y1="64.8682" x2="391.7" y2="184.625" gradientUnits="userSpaceOnUse">
<stop stop-color="#8B8B8B"/>
<stop offset="1" stop-color="#A7A7A7"/>
</linearGradient>
</defs>
</svg>
