<svg width="110" height="115" viewBox="0 0 110 115" fill="none" xmlns="http://www.w3.org/2000/svg">
<path d="M44.6436 25.8354L44.6846 26.3735H25.1201V41.6265L24.7666 41.7349L1.99121 48.7417L0.513672 58.2651L2.34863 63.1177L52.2578 113.615L109.227 57.3081L59.3174 6.81201L42.7285 0.736816L44.6436 25.8354Z" fill="black"/>
<path d="M44.6436 25.8354L45.1421 25.7974V25.7974L44.6436 25.8354ZM44.6846 26.3735L45.1831 26.3355L45.2241 26.8735H44.6846V26.3735ZM25.1201 26.3735H24.6201V25.8735H25.1201V26.3735ZM25.1201 41.6265H25.6201V41.9961L25.2667 42.1045L25.1201 41.6265ZM24.7666 41.7349L24.6196 41.257L24.62 41.2568L24.7666 41.7349ZM1.99121 48.7417L1.49712 48.665L1.5451 48.3558L1.84418 48.2638L1.99121 48.7417ZM0.513672 58.2651L0.04599 58.442L-0.00062561 58.3187L0.0195847 58.1885L0.513672 58.2651ZM2.34863 63.1177L1.99302 63.4692L1.91846 63.3937L1.88095 63.2945L2.34863 63.1177ZM52.2578 113.615L52.6093 113.97L52.2537 114.322L51.9022 113.966L52.2578 113.615ZM109.227 57.3081L109.582 56.9566L109.934 57.3122L109.578 57.6637L109.227 57.3081ZM59.3174 6.81201L59.4893 6.34251L59.5944 6.38097L59.673 6.46053L59.3174 6.81201ZM42.7285 0.736816L42.23 0.774856L42.1709 0.00011307L42.9005 0.267311L42.7285 0.736816ZM44.6436 25.8354L45.1421 25.7974L45.1831 26.3355L44.6846 26.3735L44.186 26.4115L44.145 25.8735L44.6436 25.8354ZM44.6846 26.3735V26.8735H25.1201V26.3735V25.8735H44.6846V26.3735ZM25.1201 26.3735H25.6201V41.6265H25.1201H24.6201V26.3735H25.1201ZM25.1201 41.6265L25.2667 42.1045L24.9132 42.2129L24.7666 41.7349L24.62 41.2568L24.9735 41.1484L25.1201 41.6265ZM24.7666 41.7349L24.9136 42.2128L2.13824 49.2196L1.99121 48.7417L1.84418 48.2638L24.6196 41.257L24.7666 41.7349ZM1.99121 48.7417L2.4853 48.8184L1.00776 58.3418L0.513672 58.2651L0.0195847 58.1885L1.49712 48.665L1.99121 48.7417ZM0.513672 58.2651L0.981354 58.0883L2.81631 62.9408L2.34863 63.1177L1.88095 63.2945L0.04599 58.442L0.513672 58.2651ZM2.34863 63.1177L2.70425 62.7662L52.6134 113.263L52.2578 113.615L51.9022 113.966L1.99302 63.4692L2.34863 63.1177ZM52.2578 113.615L51.9063 113.259L108.875 56.9525L109.227 57.3081L109.578 57.6637L52.6093 113.97L52.2578 113.615ZM109.227 57.3081L108.871 57.6596L58.9618 7.16349L59.3174 6.81201L59.673 6.46053L109.582 56.9566L109.227 57.3081ZM59.3174 6.81201L59.1454 7.28152L42.5566 1.20632L42.7285 0.736816L42.9005 0.267311L59.4893 6.34251L59.3174 6.81201ZM42.7285 0.736816L43.2271 0.698777L45.1421 25.7974L44.6436 25.8354L44.145 25.8735L42.23 0.774856L42.7285 0.736816Z" fill="black"/>
</svg>
