<svg width="274" height="227" viewBox="0 0 274 227" fill="none" xmlns="http://www.w3.org/2000/svg">
<path d="M234.713 13.2743L221.47 53.2608L200.363 60.4923L162.33 175.326L167.963 182.88L208.286 196.235L215.115 192.808L253.148 77.9749L240.531 59.574L253.775 19.5874L257.44 20.8015L259.987 13.1118L234.328 4.61328L231.781 12.303L234.713 13.2743Z" fill="black"/>
<path d="M63.4485 37.8471L65.6675 68.5331L77.1504 87.8716L111.15 115.073L109.169 210.722L100.367 220.256L34.2743 225.036L23.6022 216.91L6.69977 122.626L38.2027 90.6881L45.0135 70.0267L42.7944 39.3406L37.4834 39.7247L36.5872 27.3323L67.2733 25.1132L68.1694 37.5057L63.4485 37.8471Z" fill="url(#paint0_linear_596_3489)"/>
<defs>
<linearGradient id="paint0_linear_596_3489" x1="138.025" y1="92.9608" x2="7.10517" y2="128.232" gradientUnits="userSpaceOnUse">
<stop offset="0.663462"/>
<stop offset="1" stop-color="#242424"/>
</linearGradient>
</defs>
</svg>
