<svg width="1593" height="426" viewBox="0 0 1593 426" fill="none" xmlns="http://www.w3.org/2000/svg">
<path d="M93.4818 169.253L166.891 144.526L192.394 177.412L223.995 216.856L226.74 284.197L201.641 333.599L167.797 361.589L173.098 371.11L37.3681 359.914L4.13545 306.711L26.9117 258.632L19.3184 243.371L37.7107 201.491L93.4818 169.253Z" fill="url(#paint0_linear_539_2793)"/>
<path d="M140.462 22.2462L175.779 36.7656L189.334 53.527L182.818 72.1652L185.862 95.6289L159.385 108.079L161.909 124.435L115.898 132.246L89.58 115.946L69.2481 114.269L42.2151 99.9284L54.5817 90.856L71.5632 86.2012L89.3836 78.0832L84.6085 55.4859L107.759 49.8261L140.462 22.2462Z" fill="url(#paint1_linear_539_2793)"/>
<path d="M117.984 140.492L115.898 132.246L161.909 124.435L164.586 132.225L117.984 140.492Z" fill="url(#paint2_linear_539_2793)"/>
<path d="M117.984 140.492L164.586 132.225L167.304 139.514L101.919 160.866L117.984 140.492Z" fill="url(#paint3_linear_539_2793)"/>
<path d="M101.919 160.866L167.304 139.514L166.891 144.526L93.4818 169.253L101.919 160.866Z" fill="url(#paint4_linear_539_2793)"/>
<path d="M610.399 235.981L656.011 239.904L720.101 254.487L741.536 263.953L781.324 258.851L823.146 245.346L852.484 249.727L929.802 221.898L884.795 210.569L868.213 208.624L846.218 200.858L774.442 205.175L742.248 202.789L610.399 235.981Z" fill="black"/>
<path d="M715.679 274.597L720.101 254.487L656.011 239.904L610.399 235.981L627.264 270.462L614.185 307.969L732.633 352.225L729.346 326.589L719.583 305.04L732.786 292.761L715.679 274.597Z" fill="url(#paint5_linear_539_2793)"/>
<path d="M720.101 254.487L715.679 274.597L732.786 292.761L719.583 305.04L729.346 326.589L732.633 352.225L791.699 339.766L904.373 314.732L918.607 255.906L929.802 221.898L852.484 249.727L823.146 245.346L781.324 258.851L741.536 263.953L720.101 254.487Z" fill="black"/>
<path d="M1259.4 294.982L1305.01 298.905L1369.1 313.488L1390.54 322.954L1430.32 317.852L1472.15 304.346L1501.48 308.727L1578.8 280.899L1533.8 269.569L1517.21 267.624L1495.22 259.858L1423.44 264.176L1391.25 261.789L1259.4 294.982Z" fill="black"/>
<path d="M1364.68 333.598L1369.1 313.488L1305.01 298.905L1259.4 294.982L1276.26 329.463L1263.19 366.969L1381.63 411.226L1378.35 385.59L1368.58 364.041L1381.79 351.762L1364.68 333.598Z" fill="url(#paint6_linear_539_2793)"/>
<path d="M1369.1 313.488L1364.68 333.598L1381.79 351.762L1368.58 364.041L1378.35 385.59L1381.63 411.226L1440.7 398.766L1553.37 373.733L1567.61 314.906L1578.8 280.899L1501.48 308.727L1472.15 304.346L1430.32 317.852L1390.54 322.954L1369.1 313.488Z" fill="black"/>
<path d="M1030.88 140.98L1005.27 141.76L978.412 126.391L942.894 124.45L931.636 120.825L928.27 113.684L940.811 113.932L944.421 110.484L941.133 101.767L951.066 90.8209L955.197 90.0023L966.041 73.8008L967.791 60.9623L979.343 68.0423L987.012 63.4002L992.745 48.9918L994.085 55.753L1007.24 49.2433L1030.13 56.4189L1041.83 64.2501L1037.2 92.1029L1035.51 115.08L1030.88 140.98Z" fill="url(#paint7_linear_539_2793)"/>
<path d="M983.498 303.781L959.458 225.786L971.109 178.195L1002.02 154.896L1026.64 157.043L1068.46 167.107L1094.62 188.857L1102.49 200.962L1119.99 279.47L1113.32 316.707L1084.39 328.295L1048.25 333.111L1017.08 339.287L999.13 339.33L979.14 346.804L966.312 339.196L987.592 324.44L983.498 303.781Z" fill="url(#paint8_linear_539_2793)"/>
<path d="M1002.02 154.896L1004.43 151.296L1016.06 151.917L1027.7 152.539L1026.64 157.043L1002.02 154.896Z" fill="black"/>
<path d="M1027.7 152.539L1016.06 151.917L1004.43 151.296L1003.46 146.413L1029.97 146.235L1027.7 152.539Z" fill="black"/>
<path d="M1029.97 146.235L1003.46 146.413L1005.27 141.76L1030.88 140.98L1029.97 146.235Z" fill="black"/>
<path d="M812.399 270.981L858.011 274.904L922.101 289.487L943.536 298.953L983.324 293.851L1025.15 280.346L1054.48 284.727L1131.8 256.898L1086.8 245.569L1070.21 243.624L1048.22 235.858L976.442 240.175L944.248 237.789L812.399 270.981Z" fill="#0E0E0E"/>
<path d="M917.679 309.597L922.101 289.487L858.011 274.904L812.399 270.981L829.264 305.462L816.185 342.969L934.633 387.225L931.346 361.589L921.583 340.04L934.786 327.761L917.679 309.597Z" fill="#1C1C1C"/>
<path d="M922.101 289.487L917.679 309.597L934.786 327.761L921.583 340.04L931.346 361.589L934.633 387.225L993.699 374.766L1106.37 349.732L1120.61 290.906L1131.8 256.898L1054.48 284.727L1025.15 280.346L983.324 293.851L943.536 298.953L922.101 289.487Z" fill="#0E0E0E"/>
<path d="M908.669 215.546L921.486 205.397L929.222 234.383L946.328 250L934.251 253.223L926.716 259.892L917.537 262.342L893.127 275.585L882.109 261.448L878.077 236.649L888.253 228.24L901.423 217.48L908.669 215.546Z" fill="#191919"/>
<path d="M946.328 250L929.222 234.383L921.486 205.397L929.891 200.049L940.392 204.491L949.736 220.11L954.377 237.501L952.125 248.452L946.328 250Z" fill="url(#paint9_linear_539_2793)"/>
<path d="M1339.92 200.731L1348.25 186.663L1365.86 210.949L1387.43 219.397L1377.31 226.735L1372.67 235.662L1364.98 241.239L1346.93 262.351L1331.58 253.103L1318.93 231.397L1325.41 219.9L1333.85 205.133L1339.92 200.731Z" fill="#191919"/>
<path d="M1387.43 219.397L1365.86 210.949L1348.25 186.663L1354.18 178.657L1365.58 179.04L1379.9 190.272L1390.46 204.844L1392.29 215.875L1387.43 219.397Z" fill="url(#paint10_linear_539_2793)"/>
<path d="M709.972 200.796L726.496 149.43L654.239 132.314L579.861 102.259L564.453 150.154L559.066 152.251L560.434 162.649L538.104 232.062L533.833 230.688L536.541 236.921L514.212 306.335L523.857 317.863L642.731 356.103L661.964 350.035L681.614 288.951L690.295 286.382L684.74 279.233L707.069 209.82L715.304 208.639L709.972 200.796Z" fill="url(#paint11_linear_539_2793)"/>
<path d="M726.496 149.43L736.294 143.39L711.352 120.813L615.967 90.1292L579.832 87.6966L579.861 102.259L654.239 132.314L726.496 149.43Z" fill="url(#paint12_linear_539_2793)"/>
<path d="M574.844 174.614L568.639 127.534L504.72 141.136L434.24 145.246L440.026 189.145L436.53 192.842L441.535 200.597L449.919 264.218L446.005 264.734L450.506 268.671L458.891 332.292L470.904 337.829L579.859 323.47L592.87 311.399L585.492 255.412L591.429 250.099L584.318 246.506L575.934 182.885L582.039 178.844L574.844 174.614Z" fill="url(#paint13_linear_539_2793)"/>
<path d="M568.639 127.534L574.157 119.04L545.815 110.477L458.39 121.999L428.733 133.674L434.24 145.246L504.72 141.136L568.639 127.534Z" fill="url(#paint14_linear_539_2793)"/>
<path d="M1279.81 208.693L1312.97 203.958L1337.1 218.791L1355.85 248.225L1354.33 296.704L1335.46 331.331L1311.93 350.271L1314.93 357.295L1226.64 344.555L1207.5 305.179L1224.78 271.422L1220.56 260.195L1234.66 230.74L1279.81 208.693Z" fill="url(#paint15_linear_539_2793)"/>
<path d="M1260.53 109.612L1303.59 112.163L1310.58 119.395L1308.92 130.874L1304.31 162.797L1309.85 177.511L1310.7 189.35L1280.2 193.37L1263.77 180.748L1219.07 184.551L1210.51 173.063L1220.98 171.279L1212.53 159.074L1230.53 145.561L1238.85 125.889L1253.5 128.004L1260.53 109.612Z" fill="url(#paint16_linear_539_2793)"/>
<path d="M1281.16 199.367L1280.2 193.37L1310.7 189.35L1312.07 195.04L1281.16 199.367Z" fill="url(#paint17_linear_539_2793)"/>
<path d="M1281.16 199.367L1312.07 195.04L1313.49 200.371L1278.7 203.772L1281.16 199.367Z" fill="url(#paint18_linear_539_2793)"/>
<path d="M1278.7 203.772L1313.49 200.371L1312.97 203.958L1279.81 208.693L1278.7 203.772Z" fill="url(#paint19_linear_539_2793)"/>
<path d="M1152.73 145.262L1107.23 136.39L1072.8 155.119L1044.77 194.349L1043.39 261.257L1066.97 310.304L1098.15 338.067L1093.49 347.533L1216.48 336.23L1245.76 283.328L1224.3 235.591L1230.94 220.42L1213.56 178.836L1152.73 145.262Z" fill="url(#paint20_linear_539_2793)"/>
<path d="M1186.5 10.1042L1126.79 10.5708L1116.62 20.0419L1118.08 35.9747L1122.15 80.2879L1113.44 100.169L1111.42 116.422L1153.3 124.122L1176.91 107.892L1238.44 116.296L1251.1 101.074L1236.75 97.8741L1249.31 81.6557L1225.39 61.7616L1215.32 34.0676L1194.9 35.9438L1186.5 10.1042Z" fill="url(#paint21_linear_539_2793)"/>
<path d="M1151.54 132.317L1153.3 124.122L1111.42 116.422L1109.12 124.165L1151.54 132.317Z" fill="url(#paint22_linear_539_2793)"/>
<path d="M1151.54 132.317L1109.12 124.165L1106.77 131.411L1154.62 138.561L1151.54 132.317Z" fill="url(#paint23_linear_539_2793)"/>
<path d="M1154.62 138.561L1106.77 131.411L1107.23 136.39L1152.73 145.262L1154.62 138.561Z" fill="url(#paint24_linear_539_2793)"/>
<path d="M265.43 188.324L285.939 192.82L309.891 184.497L338.79 188.298L348.405 187.078L352.195 181.836L342.057 180.141L339.669 176.819L343.635 170.295L337.288 159.978L334.084 158.695L327.797 144.008L328.326 133.404L317.952 137.361L312.477 132.464L310.035 119.994L307.935 125.237L298.324 118.008L278.803 120.33L268.196 124.87L267.72 148.003L265.614 166.764L265.43 188.324Z" fill="url(#paint25_linear_539_2793)"/>
<path d="M278.75 322.814L309.892 263.626L307.695 223.536L286.321 200.103L266.161 198.113L247.258 198.113L230.965 199.904L206.603 213.47L198.442 222.032L172.486 282.62L172.239 313.619L193.792 327.322L222.165 336.657L246.343 346.34L260.792 349.085L275.763 358.123L287.244 353.933L272.334 338.835L278.75 322.814Z" fill="url(#paint26_linear_539_2793)"/>
<path d="M286.321 200.103L285.178 200.627L266.241 198.113L266.161 198.113L286.321 200.103Z" fill="#0B0B0B"/>
<path d="M266.241 198.113L285.178 200.627L286.694 196.84L265.37 192.694L266.241 198.113Z" fill="#0B0B0B"/>
<path d="M265.37 192.694L286.694 196.84L285.939 192.82L265.43 188.324L265.37 192.694Z" fill="#0B0B0B"/>
<path d="M343.801 173.873L382.977 162.457L414.67 176.069L442.401 208.123L449.004 266.523L432.277 311.311L407.187 338.096L412.029 346H303.304L273.372 302.09L288.338 258.619L281.295 245.885L293.18 208.123L343.801 173.873Z" fill="url(#paint27_linear_539_2793)"/>
<path d="M303.304 58.3905L355.686 53.9995L365.37 61.4642V75.5153V114.595L374.613 131.281L377.695 145.332L341.6 155.431L319.591 143.136L266.329 155.431L254.004 143.136L266.329 139.184L254.004 126.012L273.372 106.691L279.975 81.6627H298.022L303.304 58.3905Z" fill="url(#paint28_linear_539_2793)"/>
<path d="M343.801 162.457L341.6 155.431L377.695 145.332L380.336 151.918L343.801 162.457Z" fill="url(#paint29_linear_539_2793)"/>
<path d="M343.801 162.457L380.336 151.918L382.977 158.066L341.6 168.165L343.801 162.457Z" fill="url(#paint30_linear_539_2793)"/>
<path d="M341.6 168.165L382.977 158.066V162.457L343.801 173.873L341.6 168.165Z" fill="url(#paint31_linear_539_2793)"/>
<defs>
<linearGradient id="paint0_linear_539_2793" x1="125.032" y1="31.5706" x2="97.5397" y2="364.878" gradientUnits="userSpaceOnUse">
<stop offset="0.870192"/>
<stop offset="1" stop-color="#353535"/>
</linearGradient>
<linearGradient id="paint1_linear_539_2793" x1="125.032" y1="31.5706" x2="97.5397" y2="364.878" gradientUnits="userSpaceOnUse">
<stop offset="0.870192"/>
<stop offset="1" stop-color="#353535"/>
</linearGradient>
<linearGradient id="paint2_linear_539_2793" x1="125.032" y1="31.5706" x2="97.5397" y2="364.878" gradientUnits="userSpaceOnUse">
<stop offset="0.870192"/>
<stop offset="1" stop-color="#353535"/>
</linearGradient>
<linearGradient id="paint3_linear_539_2793" x1="125.032" y1="31.5706" x2="97.5397" y2="364.878" gradientUnits="userSpaceOnUse">
<stop offset="0.870192"/>
<stop offset="1" stop-color="#353535"/>
</linearGradient>
<linearGradient id="paint4_linear_539_2793" x1="125.032" y1="31.5706" x2="97.5397" y2="364.878" gradientUnits="userSpaceOnUse">
<stop offset="0.870192"/>
<stop offset="1" stop-color="#353535"/>
</linearGradient>
<linearGradient id="paint5_linear_539_2793" x1="763.673" y1="200.042" x2="782.368" y2="345.848" gradientUnits="userSpaceOnUse">
<stop offset="0.8125" stop-color="#121212"/>
<stop offset="1" stop-color="#272727"/>
</linearGradient>
<linearGradient id="paint6_linear_539_2793" x1="1412.67" y1="259.042" x2="1431.37" y2="404.849" gradientUnits="userSpaceOnUse">
<stop offset="0.8125" stop-color="#121212"/>
<stop offset="1" stop-color="#272727"/>
</linearGradient>
<linearGradient id="paint7_linear_539_2793" x1="991.618" y1="49.2151" x2="1048.33" y2="335.439" gradientUnits="userSpaceOnUse">
<stop offset="0.855769" stop-color="#0B0B0B"/>
</linearGradient>
<linearGradient id="paint8_linear_539_2793" x1="991.618" y1="49.2151" x2="1048.33" y2="335.439" gradientUnits="userSpaceOnUse">
<stop offset="0.855769" stop-color="#0B0B0B"/>
</linearGradient>
<linearGradient id="paint9_linear_539_2793" x1="951.605" y1="227.115" x2="878.176" y2="246.714" gradientUnits="userSpaceOnUse">
<stop offset="0.293269" stop-color="#0F0F0F"/>
<stop offset="1" stop-color="#757575"/>
</linearGradient>
<linearGradient id="paint10_linear_539_2793" x1="1384.15" y1="196.141" x2="1322.63" y2="240.757" gradientUnits="userSpaceOnUse">
<stop offset="0.293269" stop-color="#0F0F0F"/>
<stop offset="1" stop-color="#757575"/>
</linearGradient>
<linearGradient id="paint11_linear_539_2793" x1="719.611" y1="221.835" x2="535.941" y2="237.459" gradientUnits="userSpaceOnUse">
<stop offset="0.432692"/>
<stop offset="1" stop-color="#222222"/>
</linearGradient>
<linearGradient id="paint12_linear_539_2793" x1="719.611" y1="221.835" x2="535.941" y2="237.459" gradientUnits="userSpaceOnUse">
<stop offset="0.432692"/>
<stop offset="1" stop-color="#222222"/>
</linearGradient>
<linearGradient id="paint13_linear_539_2793" x1="574.866" y1="241.062" x2="446.941" y2="272.788" gradientUnits="userSpaceOnUse">
<stop offset="0.254808"/>
<stop offset="1" stop-color="#292929"/>
</linearGradient>
<linearGradient id="paint14_linear_539_2793" x1="574.866" y1="241.062" x2="446.941" y2="272.788" gradientUnits="userSpaceOnUse">
<stop offset="0.254808"/>
<stop offset="1" stop-color="#292929"/>
</linearGradient>
<linearGradient id="paint15_linear_539_2793" x1="1300.19" y1="111.673" x2="1265.78" y2="350.203" gradientUnits="userSpaceOnUse">
<stop offset="0.870192"/>
<stop offset="1" stop-color="#353535"/>
</linearGradient>
<linearGradient id="paint16_linear_539_2793" x1="1300.19" y1="111.673" x2="1265.78" y2="350.203" gradientUnits="userSpaceOnUse">
<stop offset="0.870192"/>
<stop offset="1" stop-color="#353535"/>
</linearGradient>
<linearGradient id="paint17_linear_539_2793" x1="1300.19" y1="111.673" x2="1265.78" y2="350.203" gradientUnits="userSpaceOnUse">
<stop offset="0.870192"/>
<stop offset="1" stop-color="#353535"/>
</linearGradient>
<linearGradient id="paint18_linear_539_2793" x1="1300.19" y1="111.673" x2="1265.78" y2="350.203" gradientUnits="userSpaceOnUse">
<stop offset="0.870192"/>
<stop offset="1" stop-color="#353535"/>
</linearGradient>
<linearGradient id="paint19_linear_539_2793" x1="1300.19" y1="111.673" x2="1265.78" y2="350.203" gradientUnits="userSpaceOnUse">
<stop offset="0.870192"/>
<stop offset="1" stop-color="#353535"/>
</linearGradient>
<linearGradient id="paint20_linear_539_2793" x1="1217.61" y1="15.2791" x2="1032.3" y2="353.659" gradientUnits="userSpaceOnUse">
<stop offset="0.370192"/>
<stop offset="0.725962" stop-color="#1C1C1C"/>
<stop offset="1" stop-color="#353535"/>
</linearGradient>
<linearGradient id="paint21_linear_539_2793" x1="1217.61" y1="15.2791" x2="1032.3" y2="353.659" gradientUnits="userSpaceOnUse">
<stop offset="0.370192"/>
<stop offset="0.725962" stop-color="#1C1C1C"/>
<stop offset="1" stop-color="#353535"/>
</linearGradient>
<linearGradient id="paint22_linear_539_2793" x1="1217.61" y1="15.2791" x2="1032.3" y2="353.659" gradientUnits="userSpaceOnUse">
<stop offset="0.370192"/>
<stop offset="0.725962" stop-color="#1C1C1C"/>
<stop offset="1" stop-color="#353535"/>
</linearGradient>
<linearGradient id="paint23_linear_539_2793" x1="1217.61" y1="15.2791" x2="1032.3" y2="353.659" gradientUnits="userSpaceOnUse">
<stop offset="0.370192"/>
<stop offset="0.725962" stop-color="#1C1C1C"/>
<stop offset="1" stop-color="#353535"/>
</linearGradient>
<linearGradient id="paint24_linear_539_2793" x1="1217.61" y1="15.2791" x2="1032.3" y2="353.659" gradientUnits="userSpaceOnUse">
<stop offset="0.370192"/>
<stop offset="0.725962" stop-color="#1C1C1C"/>
<stop offset="1" stop-color="#353535"/>
</linearGradient>
<linearGradient id="paint25_linear_539_2793" x1="309.383" y1="119.732" x2="221.757" y2="338.522" gradientUnits="userSpaceOnUse">
<stop offset="0.572115" stop-color="#0B0B0B"/>
<stop offset="1" stop-color="#282828"/>
</linearGradient>
<linearGradient id="paint26_linear_539_2793" x1="309.383" y1="119.732" x2="221.757" y2="338.522" gradientUnits="userSpaceOnUse">
<stop offset="0.572115" stop-color="#0B0B0B"/>
<stop offset="1" stop-color="#282828"/>
</linearGradient>
<linearGradient id="paint27_linear_539_2793" x1="351.504" y1="53.9995" x2="351.504" y2="346" gradientUnits="userSpaceOnUse">
<stop offset="0.870192"/>
<stop offset="1" stop-color="#353535"/>
</linearGradient>
<linearGradient id="paint28_linear_539_2793" x1="351.504" y1="53.9995" x2="351.504" y2="346" gradientUnits="userSpaceOnUse">
<stop offset="0.870192"/>
<stop offset="1" stop-color="#353535"/>
</linearGradient>
<linearGradient id="paint29_linear_539_2793" x1="351.504" y1="53.9995" x2="351.504" y2="346" gradientUnits="userSpaceOnUse">
<stop offset="0.870192"/>
<stop offset="1" stop-color="#353535"/>
</linearGradient>
<linearGradient id="paint30_linear_539_2793" x1="351.504" y1="53.9995" x2="351.504" y2="346" gradientUnits="userSpaceOnUse">
<stop offset="0.870192"/>
<stop offset="1" stop-color="#353535"/>
</linearGradient>
<linearGradient id="paint31_linear_539_2793" x1="351.504" y1="53.9995" x2="351.504" y2="346" gradientUnits="userSpaceOnUse">
<stop offset="0.870192"/>
<stop offset="1" stop-color="#353535"/>
</linearGradient>
</defs>
</svg>
