<svg width="641" height="340" viewBox="0 0 641 340" fill="none" xmlns="http://www.w3.org/2000/svg">
<path d="M357.398 88.8008L336.252 89.4447L314.075 76.7545L284.747 75.1513L275.451 72.158L272.671 66.262L283.026 66.4667L286.008 63.6196L283.292 56.4215L291.494 47.3828L294.906 46.7068L303.86 33.3287L305.305 22.7276L314.844 28.5738L321.176 24.7406L325.91 12.8431L327.016 18.426L337.878 13.0507L356.78 18.9759L366.442 25.4424L362.618 48.4414L361.22 67.4141L357.398 88.8008Z" fill="black"/>
<path d="M318.275 223.231L298.424 158.828L308.045 119.531L333.566 100.292L353.902 102.065L388.427 110.374L410.036 128.334L416.529 138.33L430.984 203.157L425.472 233.904L401.581 243.473L371.746 247.449L346.003 252.55L331.182 252.585L314.676 258.756L304.084 252.474L321.655 240.29L318.275 223.231Z" fill="black"/>
<path d="M333.566 100.292L335.555 97.3187L345.166 97.8322L354.777 98.3456L353.902 102.065L333.566 100.292Z" fill="black"/>
<path d="M354.777 98.3456L345.166 97.8322L335.555 97.3187L334.756 93.2866L356.646 93.1401L354.777 98.3456Z" fill="black"/>
<path d="M356.646 93.1401L334.756 93.2866L336.252 89.4447L357.398 88.8008L356.646 93.1401Z" fill="black"/>
<path d="M251.275 85.995L264.519 125.982L285.625 133.213L323.658 248.046L318.025 255.601L277.703 268.956L270.873 265.529L232.84 150.696L245.457 132.295L232.214 92.3081L228.548 93.5222L226.001 85.8325L251.661 77.334L254.207 85.0237L251.275 85.995Z" fill="black"/>
<path d="M89.4395 175.926L68.3751 171.857L49.2593 154.366L20.6009 146.253L12.0702 141.222L10.6322 134.771L20.8316 137.278L24.4151 135.125L23.3306 127.399L33.4565 120.282L36.9823 120.373L48.8179 109.13L52.6073 98.9638L60.7434 106.871L67.861 104.488L75.1927 93.7708L75.0445 99.5404L86.9864 96.6398L104.369 106.709L112.488 115.257L103.586 137.159L97.9799 155.618L89.4395 175.926Z" fill="url(#paint0_linear_592_3485)"/>
<path d="M20.8144 300.214L15.5089 232.081L33.7729 195.344L63.3036 181.99L83.0282 188.27L115.335 204.175L132.717 226.753L136.916 238.087L136.789 305.44L124.492 334.632L98.726 338.781L68.325 336.075L41.721 335.392L27.0507 332.128L9.34742 334.56L0.266166 325.987L20.3614 317.844L20.8144 300.214Z" fill="url(#paint1_linear_592_3485)"/>
<path d="M63.3036 181.99L65.9337 179.492L75.3276 182.139L84.7215 184.786L83.0282 188.27L63.3036 181.99Z" fill="black"/>
<path d="M84.7215 184.786L75.3276 182.139L65.9337 179.492L66.0408 175.325L87.7298 180.052L84.7215 184.786Z" fill="black"/>
<path d="M87.7298 180.052L66.0408 175.325L68.3751 171.857L89.4395 175.926L87.7298 180.052Z" fill="black"/>
<path d="M500.606 128.425L526.961 171.257L534.736 240.804L571.943 301.273L640.162 259.298L602.955 198.829L545.83 159.646L519.475 116.814L521.969 111.112L516.064 111.271L513.274 106.736L494.405 118.346L497.195 122.882L493.665 128.527L500.606 128.425Z" fill="black"/>
<defs>
<linearGradient id="paint0_linear_592_3485" x1="74.2311" y1="93.7461" x2="67.9551" y2="337.99" gradientUnits="userSpaceOnUse">
<stop offset="0.855769" stop-color="#0B0B0B"/>
</linearGradient>
<linearGradient id="paint1_linear_592_3485" x1="74.2311" y1="93.7461" x2="67.9551" y2="337.99" gradientUnits="userSpaceOnUse">
<stop offset="0.855769" stop-color="#0B0B0B"/>
</linearGradient>
</defs>
</svg>
