<svg width="236" height="200" viewBox="0 0 236 200" fill="none" xmlns="http://www.w3.org/2000/svg">
<path d="M74.3933 35.8451L64.5394 19.1984L43.6993 47.9369L18.1788 57.9335L30.1532 66.6169L35.6487 77.1797L44.7492 83.7791L66.0985 108.762L84.2662 97.8184L99.2381 72.1329L91.5634 58.5282L81.5779 41.0551L74.3933 35.8451Z" fill="black"/>
<path d="M18.1788 57.9335L43.6993 47.9369L64.5394 19.1984L57.5229 9.72517L44.0386 10.1788L27.0921 23.4696L14.5881 40.7126L12.4311 53.7655L18.1788 57.9335Z" fill="black"/>
<path d="M64.5394 19.1984L74.3933 35.8451L81.5779 41.0551L91.5634 58.5282L99.2381 72.1329L84.2662 97.8184L66.0985 108.762L44.7492 83.7791L35.6487 77.1797L30.1532 66.6169L18.1788 57.9335M64.5394 19.1984L43.6993 47.9369L18.1788 57.9335M64.5394 19.1984L57.5229 9.72517L44.0386 10.1788L27.0921 23.4696L14.5881 40.7126L12.4311 53.7655L18.1788 57.9335" stroke="black"/>
<path d="M71.0327 104.422L75.9983 106.347L76.9096 112.182L82.0668 108.697L128.962 126.865L174.356 172.463L185.634 167.404L181.462 149.618L181.357 149.171L181.792 149.029L208.469 140.252L203.111 119.82L203.032 119.524L203.26 119.321L218.371 105.76L206.771 101.267L136.965 106.206L90.0703 88.0391L88.9151 81.1947L84.0014 85.688L79.0361 83.7645L71.0327 104.422Z" fill="black"/>
</svg>
