<svg width="233" height="202" viewBox="0 0 233 202" fill="none" xmlns="http://www.w3.org/2000/svg">
<path d="M65.29 112.657L65.249 113.195H84.8135V128.448L85.167 128.557L107.942 135.563L109.42 145.087L107.585 149.939L57.6758 200.437L0.707031 144.13L50.6162 93.6338L67.2051 87.5586L65.29 112.657Z" fill="black"/>
<path d="M65.29 112.657L64.7915 112.619V112.619L65.29 112.657ZM65.249 113.195L64.7505 113.157L64.7095 113.695H65.249V113.195ZM84.8135 113.195H85.3135V112.695H84.8135V113.195ZM84.8135 128.448H84.3135V128.818L84.6669 128.926L84.8135 128.448ZM85.167 128.557L85.314 128.079L85.3136 128.079L85.167 128.557ZM107.942 135.563L108.436 135.487L108.388 135.178L108.089 135.086L107.942 135.563ZM109.42 145.087L109.888 145.264L109.934 145.14L109.914 145.01L109.42 145.087ZM107.585 149.939L107.941 150.291L108.015 150.215L108.053 150.116L107.585 149.939ZM57.6758 200.437L57.3243 200.792L57.6799 201.144L58.0314 200.788L57.6758 200.437ZM0.707031 144.13L0.351417 143.778L-6.33597e-05 144.134L0.35555 144.485L0.707031 144.13ZM50.6162 93.6338L50.4443 93.1643L50.3392 93.2028L50.2606 93.2823L50.6162 93.6338ZM67.2051 87.5586L67.7036 87.5966L67.7627 86.8219L67.0331 87.0891L67.2051 87.5586ZM65.29 112.657L64.7915 112.619L64.7505 113.157L65.249 113.195L65.7476 113.233L65.7886 112.695L65.29 112.657ZM65.249 113.195V113.695H84.8135V113.195V112.695H65.249V113.195ZM84.8135 113.195H84.3135V128.448H84.8135H85.3135V113.195H84.8135ZM84.8135 128.448L84.6669 128.926L85.0204 129.035L85.167 128.557L85.3136 128.079L84.9601 127.97L84.8135 128.448ZM85.167 128.557L85.02 129.035L107.795 136.041L107.942 135.563L108.089 135.086L85.314 128.079L85.167 128.557ZM107.942 135.563L107.448 135.64L108.926 145.164L109.42 145.087L109.914 145.01L108.436 135.487L107.942 135.563ZM109.42 145.087L108.952 144.91L107.117 149.763L107.585 149.939L108.053 150.116L109.888 145.264L109.42 145.087ZM107.585 149.939L107.229 149.588L57.3202 200.085L57.6758 200.437L58.0314 200.788L107.941 150.291L107.585 149.939ZM57.6758 200.437L58.0273 200.081L1.05851 143.774L0.707031 144.13L0.35555 144.485L57.3243 200.792L57.6758 200.437ZM0.707031 144.13L1.06265 144.481L50.9718 93.9853L50.6162 93.6338L50.2606 93.2823L0.351417 143.778L0.707031 144.13ZM50.6162 93.6338L50.7882 94.1033L67.377 88.0281L67.2051 87.5586L67.0331 87.0891L50.4443 93.1643L50.6162 93.6338ZM67.2051 87.5586L66.7065 87.5206L64.7915 112.619L65.29 112.657L65.7886 112.695L67.7036 87.5966L67.2051 87.5586Z" fill="black"/>
<path d="M225.823 69.0029L220.857 70.9273L219.946 76.7627L214.789 73.2775L167.894 91.4454L122.499 137.044L111.221 131.985L115.393 114.198L115.498 113.752L115.064 113.609L88.3867 104.832L93.745 84.4007L93.823 84.105L93.5954 83.9012L78.4847 70.3411L90.0849 65.8472L159.891 70.7866L206.785 52.6197L207.94 45.7752L212.854 50.2686L217.819 48.345L225.823 69.0029Z" fill="black"/>
</svg>
