<svg width="76" height="92" viewBox="0 0 76 92" fill="none" xmlns="http://www.w3.org/2000/svg">
<path d="M11.3643 45.7896L3.93752 27.9275L39.433 28.4553L62.725 14.0085L62.5051 28.7983L67.6711 39.5261L67.504 50.7664L74.7197 82.8267L55.074 90.8187L25.5384 87.4209L19.242 73.126L11.2324 54.6635L11.3643 45.7896Z" fill="black"/>
<path d="M62.725 14.0085L39.433 28.4553L3.93752 27.9275L0.555101 16.6344L8.99573 6.10893L29.7894 0.500887L51.0867 0.81756L62.8306 6.90941L62.725 14.0085Z" fill="black"/>
<path d="M3.93752 27.9275L11.3643 45.7896L11.2324 54.6635L19.242 73.126L25.5384 87.4209L55.074 90.8187L74.7197 82.8267L67.504 50.7664L67.6711 39.5261L62.5051 28.7983L62.725 14.0085M3.93752 27.9275L39.433 28.4553L62.725 14.0085M3.93752 27.9275L0.555099 16.6344L8.99572 6.10893L29.7894 0.500887L51.0867 0.81756L62.8306 6.90941L62.725 14.0085" stroke="black"/>
</svg>
